<svg width="34" height="34" viewBox="0 0 34 34" fill="none" xmlns="http://www.w3.org/2000/svg">
<mask id="mask0_47_512" style="mask-type:alpha" maskUnits="userSpaceOnUse" x="0" y="0" width="34" height="34">
<rect width="34" height="34" fill="#D9D9D9"/>
</mask>
<g mask="url(#mask0_47_512)">
<path d="M8.28717 24.2249C9.49134 23.3041 10.8372 22.578 12.3247 22.0468C13.8122 21.5155 15.3705 21.2499 16.9997 21.2499C18.6288 21.2499 20.1872 21.5155 21.6747 22.0468C23.1622 22.578 24.508 23.3041 25.7122 24.2249C26.5386 23.2569 27.182 22.1589 27.6424 20.9312C28.1028 19.7034 28.333 18.393 28.333 16.9999C28.333 13.8596 27.2292 11.1857 25.0215 8.97804C22.8139 6.7704 20.14 5.66659 16.9997 5.66659C13.8594 5.66659 11.1854 6.7704 8.9778 8.97804C6.77016 11.1857 5.66634 13.8596 5.66634 16.9999C5.66634 18.393 5.89655 19.7034 6.35697 20.9312C6.81738 22.1589 7.46079 23.2569 8.28717 24.2249ZM16.9997 18.4166C15.6066 18.4166 14.432 17.9385 13.4757 16.9822C12.5195 16.026 12.0413 14.8513 12.0413 13.4583C12.0413 12.0652 12.5195 10.8905 13.4757 9.93429C14.432 8.97804 15.6066 8.49992 16.9997 8.49992C18.3927 8.49992 19.5674 8.97804 20.5236 9.93429C21.4799 10.8905 21.958 12.0652 21.958 13.4583C21.958 14.8513 21.4799 16.026 20.5236 16.9822C19.5674 17.9385 18.3927 18.4166 16.9997 18.4166ZM16.9997 31.1666C15.04 31.1666 13.1983 30.7947 11.4747 30.051C9.75106 29.3072 8.25176 28.2978 6.97676 27.0228C5.70176 25.7478 4.69238 24.2485 3.94863 22.5249C3.20488 20.8013 2.83301 18.9596 2.83301 16.9999C2.83301 15.0402 3.20488 13.1985 3.94863 11.4749C4.69238 9.75131 5.70176 8.252 6.97676 6.977C8.25176 5.702 9.75106 4.69263 11.4747 3.94888C13.1983 3.20513 15.04 2.83325 16.9997 2.83325C18.9594 2.83325 20.8011 3.20513 22.5247 3.94888C24.2483 4.69263 25.7476 5.702 27.0226 6.977C28.2976 8.252 29.307 9.75131 30.0507 11.4749C30.7945 13.1985 31.1663 15.0402 31.1663 16.9999C31.1663 18.9596 30.7945 20.8013 30.0507 22.5249C29.307 24.2485 28.2976 25.7478 27.0226 27.0228C25.7476 28.2978 24.2483 29.3072 22.5247 30.051C20.8011 30.7947 18.9594 31.1666 16.9997 31.1666ZM16.9997 28.3333C18.2511 28.3333 19.4316 28.1503 20.5413 27.7843C21.6511 27.4183 22.6663 26.893 23.5872 26.2083C22.6663 25.5235 21.6511 24.9982 20.5413 24.6322C19.4316 24.2662 18.2511 24.0833 16.9997 24.0833C15.7483 24.0833 14.5677 24.2662 13.458 24.6322C12.3483 24.9982 11.333 25.5235 10.4122 26.2083C11.333 26.893 12.3483 27.4183 13.458 27.7843C14.5677 28.1503 15.7483 28.3333 16.9997 28.3333ZM16.9997 15.5833C17.6136 15.5833 18.1212 15.3826 18.5226 14.9812C18.924 14.5798 19.1247 14.0721 19.1247 13.4583C19.1247 12.8444 18.924 12.3367 18.5226 11.9353C18.1212 11.5339 17.6136 11.3333 16.9997 11.3333C16.3858 11.3333 15.8781 11.5339 15.4768 11.9353C15.0754 12.3367 14.8747 12.8444 14.8747 13.4583C14.8747 14.0721 15.0754 14.5798 15.4768 14.9812C15.8781 15.3826 16.3858 15.5833 16.9997 15.5833Z" fill="#B9B6B6"/>
</g>
</svg>
