<svg width="34" height="34" viewBox="0 0 34 34" fill="none" xmlns="http://www.w3.org/2000/svg">
<mask id="mask0_1_2045" style="mask-type:alpha" maskUnits="userSpaceOnUse" x="0" y="0" width="34" height="34">
<rect width="34" height="34" fill="#D9D9D9"/>
</mask>
<g mask="url(#mask0_1_2045)">
<path d="M8.28766 24.225C9.49183 23.3042 10.8377 22.5782 12.3252 22.0469C13.8127 21.5157 15.371 21.25 17.0002 21.25C18.6293 21.25 20.1877 21.5157 21.6752 22.0469C23.1627 22.5782 24.5085 23.3042 25.7127 24.225C26.5391 23.257 27.1825 22.1591 27.6429 20.9313C28.1033 19.7035 28.3335 18.3931 28.3335 17C28.3335 13.8598 27.2297 11.1858 25.022 8.97817C22.8144 6.77053 20.1404 5.66671 17.0002 5.66671C13.8599 5.66671 11.1859 6.77053 8.97829 8.97817C6.77065 11.1858 5.66683 13.8598 5.66683 17C5.66683 18.3931 5.89704 19.7035 6.35745 20.9313C6.81787 22.1591 7.46127 23.257 8.28766 24.225ZM17.0002 18.4167C15.6071 18.4167 14.4325 17.9386 13.4762 16.9823C12.52 16.0261 12.0418 14.8514 12.0418 13.4584C12.0418 12.0653 12.52 10.8907 13.4762 9.93442C14.4325 8.97817 15.6071 8.50004 17.0002 8.50004C18.3932 8.50004 19.5679 8.97817 20.5241 9.93442C21.4804 10.8907 21.9585 12.0653 21.9585 13.4584C21.9585 14.8514 21.4804 16.0261 20.5241 16.9823C19.5679 17.9386 18.3932 18.4167 17.0002 18.4167ZM17.0002 31.1667C15.0404 31.1667 13.1988 30.7948 11.4752 30.0511C9.75155 29.3073 8.25225 28.298 6.97725 27.023C5.70225 25.748 4.69287 24.2487 3.94912 22.525C3.20537 20.8014 2.8335 18.9598 2.8335 17C2.8335 15.0403 3.20537 13.1987 3.94912 11.475C4.69287 9.75143 5.70225 8.25212 6.97725 6.97712C8.25225 5.70212 9.75155 4.69275 11.4752 3.949C13.1988 3.20525 15.0404 2.83337 17.0002 2.83337C18.9599 2.83337 20.8016 3.20525 22.5252 3.949C24.2488 4.69275 25.7481 5.70212 27.0231 6.97712C28.2981 8.25212 29.3075 9.75143 30.0512 11.475C30.795 13.1987 31.1668 15.0403 31.1668 17C31.1668 18.9598 30.795 20.8014 30.0512 22.525C29.3075 24.2487 28.2981 25.748 27.0231 27.023C25.7481 28.298 24.2488 29.3073 22.5252 30.0511C20.8016 30.7948 18.9599 31.1667 17.0002 31.1667ZM17.0002 28.3334C18.2516 28.3334 19.4321 28.1504 20.5418 27.7844C21.6516 27.4184 22.6668 26.8931 23.5877 26.2084C22.6668 25.5237 21.6516 24.9983 20.5418 24.6323C19.4321 24.2664 18.2516 24.0834 17.0002 24.0834C15.7488 24.0834 14.5682 24.2664 13.4585 24.6323C12.3488 24.9983 11.3335 25.5237 10.4127 26.2084C11.3335 26.8931 12.3488 27.4184 13.4585 27.7844C14.5682 28.1504 15.7488 28.3334 17.0002 28.3334ZM17.0002 15.5834C17.6141 15.5834 18.1217 15.3827 18.5231 14.9813C18.9245 14.5799 19.1252 14.0723 19.1252 13.4584C19.1252 12.8445 18.9245 12.3368 18.5231 11.9355C18.1217 11.5341 17.6141 11.3334 17.0002 11.3334C16.3863 11.3334 15.8786 11.5341 15.4772 11.9355C15.0759 12.3368 14.8752 12.8445 14.8752 13.4584C14.8752 14.0723 15.0759 14.5799 15.4772 14.9813C15.8786 15.3827 16.3863 15.5834 17.0002 15.5834Z" fill="#B9B6B6"/>
</g>
</svg>
