<svg width="137" height="128" viewBox="0 0 137 128" fill="none" xmlns="http://www.w3.org/2000/svg">
<mask id="mask0_1_2675" style="mask-type:alpha" maskUnits="userSpaceOnUse" x="0" y="0" width="137" height="128">
<rect width="137" height="127.246" fill="#D9D9D9"/>
</mask>
<g mask="url(#mask0_1_2675)">
<path d="M76 106C64.8333 106 55.375 101.883 47.625 93.6484C39.875 85.4141 36 75.3646 36 63.5C36 51.724 39.875 41.6966 47.625 33.418C55.375 25.1393 64.8333 21 76 21C87.0833 21 96.5208 25.1393 104.312 33.418C112.104 41.6966 116 51.724 116 63.5C116 75.3646 112.104 85.4141 104.312 93.6484C96.5208 101.883 87.0833 106 76 106ZM76 95.375C84.3333 95.375 91.4167 92.276 97.25 86.0781C103.083 79.8802 106 72.3542 106 63.5C106 54.6458 103.083 47.1198 97.25 40.9219C91.4167 34.724 84.3333 31.625 76 31.625C67.6667 31.625 60.5833 34.724 54.75 40.9219C48.9167 47.1198 46 54.6458 46 63.5C46 72.3542 48.9167 79.8802 54.75 86.0781C60.5833 92.276 67.6667 95.375 76 95.375ZM87.375 83.2891L94.5 75.7188L81 61.375V42.25H71V65.7578L87.375 83.2891ZM11 47.5625V36.9375H31V47.5625H11ZM6 68.8125V58.1875H31V68.8125H6ZM11 90.0625V79.4375H31V90.0625H11Z" fill="white"/>
</g>
</svg>
