<svg width="52" height="56" viewBox="0 0 52 56" fill="none" xmlns="http://www.w3.org/2000/svg">
<path fill-rule="evenodd" clip-rule="evenodd" d="M26.0316 56.0001H25.9716C25.9036 55.9991 25.8366 55.9861 25.7706 55.9711L25.7616 55.9691C10.1565 52.2861 -0.458509 36 0.0155007 10.9809C0.0205007 10.7009 0.142511 10.4369 0.351511 10.2509C0.561511 10.0659 0.838511 9.97691 1.11651 10.0049C9.21252 10.8339 18.2536 7.21894 23.2806 0.405908C23.4686 0.150908 23.7676 -9.15527e-05 24.0846 -9.15527e-05H27.9296C28.2476 -9.15527e-05 28.5466 0.150908 28.7346 0.405908C33.7616 7.21894 42.7876 10.8339 50.8827 10.0049C51.1617 9.97691 51.4387 10.0659 51.6477 10.2509C51.8577 10.4369 51.9797 10.7009 51.9847 10.9809C52.4587 36.002 41.8406 52.2891 26.2366 55.9701L26.1936 55.9751L26.2316 55.9711L26.1916 55.9761C26.1396 55.9871 26.0866 55.9981 26.0316 56.0001ZM24.5826 1.99992H27.4326C32.6956 8.81091 41.6926 12.5519 49.9987 12.0809C50.1407 35.187 40.5106 50.4161 25.9996 53.9691C11.4895 50.4161 1.85851 35.187 2.00151 12.0809C10.3085 12.5519 19.3185 8.81091 24.5826 1.99992ZM14.4405 35.897C12.9015 33.649 11.9995 30.929 11.9995 28C11.9995 20.273 18.2736 14 25.9996 14C33.7266 14 39.9996 20.273 39.9996 28C39.9996 35.366 34.2986 41.4111 27.0726 41.9591C26.7956 41.9781 26.5246 41.8801 26.3226 41.6911C26.1206 41.5021 26.0056 41.2371 26.0056 40.9601C25.9996 40.9591 25.9996 40.9591 25.9996 40.9581C26.0006 40.431 26.4096 39.994 26.9356 39.959C33.1216 39.486 37.9996 34.308 37.9996 28C37.9996 21.377 32.6226 16 25.9996 16C19.3766 16 13.9995 21.377 13.9995 28C13.9995 30.505 14.7685 32.831 16.0835 34.756L16.4275 33.279C16.5525 32.741 17.0906 32.406 17.6276 32.531C18.1656 32.657 18.5005 33.195 18.3755 33.732L17.4685 37.628C17.3435 38.166 16.8056 38.5 16.2676 38.375L12.3715 37.469C11.8345 37.343 11.4995 36.805 11.6245 36.268C11.7495 35.73 12.2875 35.396 12.8255 35.521L14.4405 35.897ZM20.2926 29.707L24.2926 33.707C24.4976 33.912 24.7816 34.018 25.0706 33.997C25.3596 33.977 25.6256 33.832 25.7996 33.6L31.7996 25.6C32.1306 25.158 32.0416 24.531 31.5996 24.2C31.1586 23.869 30.5306 23.958 30.1996 24.4L24.8916 31.478L21.7066 28.293C21.3166 27.903 20.6826 27.903 20.2926 28.293C19.9026 28.683 19.9026 29.317 20.2926 29.707Z" fill="url(#paint0_linear_1_3042)"/>
<defs>
<linearGradient id="paint0_linear_1_3042" x1="0.803329" y1="29.5273" x2="52.006" y2="29.2897" gradientUnits="userSpaceOnUse">
<stop stop-color="#648C5A"/>
<stop offset="0.20048" stop-color="#507D46"/>
<stop offset="0.349756" stop-color="#3D6F31"/>
<stop offset="0.490866" stop-color="#3D6F31"/>
<stop offset="0.675062" stop-color="#235517"/>
<stop offset="0.84362" stop-color="#0A3C00"/>
<stop offset="1" stop-color="#002200"/>
</linearGradient>
</defs>
</svg>
