<svg width="156" height="162" viewBox="0 0 156 162" fill="none" xmlns="http://www.w3.org/2000/svg">
<mask id="mask0_1_2679" style="mask-type:alpha" maskUnits="userSpaceOnUse" x="0" y="0" width="156" height="162">
<rect width="156" height="162" fill="#D9D9D9"/>
</mask>
<g mask="url(#mask0_1_2679)">
<path d="M72.0525 155.24V142.669C66.3102 141.5 61.3535 139.259 57.1822 135.946C53.0109 132.632 49.9502 127.955 48 121.914L60.0262 117.529C61.6514 122.206 64.0621 125.763 67.2582 128.199C70.4544 130.635 74.6527 131.853 79.8533 131.853C84.2954 131.853 88.0604 130.952 91.1482 129.149C94.236 127.346 95.7799 124.545 95.7799 120.744C95.7799 117.334 94.5881 114.63 92.2046 112.632C89.821 110.635 84.2954 108.369 75.6278 105.835C66.3102 103.204 59.9179 100.062 56.4509 96.4077C52.9838 92.7536 51.2503 88.2955 51.2503 83.0335C51.2503 76.6997 53.5256 71.7787 58.076 68.2707C62.6265 64.7628 67.2853 62.7652 72.0525 62.2779V50H85.0538V62.2779C90.471 63.0575 94.9402 64.8358 98.4614 67.613C101.983 70.3902 104.556 73.7763 106.181 77.7715L94.1548 82.4488C92.8546 79.3306 91.0128 76.992 88.6292 75.4329C86.2456 73.8738 82.9953 73.0942 78.8782 73.0942C74.111 73.0942 70.4815 74.0443 67.9896 75.9445C65.4976 77.8446 64.2517 80.2076 64.2517 83.0335C64.2517 86.2492 65.8768 88.7827 69.1272 90.6341C72.3775 92.4856 78.0114 94.4345 86.0289 96.4808C93.5047 98.4297 99.1657 101.524 103.012 105.762C106.858 110.001 108.781 114.898 108.781 120.452C108.781 127.371 106.506 132.633 101.956 136.238C97.4051 139.843 91.7712 142.085 85.0538 142.962V155.24H72.0525Z" fill="white"/>
</g>
</svg>
