<svg width="61" height="80" viewBox="0 0 61 80" fill="none" xmlns="http://www.w3.org/2000/svg">
<path fill-rule="evenodd" clip-rule="evenodd" d="M22.7828 47.717C21.7158 47.903 20.6188 48 19.4998 48C9.01278 48 0.499756 39.486 0.499756 29C0.499756 18.5139 9.01278 9.99991 19.4998 9.99991C29.9859 9.99991 38.4999 18.5139 38.4999 29C38.4999 30.12 38.4019 31.217 38.2159 32.283C39.2819 32.097 40.3799 32 41.4999 32C51.9859 32 60.5 40.514 60.5 51.0001C60.5 61.4861 51.9859 70.0001 41.4999 70.0001C31.0129 70.0001 22.4998 61.4861 22.4998 51.0001C22.4998 49.88 22.5968 48.783 22.7828 47.717ZM41.4999 34C50.8819 34 58.5 41.617 58.5 51.0001C58.5 60.3831 50.8819 68.0001 41.4999 68.0001C32.1169 68.0001 24.4998 60.3831 24.4998 51.0001C24.4998 41.617 32.1169 34 41.4999 34ZM36.4999 44H33.4999C32.9479 44 32.4999 43.552 32.4999 43C32.4999 42.448 32.9479 42 33.4999 42H36.4999V39C36.4999 38.448 36.9479 38 37.4999 38C38.0509 38 38.4999 38.448 38.4999 39V42H40.4999V39C40.4999 38.448 40.9479 38 41.4999 38C42.0509 38 42.4999 38.448 42.4999 39V42H43.5019C46.2619 42 48.4999 44.238 48.4999 46.998V47.002C48.4999 48.272 48.0259 49.431 47.2459 50.313C49.1459 51.0211 50.4999 52.8511 50.4999 54.9981V55.0001C50.4999 56.3261 49.9729 57.5981 49.0349 58.5361C48.0969 59.4731 46.8259 60.0001 45.4999 60.0001H42.4999V63.0001C42.4999 63.5521 42.0509 64.0001 41.4999 64.0001C40.9479 64.0001 40.4999 63.5521 40.4999 63.0001V60.0001H38.4999V63.0001C38.4999 63.5521 38.0509 64.0001 37.4999 64.0001C36.9479 64.0001 36.4999 63.5521 36.4999 63.0001V60.0001H33.4999C32.9479 60.0001 32.4999 59.5521 32.4999 59.0001C32.4999 58.4481 32.9479 58.0001 33.4999 58.0001H36.4999V44ZM38.4999 58.0001V52.0001H45.5019C47.1569 52.0001 48.4999 53.3421 48.4999 54.9981V55.0001C48.4999 55.7961 48.1829 56.5591 47.6209 57.1211C47.0579 57.6841 46.2949 58.0001 45.4999 58.0001H38.4999ZM43.5019 50H38.4999V44H43.5019C45.1569 44 46.4999 45.342 46.4999 46.998V47.002C46.4999 48.658 45.1569 50 43.5019 50ZM36.0749 32.787C36.3529 31.569 36.4999 30.301 36.4999 29C36.4999 19.6169 28.8818 11.9999 19.4998 11.9999C10.1168 11.9999 2.49976 19.6169 2.49976 29C2.49976 38.383 10.1168 46 19.4998 46C20.8008 46 22.0688 45.853 23.2858 45.576C25.1108 39.448 29.9468 34.612 36.0749 32.787ZM18.4998 19.9999H17.6278L16.9718 20.0269L16.1608 20.1809L15.4408 20.4419L14.7278 20.8369L14.1178 21.3159L13.5868 21.8849L13.1318 22.5629L12.8238 23.2219L12.6278 23.869L12.5188 24.55L12.4998 25.002C12.4998 27.762 14.7368 30 17.4978 30H21.4998C22.2948 30 23.0578 30.316 23.6208 30.879C24.1828 31.441 24.4998 32.204 24.4998 33V33.002C24.4998 34.645 23.1778 35.979 21.5398 36H17.4998C16.7038 36 15.9408 35.684 15.3778 35.121C14.8158 34.559 14.4998 33.796 14.4998 33V33.002L14.4968 32.937C14.4828 32.637 14.3608 32.432 14.2068 32.293C14.0258 32.112 13.7758 32 13.4998 32C13.4998 32 12.5198 32.061 12.4998 32.974V33.002C12.4998 35.762 14.7368 38 17.4978 38H18.4998V41C18.4998 41.552 18.9478 42 19.4998 42C20.0508 42 20.4998 41.552 20.4998 41V37.999H21.5818L22.2818 37.939L23.0458 37.757L23.7768 37.453L24.4668 37.026L25.0528 36.518L25.5578 35.923L25.9798 35.223L26.2558 34.547L26.4208 33.887L26.4978 33.131L26.4998 32.998C26.4998 30.238 24.2618 28 21.5018 28H17.4998C16.7038 28 15.9408 27.684 15.3778 27.121C14.8158 26.559 14.4998 25.796 14.4998 25V24.998C14.4998 23.3549 15.8208 22.0209 17.4588 21.9999H21.4998C22.2948 21.9999 23.0578 22.3159 23.6208 22.8789C24.1828 23.4409 24.4998 24.204 24.4998 25V24.998L24.5018 25.063C24.5168 25.363 24.6378 25.568 24.7918 25.707C24.9728 25.888 25.2228 26 25.4998 26C25.4998 26 26.4788 25.939 26.4988 25.026L26.4998 24.998C26.4998 22.2379 24.2618 19.9999 21.5018 19.9999H20.4998V16.9999C20.4998 16.4479 20.0508 15.9999 19.4998 15.9999C18.9478 15.9999 18.4998 16.4479 18.4998 16.9999V19.9999Z" fill="url(#paint0_linear_1_3014)"/>
<defs>
<linearGradient id="paint0_linear_1_3014" x1="1.4264" y1="41.6364" x2="60.5067" y2="41.3412" gradientUnits="userSpaceOnUse">
<stop stop-color="#648C5A"/>
<stop offset="0.20048" stop-color="#507D46"/>
<stop offset="0.349756" stop-color="#3D6F31"/>
<stop offset="0.490866" stop-color="#3D6F31"/>
<stop offset="0.675062" stop-color="#235517"/>
<stop offset="0.84362" stop-color="#0A3C00"/>
<stop offset="1" stop-color="#002200"/>
</linearGradient>
</defs>
</svg>
