<svg width="34" height="34" viewBox="0 0 34 34" fill="none" xmlns="http://www.w3.org/2000/svg">
<mask id="mask0_1_2038" style="mask-type:alpha" maskUnits="userSpaceOnUse" x="0" y="0" width="34" height="34">
<rect width="34" height="34" fill="#D9D9D9"/>
</mask>
<g mask="url(#mask0_1_2038)">
<path d="M8.50016 19.8333H19.8335V16.9999H8.50016V19.8333ZM8.50016 15.5833H25.5002V12.7499H8.50016V15.5833ZM8.50016 11.3333H25.5002V8.49992H8.50016V11.3333ZM2.8335 31.1666V5.66659C2.8335 4.88742 3.11093 4.2204 3.66579 3.66554C4.22065 3.11068 4.88766 2.83325 5.66683 2.83325H28.3335C29.1127 2.83325 29.7797 3.11068 30.3345 3.66554C30.8894 4.2204 31.1668 4.88742 31.1668 5.66659V22.6666C31.1668 23.4458 30.8894 24.1128 30.3345 24.6676C29.7797 25.2225 29.1127 25.4999 28.3335 25.4999H8.50016L2.8335 31.1666ZM7.296 22.6666H28.3335V5.66659H5.66683V24.2603L7.296 22.6666Z" fill="#B9B6B6"/>
</g>
</svg>
