<svg width="34" height="34" viewBox="0 0 34 34" fill="none" xmlns="http://www.w3.org/2000/svg">
<mask id="mask0_47_546" style="mask-type:alpha" maskUnits="userSpaceOnUse" x="0" y="0" width="34" height="34">
<rect width="34" height="34" fill="#D9D9D9"/>
</mask>
<g mask="url(#mask0_47_546)">
<path d="M8.49967 19.8333H19.833V16.9999H8.49967V19.8333ZM8.49967 15.5833H25.4997V12.7499H8.49967V15.5833ZM8.49967 11.3333H25.4997V8.49992H8.49967V11.3333ZM2.83301 31.1666V5.66659C2.83301 4.88742 3.11044 4.2204 3.6653 3.66554C4.22016 3.11068 4.88717 2.83325 5.66634 2.83325H28.333C29.1122 2.83325 29.7792 3.11068 30.3341 3.66554C30.8889 4.2204 31.1663 4.88742 31.1663 5.66659V22.6666C31.1663 23.4458 30.8889 24.1128 30.3341 24.6676C29.7792 25.2225 29.1122 25.4999 28.333 25.4999H8.49967L2.83301 31.1666ZM7.29551 22.6666H28.333V5.66659H5.66634V24.2603L7.29551 22.6666Z" fill="white"/>
</g>
</svg>
