<svg width="24" height="24" viewBox="0 0 24 24" fill="none" xmlns="http://www.w3.org/2000/svg">
<mask id="mask0_1_1969" style="mask-type:alpha" maskUnits="userSpaceOnUse" x="0" y="0" width="24" height="24">
<rect width="24" height="24" fill="#D9D9D9"/>
</mask>
<g mask="url(#mask0_1_1969)">
<path d="M11 20C9.755 20 8.585 19.7638 7.49 19.2912C6.395 18.8187 5.4425 18.1775 4.6325 17.3675C3.8225 16.5575 3.18125 15.605 2.70875 14.51C2.23625 13.415 2 12.245 2 11C2 9.755 2.23625 8.585 2.70875 7.49C3.18125 6.395 3.8225 5.4425 4.6325 4.6325C5.4425 3.8225 6.395 3.18125 7.49 2.70875C8.585 2.23625 9.755 2 11 2C12.245 2 13.415 2.23625 14.51 2.70875C15.605 3.18125 16.5575 3.8225 17.3675 4.6325C18.1775 5.4425 18.8187 6.395 19.2912 7.49C19.7638 8.585 20 9.755 20 11C20 11.405 19.9775 11.8025 19.9325 12.1925C19.8875 12.5825 19.8125 12.965 19.7075 13.34C19.4975 13.1 19.2537 12.8975 18.9762 12.7325C18.6988 12.5675 18.395 12.455 18.065 12.395C18.11 12.17 18.1437 11.9412 18.1662 11.7087C18.1887 11.4762 18.2 11.24 18.2 11C18.2 8.99 17.5025 7.2875 16.1075 5.8925C14.7125 4.4975 13.01 3.8 11 3.8C8.99 3.8 7.2875 4.4975 5.8925 5.8925C4.4975 7.2875 3.8 8.99 3.8 11C3.8 13.01 4.4975 14.7125 5.8925 16.1075C7.2875 17.5025 8.99 18.2 11 18.2C11.765 18.2 12.4963 18.0875 13.1937 17.8625C13.8912 17.6375 14.5325 17.3225 15.1175 16.9175C15.2975 17.1725 15.5187 17.3975 15.7812 17.5925C16.0437 17.7875 16.325 17.9375 16.625 18.0425C15.86 18.6575 15.0012 19.1375 14.0487 19.4825C13.0962 19.8275 12.08 20 11 20ZM17.525 16.4C17.21 16.4 16.9438 16.2912 16.7263 16.0737C16.5088 15.8562 16.4 15.59 16.4 15.275C16.4 14.96 16.5088 14.6937 16.7263 14.4762C16.9438 14.2587 17.21 14.15 17.525 14.15C17.84 14.15 18.1063 14.2587 18.3237 14.4762C18.5413 14.6937 18.65 14.96 18.65 15.275C18.65 15.59 18.5413 15.8562 18.3237 16.0737C18.1063 16.2912 17.84 16.4 17.525 16.4ZM13.97 15.23L10.1 11.36V6.5H11.9V10.64L15.23 13.97L13.97 15.23Z" fill="white"/>
</g>
</svg>
