<svg width="119" height="135" viewBox="0 0 119 135" fill="none" xmlns="http://www.w3.org/2000/svg">
<mask id="mask0_1_2668" style="mask-type:alpha" maskUnits="userSpaceOnUse" x="0" y="0" width="119" height="135">
<rect width="119" height="135" fill="#D9D9D9"/>
</mask>
<g mask="url(#mask0_1_2668)">
<path d="M39.1962 118.987V107.737H24.3212V96.4873H34.2378V40.2373H24.3212V28.9873H39.1962V17.7373H49.1128V28.9873H59.0295V17.7373H68.9462V29.6904C73.2434 31.0029 76.7969 33.6514 79.6066 37.6357C82.4163 41.6201 83.8212 46.2373 83.8212 51.4873C83.8212 54.2061 83.408 56.8076 82.5816 59.292C81.7552 61.7764 80.5983 64.0029 79.1108 65.9717C82.0031 67.9404 84.3377 70.6123 86.1144 73.9873C87.8911 77.3623 88.7795 81.1123 88.7795 85.2373C88.7795 91.4248 86.8375 96.7217 82.9535 101.128C79.0694 105.534 74.4003 107.737 68.9462 107.737V118.987H59.0295V107.737H49.1128V118.987H39.1962ZM44.1545 62.7373H63.9878C66.7149 62.7373 69.0495 61.6357 70.9915 59.4326C72.9335 57.2295 73.9045 54.5811 73.9045 51.4873C73.9045 48.3936 72.9335 45.7451 70.9915 43.542C69.0495 41.3389 66.7149 40.2373 63.9878 40.2373H44.1545V62.7373ZM44.1545 96.4873H68.9462C71.6733 96.4873 74.0078 95.3857 75.9498 93.1826C77.8918 90.9795 78.8628 88.3311 78.8628 85.2373C78.8628 82.1436 77.8918 79.4951 75.9498 77.292C74.0078 75.0889 71.6733 73.9873 68.9462 73.9873H44.1545V96.4873Z" fill="white"/>
</g>
</svg>
