<svg width="118" height="114" viewBox="0 0 118 114" fill="none" xmlns="http://www.w3.org/2000/svg">
<mask id="mask0_1_2661" style="mask-type:alpha" maskUnits="userSpaceOnUse" x="0" y="0" width="118" height="114">
<rect width="117.352" height="113.321" fill="#D9D9D9"/>
</mask>
<g mask="url(#mask0_1_2661)">
<path d="M53.7866 103.877C44.6591 103.877 36.2652 101.87 28.6047 97.857C20.9442 93.8436 14.6691 88.4923 9.77937 81.8033V94.4338H0V66.1037H29.3381V75.547H17.2361C21.1479 81.2131 26.3024 85.7774 32.6998 89.2399C39.0971 92.7025 46.126 94.4338 53.7866 94.4338C59.8987 94.4338 65.6237 93.3124 70.9616 91.0696C76.2995 88.8268 80.9447 85.797 84.8972 81.9803C88.8497 78.1636 91.9872 73.678 94.3098 68.5235C96.6324 63.369 97.7937 57.8407 97.7937 51.9386H107.573C107.573 59.0998 106.167 65.8282 103.356 72.1238C100.544 78.4194 96.6936 83.928 91.8039 88.6497C86.9142 93.3714 81.2095 97.0897 74.69 99.8047C68.1704 102.52 61.2026 103.877 53.7866 103.877ZM49.3858 84.9904V78.8522C45.5556 77.9866 42.4384 76.393 40.0343 74.0715C37.6302 71.75 35.8577 68.7006 34.7168 64.9232L42.7848 61.8541C43.7627 65.0806 45.2907 67.5005 47.3688 69.1137C49.447 70.727 51.8307 71.5336 54.52 71.5336C57.2093 71.5336 59.5116 70.9237 61.4267 69.7039C63.3418 68.4842 64.2994 66.5758 64.2994 63.9789C64.2994 61.6967 63.3011 59.8474 61.3044 58.4309C59.3078 57.0144 55.7424 55.4012 50.6083 53.5912C45.8001 51.9386 42.2754 49.9712 40.0343 47.6891C37.7932 45.4069 36.6726 42.4165 36.6726 38.7179C36.6726 35.4914 37.834 32.56 40.1566 29.9237C42.4792 27.2874 45.6371 25.5758 49.6303 24.7889V18.8868H58.1873V24.7889C61.1211 25.025 63.79 26.166 66.1941 28.2121C68.5982 30.2582 70.2485 32.6584 71.1449 35.4127L63.3214 38.4818C62.6695 36.6718 61.6101 35.1569 60.1431 33.9371C58.6762 32.7174 56.6389 32.1075 54.031 32.1075C51.1787 32.1075 48.9987 32.6977 47.4911 33.8781C45.9834 35.0585 45.2296 36.6718 45.2296 38.7179C45.2296 40.7639 46.1668 42.3772 48.0412 43.5576C49.9156 44.738 53.2976 46.1152 58.1873 47.6891C64.0549 49.7351 67.9666 52.1353 69.9225 54.8896C71.8784 57.644 72.8563 60.6737 72.8563 63.9789C72.8563 66.261 72.4489 68.2678 71.6339 69.999C70.819 71.7303 69.7392 73.2059 68.3945 74.4256C67.0498 75.6454 65.4811 76.6291 63.6882 77.3767C61.8953 78.1243 59.9802 78.6948 57.9428 79.0883V84.9904H49.3858ZM0 51.9386C0 44.7774 1.40578 38.049 4.21735 31.7534C7.02892 25.4578 10.8796 19.9491 15.7692 15.2275C20.6589 10.5058 26.3636 6.78743 32.8831 4.07246C39.4027 1.35749 46.3705 0 53.7866 0C62.914 0 71.3079 2.00672 78.9684 6.02015C86.6289 10.0336 92.904 15.3848 97.7937 22.0739V9.44338H107.573V37.7735H78.235V28.3301H90.337C86.4252 22.6641 81.2707 18.0998 74.8733 14.6372C68.476 11.1747 61.4471 9.44338 53.7866 9.44338C47.6744 9.44338 41.9494 10.5648 36.6115 12.8076C31.2736 15.0504 26.6284 18.0801 22.6759 21.8968C18.7234 25.7135 15.5859 30.1991 13.2633 35.3537C10.9407 40.5082 9.77937 46.0365 9.77937 51.9386H0Z" fill="white"/>
</g>
</svg>
