<svg width="61" height="74" viewBox="0 0 61 74" fill="none" xmlns="http://www.w3.org/2000/svg">
<path fill-rule="evenodd" clip-rule="evenodd" d="M60.5002 15.3679C60.5002 13.9439 59.9342 12.5789 58.9282 11.5719C57.9212 10.5659 56.5562 9.99991 55.1322 9.99991C44.3631 9.99991 16.636 9.99991 5.86802 9.99991C4.44402 9.99991 3.07901 10.5659 2.07201 11.5719C1.065 12.5789 0.5 13.9439 0.5 15.3679C0.5 25.171 0.5 48.829 0.5 58.6321C0.5 60.0561 1.065 61.4211 2.07201 62.4281C3.07901 63.4341 4.44402 64.0001 5.86802 64.0001C16.636 64.0001 44.3631 64.0001 55.1322 64.0001C56.5562 64.0001 57.9212 63.4341 58.9282 62.4281C59.9342 61.4211 60.5002 60.0561 60.5002 58.6321V15.3679ZM58.5002 21.9999V58.6321C58.5002 59.5251 58.1452 60.3821 57.5132 61.0141C56.8822 61.6451 56.0252 62.0001 55.1322 62.0001C44.3631 62.0001 16.636 62.0001 5.86802 62.0001C4.97402 62.0001 4.11801 61.6451 3.48601 61.0141C2.85501 60.3821 2.50001 59.5251 2.50001 58.6321V21.9999H58.5002ZM54.5002 55.0001C54.5002 54.2041 54.1841 53.4411 53.6212 52.8791C53.0591 52.3161 52.2961 52.0001 51.5001 52.0001C49.7571 52.0001 47.2431 52.0001 45.5001 52.0001C44.7041 52.0001 43.9411 52.3161 43.3791 52.8791C42.8161 53.4411 42.5001 54.2041 42.5001 55.0001L43.5001 56.0001C42.9481 56.0001 42.5001 55.5521 42.5001 55.0001C42.5001 55.7961 42.8161 56.5591 43.3791 57.1211C43.9411 57.6841 44.7041 58.0001 45.5001 58.0001C47.2431 58.0001 49.7571 58.0001 51.5001 58.0001C52.2961 58.0001 53.0591 57.6841 53.6212 57.1211C54.1841 56.5591 54.5002 55.7961 54.5002 55.0001ZM52.5001 55.0001C52.5001 55.2651 52.3951 55.5201 52.2071 55.7071C52.0191 55.8951 51.7651 56.0001 51.5001 56.0001H45.5001C45.2351 56.0001 44.9801 55.8951 44.7931 55.7071C44.6051 55.5201 44.5001 55.2651 44.5001 55.0001C44.5001 55.5521 44.0521 56.0001 43.5001 56.0001L44.5001 55.0001C44.5001 54.7351 44.6051 54.4801 44.7931 54.2931C44.9801 54.1051 45.2351 54.0001 45.5001 54.0001H51.5001C51.7651 54.0001 52.0191 54.1051 52.2071 54.2931C52.3951 54.4801 52.5001 54.7351 52.5001 55.0001ZM34.5001 54.0001H22.5V53.0001C22.5 52.4481 22.052 52.0001 21.5 52.0001C20.948 52.0001 20.5 52.4481 20.5 53.0001V54.0001H8.50003V53.0001C8.50003 52.4481 8.05203 52.0001 7.50003 52.0001C6.94802 52.0001 6.50002 52.4481 6.50002 53.0001V55.0001V55.0061C6.50302 55.5551 6.95002 56.0001 7.50003 56.0001H35.5001C35.5231 56.0001 35.5471 55.9991 35.5701 55.9981L35.6031 55.9951L35.6091 55.9941C35.8751 55.9651 36.1101 55.8321 36.2711 55.6361L36.2911 55.6121L36.3091 55.5871L36.3271 55.5621L36.3471 55.5321L36.3641 55.5031L36.3821 55.4711L36.3961 55.4441L36.4091 55.4171L36.4211 55.3891L36.4331 55.3611L36.4411 55.3381L36.4491 55.3151L36.4571 55.2911L36.4641 55.2681L36.4701 55.2441L36.4761 55.2201L36.4811 55.1951L36.4851 55.1711L36.4891 55.1461L36.4931 55.1211L36.4951 55.0961L36.4981 55.0641L36.4991 55.0321L36.5001 55.0001V53.0001C36.5001 52.4481 36.0521 52.0001 35.5001 52.0001C34.9481 52.0001 34.5001 52.4481 34.5001 53.0001V54.0001ZM54.5002 47C54.5002 46.204 54.1841 45.441 53.6212 44.879C53.0591 44.316 52.2961 44 51.5001 44C49.7561 44 47.2411 44 45.4981 44C43.8421 44 42.5001 45.342 42.5001 46.998V47.002C42.5001 48.658 43.8421 50 45.4981 50C47.2411 50 49.7561 50 51.5001 50C52.2961 50 53.0591 49.684 53.6212 49.121C54.1841 48.559 54.5002 47.796 54.5002 47ZM52.5001 47C52.5001 47.265 52.3951 47.52 52.2071 47.707C52.0191 47.895 51.7651 48 51.5001 48H45.4981C44.9471 48 44.5001 47.553 44.5001 47.002V46.998C44.5001 46.447 44.9471 46 45.4981 46C47.2411 46 49.7561 46 51.5001 46C51.7651 46 52.0191 46.105 52.2071 46.293C52.3951 46.48 52.5001 46.735 52.5001 47ZM8.28103 45.625L15.656 36.406L24.875 43.781C25.3 44.121 25.9201 44.058 26.2681 43.64L36.2681 31.64C36.6211 31.216 36.5641 30.585 36.1401 30.232C35.7161 29.878 35.0851 29.936 34.7321 30.36L25.3591 41.607L16.125 34.219C15.693 33.874 15.064 33.944 14.719 34.375L6.71902 44.375C6.37402 44.806 6.44402 45.436 6.87502 45.781C7.30603 46.126 7.93603 46.056 8.28103 45.625ZM43.5001 40H53.5001C54.0521 40 54.5002 39.552 54.5002 39C54.5002 38.448 54.0521 38 53.5001 38H43.5001C42.9481 38 42.5001 38.448 42.5001 39C42.5001 39.552 42.9481 40 43.5001 40ZM47.5001 26C44.7401 26 42.5001 28.24 42.5001 31C42.5001 33.76 44.7401 36 47.5001 36C50.2591 36 52.5001 33.76 52.5001 31C52.5001 28.24 50.2591 26 47.5001 26ZM47.5001 28C49.1561 28 50.5001 29.344 50.5001 31C50.5001 32.656 49.1561 34 47.5001 34C45.8441 34 44.5001 32.656 44.5001 31C44.5001 29.344 45.8441 28 47.5001 28ZM58.5002 19.9999H2.50001V15.3679C2.50001 14.4749 2.85501 13.6179 3.48601 12.9859C4.11801 12.3549 4.97402 11.9999 5.86802 11.9999C16.636 11.9999 44.3631 11.9999 55.1322 11.9999C56.0252 11.9999 56.8822 12.3549 57.5132 12.9859C58.1452 13.6179 58.5002 14.4749 58.5002 15.3679V19.9999ZM18.5 13.9999C17.396 13.9999 16.5 14.8959 16.5 15.9999C16.5 17.1039 17.396 17.9999 18.5 17.9999C19.604 17.9999 20.5 17.1039 20.5 15.9999C20.5 14.8959 19.604 13.9999 18.5 13.9999ZM12.5 13.9999C11.396 13.9999 10.5 14.8959 10.5 15.9999C10.5 17.1039 11.396 17.9999 12.5 17.9999C13.604 17.9999 14.5 17.1039 14.5 15.9999C14.5 14.8959 13.604 13.9999 12.5 13.9999ZM6.50002 13.9999C5.39602 13.9999 4.50002 14.8959 4.50002 15.9999C4.50002 17.1039 5.39602 17.9999 6.50002 17.9999C7.60403 17.9999 8.50003 17.1039 8.50003 15.9999C8.50003 14.8959 7.60403 13.9999 6.50002 13.9999Z" fill="url(#paint0_linear_1_3021)"/>
<defs>
<linearGradient id="paint0_linear_1_3021" x1="1.42664" y1="38.4727" x2="60.5066" y2="38.1447" gradientUnits="userSpaceOnUse">
<stop stop-color="#648C5A"/>
<stop offset="0.20048" stop-color="#507D46"/>
<stop offset="0.349756" stop-color="#3D6F31"/>
<stop offset="0.490866" stop-color="#3D6F31"/>
<stop offset="0.675062" stop-color="#235517"/>
<stop offset="0.84362" stop-color="#0A3C00"/>
<stop offset="1" stop-color="#002200"/>
</linearGradient>
</defs>
</svg>
