<svg width="21" height="18" viewBox="0 0 21 18" fill="none" xmlns="http://www.w3.org/2000/svg">
<path d="M18.5474 4.05807H3.65674C3.31143 4.05807 3.03174 3.77576 3.03174 3.42722C3.03174 3.07867 3.31143 2.79636 3.65674 2.79636H18.6567C19.0021 2.79636 19.2817 2.51406 19.2817 2.16551C19.2817 1.12026 18.4423 0.272949 17.4067 0.272949H3.03174C1.65088 0.272949 0.531738 1.40257 0.531738 2.79636V15.4134C0.531738 16.8072 1.65088 17.9368 3.03174 17.9368H18.5474C19.6419 17.9368 20.5317 17.088 20.5317 16.0443V5.95063C20.5317 4.90696 19.6419 4.05807 18.5474 4.05807ZM16.7817 12.2592C16.0915 12.2592 15.5317 11.6942 15.5317 10.9975C15.5317 10.3008 16.0915 9.73575 16.7817 9.73575C17.472 9.73575 18.0317 10.3008 18.0317 10.9975C18.0317 11.6942 17.472 12.2592 16.7817 12.2592Z" fill="black"/>
</svg>
