<svg width="59" height="66" viewBox="0 0 59 66" fill="none" xmlns="http://www.w3.org/2000/svg">
<path fill-rule="evenodd" clip-rule="evenodd" d="M3.05801 24.1132C2.99501 24.1442 2.93501 24.1822 2.88001 24.2252L2.86601 24.2372L2.84101 24.2582L2.82801 24.2692L2.80901 24.2872L2.78301 24.3132L2.76801 24.3292L2.75201 24.3472L2.74401 24.3552L2.73301 24.3682C2.59501 24.5332 2.50901 24.7442 2.50101 24.9743L2.50001 24.9942C2.50001 24.9992 2.50001 25.0052 2.50001 25.0102V36.1813C1.335 36.5923 0.5 37.7043 0.5 39.0103V49.0103C0.5 49.5623 0.948002 50.0103 1.50001 50.0103H5.50002C6.05202 50.0103 6.50002 49.5623 6.50002 49.0103V39.0083C6.50002 37.7023 5.66502 36.5913 4.50002 36.1803V26.6553L12.5001 30.8033V46.7323C12.5001 48.5523 13.4391 50.2443 14.9841 51.2073L14.9871 51.2093C25.3301 57.5964 35.6652 57.5744 46.0002 51.1953L46.0022 51.1943C47.5472 50.2353 48.4862 48.5453 48.4862 46.7273C48.4992 42.2543 48.5002 32.6053 48.5002 30.8033L57.9603 25.8983C58.2923 25.7263 58.5003 25.3833 58.5003 25.0102C58.5003 24.6372 58.2923 24.2942 57.9603 24.1222L30.9602 10.1222C30.6722 9.97316 30.3282 9.97316 30.0402 10.1222L3.05801 24.1132ZM14.5001 31.8403V46.7323C14.5001 47.8613 15.0821 48.9113 16.0401 49.5093C25.6811 55.4624 35.3142 55.4404 44.9482 49.4943C45.9042 48.9003 46.4862 47.8543 46.4862 46.7273V46.7243C46.4972 42.8173 46.4992 34.9683 46.5002 31.8403L30.9602 39.8983C30.6722 40.0473 30.3282 40.0473 30.0402 39.8983L14.5001 31.8403ZM4.50002 39.0083V48.0103H2.50001V39.0103C2.50001 38.4583 2.94801 38.0103 3.50001 38.0103H3.50201C4.05302 38.0103 4.50002 38.4573 4.50002 39.0083ZM7.60103 24.0102H29.5001C30.0522 24.0102 30.5002 24.4582 30.5002 25.0102C30.5002 25.5623 30.0522 26.0103 29.5001 26.0103H7.60103L30.5002 37.8843L55.3282 25.0102L30.5002 12.1362L7.60103 24.0102Z" fill="url(#paint0_linear_1_3007)"/>
<defs>
<linearGradient id="paint0_linear_1_3007" x1="1.39576" y1="34.254" x2="58.5059" y2="33.894" gradientUnits="userSpaceOnUse">
<stop stop-color="#648C5A"/>
<stop offset="0.20048" stop-color="#507D46"/>
<stop offset="0.349756" stop-color="#3D6F31"/>
<stop offset="0.490866" stop-color="#3D6F31"/>
<stop offset="0.675062" stop-color="#235517"/>
<stop offset="0.84362" stop-color="#0A3C00"/>
<stop offset="1" stop-color="#002200"/>
</linearGradient>
</defs>
</svg>
