<svg width="35" height="23" viewBox="0 0 35 23" fill="none" xmlns="http://www.w3.org/2000/svg">
<rect x="15" y="8.39551" width="20" height="14.2857" rx="2" fill="white"/>
<mask id="mask0_3_5446" style="mask-type:luminance" maskUnits="userSpaceOnUse" x="15" y="8" width="20" height="15">
<rect x="15" y="8.39551" width="20" height="14.2857" rx="2" fill="white"/>
</mask>
<g mask="url(#mask0_3_5446)">
<path fill-rule="evenodd" clip-rule="evenodd" d="M35 8.39551H15V9.34789H35V8.39551ZM35 10.3003H15V11.2527H35V10.3003ZM15 12.205H35V13.1574H15V12.205ZM35 14.1098H15V15.0622H35V14.1098ZM15 16.0146H35V16.9669H15V16.0146ZM35 17.9193H15V18.8717H35V17.9193ZM15 19.8241H35V20.7765H15V19.8241ZM35 21.7288H15V22.6812H35V21.7288Z" fill="#D02F44"/>
<rect x="15" y="8.39551" width="8.57143" height="6.66667" fill="#46467F"/>
<g filter="url(#filter0_d_3_5446)">
<path fill-rule="evenodd" clip-rule="evenodd" d="M16.9045 9.82409C16.9045 10.0871 16.6913 10.3003 16.4283 10.3003C16.1653 10.3003 15.9521 10.0871 15.9521 9.82409C15.9521 9.5611 16.1653 9.3479 16.4283 9.3479C16.6913 9.3479 16.9045 9.5611 16.9045 9.82409ZM18.8093 9.82409C18.8093 10.0871 18.5961 10.3003 18.3331 10.3003C18.0701 10.3003 17.8569 10.0871 17.8569 9.82409C17.8569 9.5611 18.0701 9.3479 18.3331 9.3479C18.5961 9.3479 18.8093 9.5611 18.8093 9.82409ZM20.2379 10.3003C20.5009 10.3003 20.7141 10.0871 20.7141 9.82409C20.7141 9.5611 20.5009 9.3479 20.2379 9.3479C19.9749 9.3479 19.7617 9.5611 19.7617 9.82409C19.7617 10.0871 19.9749 10.3003 20.2379 10.3003ZM22.6188 9.82409C22.6188 10.0871 22.4056 10.3003 22.1426 10.3003C21.8796 10.3003 21.6664 10.0871 21.6664 9.82409C21.6664 9.5611 21.8796 9.3479 22.1426 9.3479C22.4056 9.3479 22.6188 9.5611 22.6188 9.82409ZM17.3807 11.2527C17.6437 11.2527 17.8569 11.0395 17.8569 10.7765C17.8569 10.5135 17.6437 10.3003 17.3807 10.3003C17.1177 10.3003 16.9045 10.5135 16.9045 10.7765C16.9045 11.0395 17.1177 11.2527 17.3807 11.2527ZM19.7617 10.7765C19.7617 11.0395 19.5485 11.2527 19.2855 11.2527C19.0225 11.2527 18.8093 11.0395 18.8093 10.7765C18.8093 10.5135 19.0225 10.3003 19.2855 10.3003C19.5485 10.3003 19.7617 10.5135 19.7617 10.7765ZM21.1902 11.2527C21.4532 11.2527 21.6664 11.0395 21.6664 10.7765C21.6664 10.5135 21.4532 10.3003 21.1902 10.3003C20.9273 10.3003 20.7141 10.5135 20.7141 10.7765C20.7141 11.0395 20.9273 11.2527 21.1902 11.2527ZM22.6188 11.7289C22.6188 11.9918 22.4056 12.205 22.1426 12.205C21.8796 12.205 21.6664 11.9918 21.6664 11.7289C21.6664 11.4659 21.8796 11.2527 22.1426 11.2527C22.4056 11.2527 22.6188 11.4659 22.6188 11.7289ZM20.2379 12.205C20.5009 12.205 20.7141 11.9918 20.7141 11.7289C20.7141 11.4659 20.5009 11.2527 20.2379 11.2527C19.9749 11.2527 19.7617 11.4659 19.7617 11.7289C19.7617 11.9918 19.9749 12.205 20.2379 12.205ZM18.8093 11.7289C18.8093 11.9918 18.5961 12.205 18.3331 12.205C18.0701 12.205 17.8569 11.9918 17.8569 11.7289C17.8569 11.4659 18.0701 11.2527 18.3331 11.2527C18.5961 11.2527 18.8093 11.4659 18.8093 11.7289ZM16.4283 12.205C16.6913 12.205 16.9045 11.9918 16.9045 11.7289C16.9045 11.4659 16.6913 11.2527 16.4283 11.2527C16.1653 11.2527 15.9521 11.4659 15.9521 11.7289C15.9521 11.9918 16.1653 12.205 16.4283 12.205ZM17.8569 12.6812C17.8569 12.9442 17.6437 13.1574 17.3807 13.1574C17.1177 13.1574 16.9045 12.9442 16.9045 12.6812C16.9045 12.4182 17.1177 12.205 17.3807 12.205C17.6437 12.205 17.8569 12.4182 17.8569 12.6812ZM19.2855 13.1574C19.5485 13.1574 19.7617 12.9442 19.7617 12.6812C19.7617 12.4182 19.5485 12.205 19.2855 12.205C19.0225 12.205 18.8093 12.4182 18.8093 12.6812C18.8093 12.9442 19.0225 13.1574 19.2855 13.1574ZM21.6664 12.6812C21.6664 12.9442 21.4532 13.1574 21.1902 13.1574C20.9273 13.1574 20.7141 12.9442 20.7141 12.6812C20.7141 12.4182 20.9273 12.205 21.1902 12.205C21.4532 12.205 21.6664 12.4182 21.6664 12.6812ZM22.1426 14.1098C22.4056 14.1098 22.6188 13.8966 22.6188 13.6336C22.6188 13.3706 22.4056 13.1574 22.1426 13.1574C21.8796 13.1574 21.6664 13.3706 21.6664 13.6336C21.6664 13.8966 21.8796 14.1098 22.1426 14.1098ZM20.7141 13.6336C20.7141 13.8966 20.5009 14.1098 20.2379 14.1098C19.9749 14.1098 19.7617 13.8966 19.7617 13.6336C19.7617 13.3706 19.9749 13.1574 20.2379 13.1574C20.5009 13.1574 20.7141 13.3706 20.7141 13.6336ZM18.3331 14.1098C18.5961 14.1098 18.8093 13.8966 18.8093 13.6336C18.8093 13.3706 18.5961 13.1574 18.3331 13.1574C18.0701 13.1574 17.8569 13.3706 17.8569 13.6336C17.8569 13.8966 18.0701 14.1098 18.3331 14.1098ZM16.9045 13.6336C16.9045 13.8966 16.6913 14.1098 16.4283 14.1098C16.1653 14.1098 15.9521 13.8966 15.9521 13.6336C15.9521 13.3706 16.1653 13.1574 16.4283 13.1574C16.6913 13.1574 16.9045 13.3706 16.9045 13.6336Z" fill="url(#paint0_linear_3_5446)"/>
</g>
</g>
<rect y="0.395508" width="20" height="14.2857" rx="2" fill="white"/>
<mask id="mask1_3_5446" style="mask-type:luminance" maskUnits="userSpaceOnUse" x="0" y="0" width="20" height="15">
<rect y="0.395508" width="20" height="14.2857" rx="2" fill="white"/>
</mask>
<g mask="url(#mask1_3_5446)">
<rect y="0.395508" width="20" height="14.2857" fill="#043CAE"/>
<path fill-rule="evenodd" clip-rule="evenodd" d="M9.32636 3.4499L9.99979 3.25265L10.6732 3.4499L10.476 2.77646L10.6732 2.10303L9.99979 2.30027L9.32636 2.10303L9.5236 2.77646L9.32636 3.4499ZM9.32636 12.9737L9.99979 12.7765L10.6732 12.9737L10.476 12.3003L10.6732 11.6268L9.99979 11.8241L9.32636 11.6268L9.5236 12.3003L9.32636 12.9737ZM14.7617 8.01456L14.0883 8.2118L14.2855 7.53837L14.0883 6.86493L14.7617 7.06218L15.4351 6.86493L15.2379 7.53837L15.4351 8.2118L14.7617 8.01456ZM4.56445 8.2118L5.23789 8.01456L5.91132 8.2118L5.71408 7.53837L5.91132 6.86493L5.23789 7.06218L4.56445 6.86493L4.7617 7.53837L4.56445 8.2118ZM14.1237 5.63361L13.4503 5.83085L13.6475 5.15742L13.4503 4.48398L14.1237 4.68122L14.7972 4.48398L14.5999 5.15742L14.7972 5.83085L14.1237 5.63361ZM5.20243 10.5928L5.87586 10.3955L6.5493 10.5928L6.35205 9.91932L6.5493 9.24588L5.87586 9.44313L5.20243 9.24588L5.39967 9.91932L5.20243 10.5928ZM12.3807 3.89063L11.7073 4.08787L11.9046 3.41444L11.7073 2.741L12.3807 2.93825L13.0542 2.741L12.8569 3.41444L13.0542 4.08787L12.3807 3.89063ZM6.94541 12.3357L7.61884 12.1385L8.29228 12.3357L8.09503 11.6623L8.29228 10.9889L7.61884 11.1861L6.94541 10.9889L7.14265 11.6623L6.94541 12.3357ZM14.1237 10.3955L13.4503 10.5928L13.6475 9.91932L13.4503 9.24588L14.1237 9.44313L14.7972 9.24588L14.5999 9.91932L14.7972 10.5928L14.1237 10.3955ZM5.20243 5.83085L5.87586 5.63361L6.5493 5.83085L6.35205 5.15742L6.5493 4.48398L5.87586 4.68122L5.20243 4.48398L5.39967 5.15742L5.20243 5.83085ZM12.3807 12.1385L11.7073 12.3357L11.9046 11.6623L11.7073 10.9889L12.3807 11.1861L13.0542 10.9889L12.8569 11.6623L13.0542 12.3357L12.3807 12.1385ZM6.94541 4.08787L7.61884 3.89063L8.29228 4.08787L8.09503 3.41444L8.29228 2.741L7.61884 2.93825L6.94541 2.741L7.14265 3.41444L6.94541 4.08787Z" fill="#FFD429"/>
</g>
<defs>
<filter id="filter0_d_3_5446" x="15.9521" y="9.3479" width="6.66699" height="5.76196" filterUnits="userSpaceOnUse" color-interpolation-filters="sRGB">
<feFlood flood-opacity="0" result="BackgroundImageFix"/>
<feColorMatrix in="SourceAlpha" type="matrix" values="0 0 0 0 0 0 0 0 0 0 0 0 0 0 0 0 0 0 127 0" result="hardAlpha"/>
<feOffset dy="1"/>
<feColorMatrix type="matrix" values="0 0 0 0 0 0 0 0 0 0 0 0 0 0 0 0 0 0 0.06 0"/>
<feBlend mode="normal" in2="BackgroundImageFix" result="effect1_dropShadow_3_5446"/>
<feBlend mode="normal" in="SourceGraphic" in2="effect1_dropShadow_3_5446" result="shape"/>
</filter>
<linearGradient id="paint0_linear_3_5446" x1="15.9521" y1="9.3479" x2="15.9521" y2="14.1098" gradientUnits="userSpaceOnUse">
<stop stop-color="white"/>
<stop offset="1" stop-color="#F0F0F0"/>
</linearGradient>
</defs>
</svg>
