<svg width="855" height="878" viewBox="0 0 855 878" fill="none" xmlns="http://www.w3.org/2000/svg">
<path d="M855 641.193L847.364 631.784L839.729 746.602L832.093 758.364L824.458 636.264L816.822 618.789L809.186 669.198L801.551 646.01L793.915 551.018L786.28 801.043L778.644 753.323L771.008 614.757L763.373 660.124L755.737 827.368L748.101 619.125L740.466 584.736L732.83 847.867L725.195 818.966L717.559 775.615L709.923 757.02L702.288 586.752L694.652 697.986L687.017 760.157L679.381 478.879L671.745 570.622L664.11 650.715L656.474 568.717L648.839 845.067L641.203 641.529L633.568 458.603L625.932 497.922L618.296 668.078L610.661 611.172L603.025 689.809L595.389 648.138L587.754 679.391L580.118 568.381L572.483 686.673L564.847 782.896L557.212 878L549.576 847.867L541.94 746.154L534.305 414.132L526.669 487.056L519.034 596.834L511.398 457.595L503.762 619.686L496.127 498.93L488.491 570.286L480.855 575.214L473.22 578.351L465.584 539.816L457.949 414.916L450.313 357.003L442.677 447.289L435.042 365.404L427.406 500.274L419.771 317.124L412.135 710.196L404.499 767.55L396.864 524.022L389.228 414.356L381.593 392.176L373.957 389.152L366.321 337.623L358.686 377.278L351.05 518.533L343.415 350.169L335.779 464.988L328.143 310.403L320.508 322.165L312.872 499.938L305.237 482.687L297.601 500.946L289.965 415.588L282.33 424.998L274.694 341.656L267.059 385.007L259.423 327.206L251.787 405.394L244.152 396.097L236.516 412.116L228.881 243.416L221.245 272.429L213.609 362.715L205.974 334.375L198.338 382.767L190.703 288.111L183.067 371.789L175.431 301.217L167.796 298.081L160.16 328.326L152.843 349.609L145.207 292.48L137.572 318.132L129.936 292.704L122.3 253.274L114.665 366.748L107.029 320.26L99.3936 330.566L91.758 358.347L84.1224 275.789L76.4868 514.052L68.8512 529.287L61.2156 479.887L53.58 429.926L45.9444 333.703L38.3088 446.505L30.6732 289.679L23.0376 360.251L15.402 727.447L7.76639 600.754L0.130768 380.974L-7.50479 348.489L-15.1404 279.15L-22.776 497.698L-30.4117 502.626L-38.0472 431.607L-45.6829 262.011L-53.3185 345.241L-60.954 435.751L-68.5896 364.844L-76.2252 234.454L-83.8608 207.906L-91.4964 308.611L-99.132 261.115L-106.768 262.571L-114.403 299.201L-122.039 194.688L-129.674 181.246L-137.31 339.864L-144.946 212.611L-152.581 251.257L-160.217 338.52L-167.852 405.282L-175.488 451.434L-183.124 279.598L-190.759 237.367L-198.395 318.804L-206.03 506.211L-213.666 391.616L-221.302 415.14L-228.937 424.214L-236.573 273.997L-244.208 210.819L-251.844 235.911L-259.48 249.129L-267.115 185.278L-274.751 130.949L-282.386 323.957L-290.022 531.303L-297.658 411.107L-305.293 295.841L-312.929 336.615L-320.564 187.519L-328.2 58.4736L-335.836 0L-343.471 26.2123L-351.107 124.004L-358.742 171.388L-366.378 143.047L-374 60.1539V878H-366.378H-358.742H-351.107H-343.471H-335.836H-328.2H-320.564H-312.929H-305.293H-297.658H-290.022H-282.386H-274.751H-267.115H-259.48H-251.844H-244.208H-236.573H-228.937H-221.302H-213.666H-206.03H-198.395H-190.759H-183.124H-175.488H-167.852H-160.217H-152.581H-144.946H-137.31H-129.674H-122.039H-114.403H-106.768H-99.132H-91.4964H-83.8608H-76.2252H-68.5896H-60.954H-53.3185H-45.6829H-38.0472H-30.4117H-22.776H-15.1404H-7.50479H0.130768H7.76639H15.402H23.0376H30.6732H38.3088H45.9444H53.58H61.2156H68.8512H76.4868H84.1224H91.758H99.3936H107.029H114.665H122.3H129.936H137.572H145.207H152.843H160.16H167.796H175.431H183.067H190.703H198.338H205.974H213.609H221.245H228.881H236.516H244.152H251.787H259.423H267.059H274.694H282.33H289.965H297.601H305.237H312.872H320.508H328.143H335.779H343.415H351.05H358.686H366.321H373.957H381.593H389.228H396.864H404.499H412.135H419.771H427.406H435.042H442.677H450.313H457.949H465.584H473.22H480.855H488.491H496.127H503.762H511.398H519.034H526.669H534.305H541.94H549.576H557.212H564.847H572.483H580.118H587.754H595.389H603.025H610.661H618.296H625.932H633.568H641.203H648.839H656.474H664.11H671.745H679.381H687.017H694.652H702.288H709.923H717.559H725.195H732.83H740.466H748.101H755.737H763.373H771.008H778.644H786.28H793.915H801.551H809.186H816.822H824.458H832.093H839.729H847.364H855V641.193Z" fill="url(#paint0_linear_1_1876)"/>
<defs>
<linearGradient id="paint0_linear_1_1876" x1="-374" y1="439" x2="855" y2="439" gradientUnits="userSpaceOnUse">
<stop stop-color="white" stop-opacity="0.4"/>
<stop offset="1" stop-color="#2C3E50" stop-opacity="0.26"/>
</linearGradient>
</defs>
</svg>
