<svg width="77" height="64" viewBox="0 0 77 64" fill="none" xmlns="http://www.w3.org/2000/svg">
<path fill-rule="evenodd" clip-rule="evenodd" d="M21.5093 41.1428H19.375C17.6668 41.1428 16.2814 42.3543 16.2814 43.8491V49.8652C16.2814 51.36 17.6668 52.5715 19.375 52.5715H21.5093V62.8572C21.5093 63.488 22.0948 64 22.8162 64C23.5377 64 24.1232 63.488 24.1232 62.8572V52.5715H26.2562C27.9657 52.5715 29.3511 51.36 29.3511 49.8652V43.8491C29.3511 42.3543 27.9657 41.1428 26.2562 41.1428H24.1232V28.5714C24.1232 27.9406 23.5377 27.4286 22.8162 27.4286C22.0948 27.4286 21.5093 27.9406 21.5093 28.5714V41.1428ZM68.5602 16.0001H66.4259C64.7177 16.0001 63.3323 17.2115 63.3323 18.7063V47.5795C63.3323 49.0743 64.7177 50.2858 66.4259 50.2858H68.5602V60.5714C68.5602 61.2023 69.1457 61.7143 69.8672 61.7143C70.5886 61.7143 71.1741 61.2023 71.1741 60.5714V50.2858H73.3071C75.0166 50.2858 76.402 49.0743 76.402 47.5795V18.7063C76.402 17.2115 75.0166 16.0001 73.3071 16.0001H71.1741V5.71429C71.1741 5.08343 70.5886 4.57142 69.8672 4.57142C69.1457 4.57142 68.5602 5.08343 68.5602 5.71429V16.0001ZM5.82554 29.7143H3.69125C1.98305 29.7143 0.597656 30.9257 0.597656 32.4206C0.597656 36.9291 0.597656 49.9281 0.597656 54.4366C0.597656 55.9315 1.98305 57.1429 3.69125 57.1429H5.82554V60.5714C5.82554 61.2023 6.41106 61.7143 7.13251 61.7143C7.85397 61.7143 8.43949 61.2023 8.43949 60.5714V57.1429H10.5725C12.282 57.1429 13.6673 55.9315 13.6673 54.4366V32.4206C13.6673 30.9257 12.282 29.7143 10.5725 29.7143H8.43949V21.7143C8.43949 21.0835 7.85397 20.5715 7.13251 20.5715C6.41106 20.5715 5.82554 21.0835 5.82554 21.7143V29.7143ZM37.1929 22.2857H35.0586C33.3504 22.2857 31.965 23.4972 31.965 24.992C31.965 28.5406 31.965 37.1737 31.965 40.7223C31.965 42.2171 33.3504 43.4285 35.0586 43.4285H37.1929V53.7143C37.1929 54.3452 37.7784 54.8572 38.4998 54.8572C39.2213 54.8572 39.8068 54.3452 39.8068 53.7143V43.4285H41.9398C43.6493 43.4285 45.0347 42.2171 45.0347 40.7223C45.0347 37.1737 45.0347 28.5406 45.0347 24.992C45.0347 23.4972 43.6493 22.2857 41.9398 22.2857H39.8068V19.4286C39.8068 18.7978 39.2213 18.2858 38.4998 18.2858C37.7784 18.2858 37.1929 18.7978 37.1929 19.4286V22.2857ZM11.0534 32.4206V54.4366C11.0534 54.6686 10.8378 54.8572 10.5725 54.8572H3.69125C3.42594 54.8572 3.2116 54.6686 3.2116 54.4366V32.4206C3.2116 32.1886 3.42594 32 3.69125 32H10.5725C10.8378 32 11.0534 32.1886 11.0534 32.4206ZM26.7371 43.848V49.8652C26.7371 50.0972 26.5215 50.2858 26.2562 50.2858H19.375C19.1097 50.2858 18.8953 50.0972 18.8953 49.8663V43.8491C18.8953 43.6171 19.1097 43.4285 19.375 43.4285H26.2562C26.5215 43.4285 26.7371 43.6171 26.7371 43.848ZM73.7881 18.7052V47.5795C73.7881 47.8115 73.5724 48.0001 73.3071 48.0001H66.4259C66.1606 48.0001 65.9463 47.8115 65.9463 47.5806V18.7063C65.9463 18.4743 66.1606 18.2858 66.4259 18.2858H73.3071C73.5724 18.2858 73.7881 18.4743 73.7881 18.7052ZM52.8765 6.85714H50.7422C49.034 6.85714 47.6486 8.06858 47.6486 9.5634C47.6486 13.3874 47.6486 23.184 47.6486 27.008C47.6486 28.5029 49.034 29.7143 50.7422 29.7143H52.8765V44.5714C52.8765 45.2022 53.462 45.7142 54.1836 45.7142C54.905 45.7142 55.4905 45.2022 55.4905 44.5714V29.7143H57.6235C59.333 29.7143 60.7184 28.5029 60.7184 27.008C60.7184 23.184 60.7184 13.3874 60.7184 9.5634C60.7184 8.06858 59.333 6.85714 57.6235 6.85714H55.4905V1.14285C55.4905 0.511998 54.905 0 54.1836 0C53.462 0 52.8765 0.511998 52.8765 1.14285V6.85714ZM42.4207 24.992C42.4207 28.5406 42.4207 37.1737 42.4207 40.7223C42.4207 40.9543 42.2051 41.1428 41.9398 41.1428H35.0586C34.7933 41.1428 34.5789 40.9543 34.5789 40.7223C34.5789 37.1737 34.5789 28.5406 34.5789 24.992C34.5789 24.76 34.7933 24.5715 35.0586 24.5715H41.9398C42.2051 24.5715 42.4207 24.76 42.4207 24.992ZM58.1045 9.5634C58.1045 13.3874 58.1045 23.184 58.1045 27.008C58.1045 27.24 57.8888 27.4286 57.6235 27.4286H50.7422C50.4769 27.4286 50.2625 27.24 50.2625 27.008C50.2625 23.184 50.2625 13.3874 50.2625 9.5634C50.2625 9.3314 50.4769 9.14283 50.7422 9.14283H57.6235C57.8888 9.14283 58.1045 9.3314 58.1045 9.5634Z" fill="#F8FFF7"/>
</svg>
