<svg width="1494" height="446" viewBox="0 0 1494 446" fill="none" xmlns="http://www.w3.org/2000/svg">
<path d="M24.8848 112.061H114.979C138.471 112.061 156.635 116.178 169.471 124.412C186.545 135.189 195.082 152.021 195.082 174.908C195.082 195.857 185.939 213.234 167.654 227.039C194.174 238.543 207.434 259.129 207.434 288.797C207.434 314.105 197.867 333.42 178.734 346.74C168.199 354.006 156.332 358.184 143.133 359.273C137.684 359.758 131.387 360 124.242 360H110.256V296.244H122.789C128.844 296.244 133.143 295.76 135.686 294.791C140.529 293.217 142.951 289.463 142.951 283.529C142.951 278.322 140.953 274.932 136.957 273.357C134.051 272.146 129.873 271.541 124.424 271.541H110.256V205.424C116.189 205.303 120.549 204.637 123.334 203.426C128.178 201.246 130.6 197.25 130.6 191.438C130.6 185.02 127.693 181.023 121.881 179.449C119.822 178.844 116.613 178.541 112.254 178.541H98.6309V360H24.8848V112.061ZM311.15 112.061V360H237.404V112.061H311.15Z" fill="white"/>
<path d="M697.631 178.723V360H623.885V112.061H718.52C747.34 112.061 769.682 119.205 785.545 133.494C794.506 141.607 801.348 151.598 806.07 163.465C810.066 173.758 812.064 184.051 812.064 194.344C812.064 219.41 801.105 240.541 779.188 257.736L821.691 360H744.312L708.529 280.078V216.322H714.342C722.092 216.322 727.783 214.688 731.416 211.418C735.533 207.664 737.592 202.699 737.592 196.523C737.592 189.5 734.686 184.475 728.873 181.447C725.361 179.631 719.307 178.723 710.709 178.723H697.631ZM936.488 235.576V300.967H915.236V360H841.49V202.336C841.49 178.117 846.516 158.5 856.566 143.484C865.164 130.527 876.729 120.961 891.26 114.785C905.428 108.852 920.564 105.885 936.67 105.885C952.17 105.885 966.096 108.549 978.447 113.877C990.92 119.084 1000.49 126.41 1007.15 135.855C1017.08 149.902 1022.04 171.215 1022.04 199.793V360H948.295V204.697C948.295 195.857 947.447 189.742 945.752 186.352C943.33 181.387 938.91 178.904 932.492 178.904C925.711 178.904 920.928 181.508 918.143 186.715C916.205 190.227 915.236 196.221 915.236 204.697V235.576H936.488ZM1140.47 183.264V360H1066.72V112.061H1162.81C1198.54 112.061 1227.66 118.902 1250.18 132.586C1270.65 145.059 1285.66 162.738 1295.23 185.625C1301.28 200.277 1304.31 216.383 1304.31 233.941C1304.31 266.758 1294.32 294.973 1274.34 318.586C1250.24 347.164 1217.06 361.453 1174.8 361.453C1169.96 361.453 1162.51 361.211 1152.46 360.727V287.889H1164.27C1185.34 287.889 1200.84 284.014 1210.77 276.264C1216.34 271.904 1220.7 265.971 1223.84 258.463C1227.11 250.834 1228.75 242.66 1228.75 233.941C1228.75 216.988 1223.3 204.092 1212.4 195.252C1202.59 187.26 1186.91 183.264 1165.36 183.264H1140.47ZM1471.6 208.512V263.73H1423.47C1417.9 263.73 1414.51 263.973 1413.29 264.457C1408.09 266.637 1405.48 270.693 1405.48 276.627C1405.48 281.471 1407.24 284.982 1410.75 287.162C1412.69 288.373 1414.69 289.039 1416.75 289.16C1417.96 289.16 1421.29 289.16 1426.74 289.16H1476.32V360H1418.38C1401.67 359.879 1388.83 358.123 1379.87 354.732C1349.36 342.381 1334.16 318.828 1334.28 284.074V186.896C1334.28 162.557 1341.85 143.545 1356.99 129.861C1370.19 118.115 1388.59 112.182 1412.21 112.061H1476.32V183.264H1429.28C1422.13 183.264 1417.23 184.232 1414.57 186.17C1411.66 188.35 1410.21 191.498 1410.21 195.615C1410.21 200.58 1411.9 204.092 1415.29 206.15C1417.84 207.725 1423.04 208.512 1430.91 208.512H1471.6Z" fill="white"/>
<rect x="327" y="112" width="277.91" height="33.7041" fill="#009546"/>
<rect x="418.547" y="332.708" width="130.468" height="30.5156" transform="rotate(-90 418.547 332.708)" fill="#009546"/>
<rect x="483.937" y="359.888" width="157.648" height="30.5156" transform="rotate(-90 483.937 359.888)" fill="#009546"/>
<rect x="327" y="158.751" width="92.6365" height="35.8786" fill="#009546"/>
<path d="M419.637 158.752L466.5 158.752L423.996 202.241L419.637 158.752Z" fill="#009546"/>
<path d="M418.547 158.751H420.726V169.08L421.816 179.952L423.996 202.241H418.547V158.751Z" fill="#009546"/>
<rect width="92.6365" height="35.8763" transform="matrix(-1 0 0 1 606 158.797)" fill="#009546"/>
<path d="M513.363 158.795L466.5 158.795L509.004 202.282L513.363 158.795Z" fill="#009546"/>
<path d="M514.453 158.797H512.274V169.125L511.184 179.996L509.004 202.283H514.453V158.797Z" fill="#009546"/>
</svg>
