<svg width="36" height="35" viewBox="0 0 36 35" fill="none" xmlns="http://www.w3.org/2000/svg">
<mask id="mask0_8_20" style="mask-type:alpha" maskUnits="userSpaceOnUse" x="0" y="0" width="36" height="35">
<rect x="0.976562" width="35" height="35" fill="#D9D9D9"/>
</mask>
<g mask="url(#mask0_8_20)">
<path d="M13.5181 32.8125L10.7473 28.1458L5.49731 26.9792L6.00773 21.5833L2.43481 17.5L6.00773 13.4167L5.49731 8.02083L10.7473 6.85417L13.5181 2.1875L18.4765 4.30208L23.4348 2.1875L26.2056 6.85417L31.4556 8.02083L30.9452 13.4167L34.5181 17.5L30.9452 21.5833L31.4556 26.9792L26.2056 28.1458L23.4348 32.8125L18.4765 30.6979L13.5181 32.8125ZM14.7577 29.0938L18.4765 27.4896L22.2681 29.0938L24.3098 25.5938L28.3202 24.6458L27.9556 20.5625L30.6536 17.5L27.9556 14.3646L28.3202 10.2813L24.3098 9.40625L22.1952 5.90625L18.4765 7.51042L14.6848 5.90625L12.6431 9.40625L8.63273 10.2813L8.99731 14.3646L6.2994 17.5L8.99731 20.5625L8.63273 24.7188L12.6431 25.5938L14.7577 29.0938ZM16.9452 22.6771L25.1848 14.4375L23.1431 12.3229L16.9452 18.5208L13.8098 15.4583L11.7681 17.5L16.9452 22.6771Z" fill="black"/>
</g>
</svg>
