<svg width="35" height="36" viewBox="0 0 35 36" fill="none" xmlns="http://www.w3.org/2000/svg">
<mask id="mask0_8_14" style="mask-type:alpha" maskUnits="userSpaceOnUse" x="0" y="0" width="35" height="36">
<rect width="34.6988" height="35.0685" fill="#D9D9D9"/>
</mask>
<g mask="url(#mask0_8_14)">
<path d="M7.22848 30.6851C6.4333 30.6851 5.75258 30.399 5.18631 29.8267C4.62005 29.2544 4.33691 28.5664 4.33691 27.7627V7.30613C4.33691 6.50248 4.62005 5.8145 5.18631 5.2422C5.75258 4.6699 6.4333 4.38375 7.22848 4.38375H13.3008C13.6381 3.50704 14.1682 2.8008 14.8911 2.26503C15.614 1.72926 16.4333 1.46138 17.349 1.46138C18.2646 1.46138 19.0839 1.72926 19.8068 2.26503C20.5297 2.8008 21.0598 3.50704 21.3972 4.38375H27.4694C28.2646 4.38375 28.9453 4.6699 29.5116 5.2422C30.0779 5.8145 30.361 6.50248 30.361 7.30613V27.7627C30.361 28.5664 30.0779 29.2544 29.5116 29.8267C28.9453 30.399 28.2646 30.6851 27.4694 30.6851H7.22848ZM17.349 6.21024C17.6622 6.21024 17.9213 6.10674 18.1261 5.89974C18.3309 5.69273 18.4333 5.43094 18.4333 5.11435C18.4333 4.79776 18.3309 4.53596 18.1261 4.32896C17.9213 4.12196 17.6622 4.01846 17.349 4.01846C17.0357 4.01846 16.7767 4.12196 16.5719 4.32896C16.367 4.53596 16.2646 4.79776 16.2646 5.11435C16.2646 5.43094 16.367 5.69273 16.5719 5.89974C16.7767 6.10674 17.0357 6.21024 17.349 6.21024ZM7.22848 26.0824C8.52969 24.7917 10.0417 23.7749 11.7646 23.0322C13.4875 22.2894 15.349 21.918 17.349 21.918C19.349 21.918 21.2104 22.2894 22.9333 23.0322C24.6562 23.7749 26.1682 24.7917 27.4694 26.0824V7.30613H7.22848V26.0824ZM17.349 18.9956C18.7466 18.9956 19.9393 18.4964 20.9273 17.4979C21.9152 16.4994 22.4092 15.294 22.4092 13.8815C22.4092 12.469 21.9152 11.2635 20.9273 10.265C19.9393 9.26655 18.7466 8.76732 17.349 8.76732C15.9514 8.76732 14.7586 9.26655 13.7706 10.265C12.7827 11.2635 12.2887 12.469 12.2887 13.8815C12.2887 15.294 12.7827 16.4994 13.7706 17.4979C14.7586 18.4964 15.9514 18.9956 17.349 18.9956ZM10.12 27.7627H24.5779V27.3975C23.5658 26.5451 22.4453 25.9058 21.2164 25.4796C19.9875 25.0535 18.6984 24.8404 17.349 24.8404C15.9996 24.8404 14.7104 25.0535 13.4815 25.4796C12.2526 25.9058 11.1321 26.5451 10.12 27.3975V27.7627ZM17.349 16.0733C16.7466 16.0733 16.2345 15.8602 15.8128 15.434C15.3911 15.0078 15.1803 14.4903 15.1803 13.8815C15.1803 13.2726 15.3911 12.7551 15.8128 12.329C16.2345 11.9028 16.7466 11.6897 17.349 11.6897C17.9514 11.6897 18.4634 11.9028 18.8851 12.329C19.3068 12.7551 19.5176 13.2726 19.5176 13.8815C19.5176 14.4903 19.3068 15.0078 18.8851 15.434C18.4634 15.8602 17.9514 16.0733 17.349 16.0733Z" fill="black"/>
</g>
</svg>
