<svg width="35" height="36" viewBox="0 0 35 36" fill="none" xmlns="http://www.w3.org/2000/svg">
<mask id="mask0_8_5" style="mask-type:alpha" maskUnits="userSpaceOnUse" x="0" y="0" width="35" height="36">
<rect x="0.0234375" width="34.6988" height="35.0685" fill="#D9D9D9"/>
</mask>
<g mask="url(#mask0_8_5)">
<path d="M7.25192 30.6851C6.45674 30.6851 5.77601 30.399 5.20975 29.8267C4.64348 29.2544 4.36035 28.5664 4.36035 27.7628V7.30613C4.36035 6.50248 4.64348 5.8145 5.20975 5.24221C5.77601 4.66991 6.45674 4.38376 7.25192 4.38376H13.3242C13.6616 3.50705 14.1917 2.80081 14.9146 2.26504C15.6375 1.72927 16.4567 1.46138 17.3724 1.46138C18.2881 1.46138 19.1073 1.72927 19.8302 2.26504C20.5531 2.80081 21.0832 3.50705 21.4206 4.38376H27.4929C28.2881 4.38376 28.9688 4.66991 29.5351 5.24221C30.1013 5.8145 30.3844 6.50248 30.3844 7.30613V27.7628C30.3844 28.5664 30.1013 29.2544 29.5351 29.8267C28.9688 30.399 28.2881 30.6851 27.4929 30.6851H7.25192ZM17.3724 6.21024C17.6857 6.21024 17.9447 6.10674 18.1495 5.89974C18.3543 5.69274 18.4567 5.43094 18.4567 5.11435C18.4567 4.79776 18.3543 4.53596 18.1495 4.32896C17.9447 4.12196 17.6857 4.01846 17.3724 4.01846C17.0591 4.01846 16.8001 4.12196 16.5953 4.32896C16.3905 4.53596 16.2881 4.79776 16.2881 5.11435C16.2881 5.43094 16.3905 5.69274 16.5953 5.89974C16.8001 6.10674 17.0591 6.21024 17.3724 6.21024ZM7.25192 26.0824C8.55312 24.7917 10.0652 23.7749 11.7881 23.0322C13.511 22.2894 15.3724 21.918 17.3724 21.918C19.3724 21.918 21.2338 22.2894 22.9567 23.0322C24.6796 23.7749 26.1917 24.7917 27.4929 26.0824V7.30613H7.25192V26.0824ZM17.3724 18.9956C18.77 18.9956 19.9628 18.4964 20.9507 17.4979C21.9387 16.4994 22.4326 15.294 22.4326 13.8815C22.4326 12.469 21.9387 11.2635 20.9507 10.265C19.9628 9.26656 18.77 8.76732 17.3724 8.76732C15.9748 8.76732 14.782 9.26656 13.7941 10.265C12.8061 11.2635 12.3122 12.469 12.3122 13.8815C12.3122 15.294 12.8061 16.4994 13.7941 17.4979C14.782 18.4964 15.9748 18.9956 17.3724 18.9956ZM10.1435 27.7628H24.6013V27.3975C23.5893 26.5451 22.4688 25.9058 21.2399 25.4796C20.011 25.0535 18.7218 24.8404 17.3724 24.8404C16.023 24.8404 14.7338 25.0535 13.5049 25.4796C12.276 25.9058 11.1555 26.5451 10.1435 27.3975V27.7628ZM17.3724 16.0733C16.77 16.0733 16.2579 15.8602 15.8363 15.434C15.4146 15.0078 15.2037 14.4903 15.2037 13.8815C15.2037 13.2726 15.4146 12.7551 15.8363 12.329C16.2579 11.9028 16.77 11.6897 17.3724 11.6897C17.9748 11.6897 18.4869 11.9028 18.9085 12.329C19.3302 12.7551 19.5411 13.2726 19.5411 13.8815C19.5411 14.4903 19.3302 15.0078 18.9085 15.434C18.4869 15.8602 17.9748 16.0733 17.3724 16.0733Z" fill="#B9B6B6"/>
</g>
</svg>
