<svg width="35" height="35" viewBox="0 0 35 35" fill="none" xmlns="http://www.w3.org/2000/svg">
<mask id="mask0_8_11" style="mask-type:alpha" maskUnits="userSpaceOnUse" x="0" y="0" width="35" height="35">
<rect width="35" height="35" fill="#D9D9D9"/>
</mask>
<g mask="url(#mask0_8_11)">
<path d="M12.5416 32.8125L9.77075 28.1458L4.52075 26.9792L5.03117 21.5833L1.45825 17.5L5.03117 13.4167L4.52075 8.02083L9.77075 6.85417L12.5416 2.1875L17.4999 4.30208L22.4583 2.1875L25.2291 6.85417L30.4791 8.02083L29.9687 13.4167L33.5416 17.5L29.9687 21.5833L30.4791 26.9792L25.2291 28.1458L22.4583 32.8125L17.4999 30.6979L12.5416 32.8125ZM13.7812 29.0938L17.4999 27.4896L21.2916 29.0938L23.3333 25.5938L27.3437 24.6458L26.9791 20.5625L29.677 17.5L26.9791 14.3646L27.3437 10.2813L23.3333 9.40625L21.2187 5.90625L17.4999 7.51042L13.7083 5.90625L11.6666 9.40625L7.65617 10.2813L8.02075 14.3646L5.32284 17.5L8.02075 20.5625L7.65617 24.7188L11.6666 25.5938L13.7812 29.0938ZM15.9687 22.6771L24.2083 14.4375L22.1666 12.3229L15.9687 18.5208L12.8333 15.4583L10.7916 17.5L15.9687 22.6771Z" fill="#B9B6B6"/>
</g>
</svg>
