<svg width="27" height="30" viewBox="0 0 27 30" fill="none" xmlns="http://www.w3.org/2000/svg">
<path d="M3.25192 29.6851C2.45674 29.6851 1.77601 29.399 1.20975 28.8267C0.643484 28.2544 0.360352 27.5664 0.360352 26.7628V6.30613C0.360352 5.50248 0.643484 4.8145 1.20975 4.24221C1.77601 3.66991 2.45674 3.38376 3.25192 3.38376H9.32421C9.66156 2.50705 10.1917 1.80081 10.9146 1.26504C11.6375 0.729268 12.4567 0.461384 13.3724 0.461384C14.2881 0.461384 15.1073 0.729268 15.8302 1.26504C16.5531 1.80081 17.0832 2.50705 17.4206 3.38376H23.4929C24.2881 3.38376 24.9688 3.66991 25.5351 4.24221C26.1013 4.8145 26.3844 5.50248 26.3844 6.30613V26.7628C26.3844 27.5664 26.1013 28.2544 25.5351 28.8267C24.9688 29.399 24.2881 29.6851 23.4929 29.6851H3.25192ZM13.3724 5.21024C13.6857 5.21024 13.9447 5.10674 14.1495 4.89974C14.3543 4.69274 14.4567 4.43094 14.4567 4.11435C14.4567 3.79776 14.3543 3.53596 14.1495 3.32896C13.9447 3.12196 13.6857 3.01846 13.3724 3.01846C13.0591 3.01846 12.8001 3.12196 12.5953 3.32896C12.3905 3.53596 12.2881 3.79776 12.2881 4.11435C12.2881 4.43094 12.3905 4.69274 12.5953 4.89974C12.8001 5.10674 13.0591 5.21024 13.3724 5.21024ZM3.25192 25.0824C4.55312 23.7917 6.06517 22.7749 7.78806 22.0322C9.51095 21.2894 11.3724 20.918 13.3724 20.918C15.3724 20.918 17.2338 21.2894 18.9567 22.0322C20.6796 22.7749 22.1917 23.7917 23.4929 25.0824V6.30613H3.25192V25.0824ZM13.3724 17.9956C14.77 17.9956 15.9628 17.4964 16.9507 16.4979C17.9387 15.4994 18.4326 14.294 18.4326 12.8815C18.4326 11.469 17.9387 10.2635 16.9507 9.26504C15.9628 8.26656 14.77 7.76732 13.3724 7.76732C11.9748 7.76732 10.782 8.26656 9.79409 9.26504C8.80614 10.2635 8.31216 11.469 8.31216 12.8815C8.31216 14.294 8.80614 15.4994 9.79409 16.4979C10.782 17.4964 11.9748 17.9956 13.3724 17.9956ZM6.14348 26.7628H20.6013V26.3975C19.5893 25.5451 18.4688 24.9058 17.2399 24.4796C16.011 24.0535 14.7218 23.8404 13.3724 23.8404C12.023 23.8404 10.7338 24.0535 9.50493 24.4796C8.27601 24.9058 7.15553 25.5451 6.14348 26.3975V26.7628ZM13.3724 15.0733C12.77 15.0733 12.2579 14.8602 11.8363 14.434C11.4146 14.0078 11.2037 13.4903 11.2037 12.8815C11.2037 12.2726 11.4146 11.7551 11.8363 11.329C12.2579 10.9028 12.77 10.6897 13.3724 10.6897C13.9748 10.6897 14.4869 10.9028 14.9085 11.329C15.3302 11.7551 15.5411 12.2726 15.5411 12.8815C15.5411 13.4903 15.3302 14.0078 14.9085 14.434C14.4869 14.8602 13.9748 15.0733 13.3724 15.0733Z" fill="black"/>
</svg>
