<svg width="25" height="31" viewBox="0 0 25 31" fill="none" xmlns="http://www.w3.org/2000/svg">
<path d="M10.3124 19.875H14.6874L13.8489 15.1719C14.335 14.9288 14.7178 14.5764 14.9973 14.1146C15.2768 13.6528 15.4166 13.1424 15.4166 12.5833C15.4166 11.7813 15.131 11.0946 14.5598 10.5234C13.9886 9.95226 13.302 9.66667 12.4999 9.66667C11.6978 9.66667 11.0112 9.95226 10.44 10.5234C9.86884 11.0946 9.58325 11.7813 9.58325 12.5833C9.58325 13.1424 9.72301 13.6528 10.0025 14.1146C10.282 14.5764 10.6649 14.9288 11.151 15.1719L10.3124 19.875ZM12.4999 30.0833C9.12145 29.2326 6.33238 27.2943 4.13273 24.2682C1.93308 21.2422 0.833252 17.882 0.833252 14.1875V5.29167L12.4999 0.916672L24.1666 5.29167V14.1875C24.1666 17.882 23.0668 21.2422 20.8671 24.2682C18.6675 27.2943 15.8784 29.2326 12.4999 30.0833ZM12.4999 27.0208C15.0277 26.2188 17.118 24.6146 18.7708 22.2083C20.4235 19.8021 21.2499 17.1285 21.2499 14.1875V7.29688L12.4999 4.01563L3.74992 7.29688V14.1875C3.74992 17.1285 4.57631 19.8021 6.22909 22.2083C7.88186 24.6146 9.97214 26.2188 12.4999 27.0208Z" fill="black"/>
</svg>
