<svg width="35" height="35" viewBox="0 0 35 35" fill="none" xmlns="http://www.w3.org/2000/svg">
<mask id="mask0_8_8" style="mask-type:alpha" maskUnits="userSpaceOnUse" x="0" y="0" width="35" height="35">
<rect width="35" height="35" fill="#D9D9D9"/>
</mask>
<g mask="url(#mask0_8_8)">
<path d="M15.3124 21.875H19.6874L18.8489 17.1719C19.335 16.9288 19.7178 16.5764 19.9973 16.1146C20.2768 15.6528 20.4166 15.1424 20.4166 14.5833C20.4166 13.7813 20.131 13.0946 19.5598 12.5234C18.9886 11.9523 18.302 11.6667 17.4999 11.6667C16.6978 11.6667 16.0112 11.9523 15.44 12.5234C14.8688 13.0946 14.5833 13.7813 14.5833 14.5833C14.5833 15.1424 14.723 15.6528 15.0025 16.1146C15.282 16.5764 15.6649 16.9288 16.151 17.1719L15.3124 21.875ZM17.4999 32.0833C14.1214 31.2326 11.3324 29.2943 9.13273 26.2682C6.93308 23.2422 5.83325 19.8819 5.83325 16.1875V7.29167L17.4999 2.91667L29.1666 7.29167V16.1875C29.1666 19.8819 28.0668 23.2422 25.8671 26.2682C23.6675 29.2943 20.8784 31.2326 17.4999 32.0833ZM17.4999 29.0208C20.0277 28.2188 22.118 26.6146 23.7708 24.2083C25.4235 21.8021 26.2499 19.1285 26.2499 16.1875V9.29688L17.4999 6.01563L8.74992 9.29688V16.1875C8.74992 19.1285 9.57631 21.8021 11.2291 24.2083C12.8819 26.6146 14.9721 28.2188 17.4999 29.0208Z" fill="#B9B6B6"/>
</g>
</svg>
