<svg width="36" height="35" viewBox="0 0 36 35" fill="none" xmlns="http://www.w3.org/2000/svg">
<mask id="mask0_8_17" style="mask-type:alpha" maskUnits="userSpaceOnUse" x="0" y="0" width="36" height="35">
<rect x="0.976562" width="35" height="35" fill="#D9D9D9"/>
</mask>
<g mask="url(#mask0_8_17)">
<path d="M16.289 21.875H20.664L19.8254 17.1719C20.3116 16.9288 20.6944 16.5764 20.9739 16.1146C21.2534 15.6528 21.3931 15.1424 21.3931 14.5833C21.3931 13.7812 21.1076 13.0946 20.5364 12.5234C19.9652 11.9523 19.2786 11.6667 18.4765 11.6667C17.6744 11.6667 16.9878 11.9523 16.4166 12.5234C15.8454 13.0946 15.5598 13.7812 15.5598 14.5833C15.5598 15.1424 15.6996 15.6528 15.9791 16.1146C16.2586 16.5764 16.6414 16.9288 17.1275 17.1719L16.289 21.875ZM18.4765 32.0833C15.098 31.2326 12.3089 29.2943 10.1093 26.2682C7.90964 23.2422 6.80981 19.8819 6.80981 16.1875V7.29166L18.4765 2.91666L30.1431 7.29166V16.1875C30.1431 19.8819 29.0433 23.2422 26.8437 26.2682C24.644 29.2943 21.855 31.2326 18.4765 32.0833ZM18.4765 29.0208C21.0043 28.2187 23.0945 26.6146 24.7473 24.2083C26.4001 21.8021 27.2265 19.1285 27.2265 16.1875V9.29687L18.4765 6.01562L9.72648 9.29687V16.1875C9.72648 19.1285 10.5529 21.8021 12.2056 24.2083C13.8584 26.6146 15.9487 28.2187 18.4765 29.0208Z" fill="black"/>
</g>
</svg>
