<svg width="52" height="56" viewBox="0 0 52 56" fill="none" xmlns="http://www.w3.org/2000/svg">
<path fill-rule="evenodd" clip-rule="evenodd" d="M19.9997 36V10.9999C19.9997 10.4479 19.5517 9.99991 18.9997 9.99991H6.99974C6.44774 9.99991 5.99974 10.4479 5.99974 10.9999V36H0.99973C0.63072 36 0.29272 36.203 0.11772 36.528C-0.0562799 36.853 -0.0362797 37.248 0.16772 37.555L12.1677 55.5551C12.3537 55.8331 12.6657 56.0001 12.9997 56.0001C13.3347 56.0001 13.6467 55.8331 13.8317 55.5551L25.8318 37.555C26.0368 37.248 26.0558 36.853 25.8818 36.528C25.7078 36.203 25.3688 36 24.9998 36H19.9997ZM17.9997 37C17.9997 37.552 18.4477 38 18.9997 38H23.1318L12.9997 53.1971L2.86873 38H6.99974C7.55174 38 7.99974 37.552 7.99974 37V11.9999H17.9997V37ZM31.9998 20V45.0001C31.9998 45.5521 32.4478 46.0001 32.9998 46.0001H44.9998C45.5518 46.0001 45.9998 45.5521 45.9998 45.0001V20H50.9999C51.3689 20 51.7079 19.797 51.8819 19.472C52.0559 19.147 52.0369 18.752 51.8319 18.445L39.8318 0.444908C39.6468 0.166908 39.3348 -9.15527e-05 38.9998 -9.15527e-05C38.6658 -9.15527e-05 38.3538 0.166908 38.1678 0.444908L26.1678 18.445C25.9638 18.752 25.9438 19.147 26.1178 19.472C26.2928 19.797 26.6308 20 26.9998 20H31.9998ZM33.9998 19C33.9998 18.448 33.5518 18 32.9998 18H28.8688L38.9998 2.80292L49.1319 18H44.9998C44.4478 18 43.9998 18.448 43.9998 19V44.0001H33.9998V19Z" fill="url(#paint0_linear_1_3050)"/>
<defs>
<linearGradient id="paint0_linear_1_3050" x1="0.802852" y1="29.5273" x2="52.0062" y2="29.2897" gradientUnits="userSpaceOnUse">
<stop stop-color="#648C5A"/>
<stop offset="0.20048" stop-color="#507D46"/>
<stop offset="0.349756" stop-color="#3D6F31"/>
<stop offset="0.490866" stop-color="#3D6F31"/>
<stop offset="0.675062" stop-color="#235517"/>
<stop offset="0.84362" stop-color="#0A3C00"/>
<stop offset="1" stop-color="#002200"/>
</linearGradient>
</defs>
</svg>
