<svg width="29" height="28" viewBox="0 0 29 28" fill="none" xmlns="http://www.w3.org/2000/svg">
<path d="M14.3341 8.44623C16.1299 8.44623 16.3426 8.45301 17.0521 8.48559C17.4786 8.49084 17.9011 8.56973 18.3012 8.71881C18.5913 8.8315 18.8548 9.00413 19.0747 9.22559C19.2946 9.44704 19.466 9.71241 19.5779 10.0046C19.7259 10.4076 19.8042 10.8331 19.8095 11.2627C19.8415 11.9772 19.8485 12.1914 19.8485 14.0001C19.8485 15.8088 19.8418 16.023 19.8095 16.7375C19.8042 17.1671 19.7259 17.5926 19.5779 17.9956C19.466 18.2878 19.2946 18.5532 19.0747 18.7746C18.8548 18.9961 18.5913 19.1687 18.3012 19.2814C17.9011 19.4305 17.4786 19.5094 17.0521 19.5146C16.3429 19.5469 16.1303 19.554 14.3341 19.554C12.5379 19.554 12.3252 19.5472 11.6161 19.5146C11.1895 19.5094 10.767 19.4305 10.3669 19.2814C10.0768 19.1687 9.81329 18.9961 9.59341 18.7746C9.37352 18.5532 9.20212 18.2878 9.09023 17.9956C8.9422 17.5926 8.86387 17.1671 8.85865 16.7375C8.82662 16.023 8.81958 15.8088 8.81958 14.0001C8.81958 12.1914 8.8263 11.9772 8.85865 11.2627C8.86387 10.8331 8.9422 10.4076 9.09023 10.0046C9.20212 9.71241 9.37352 9.44704 9.59341 9.22559C9.81329 9.00413 10.0768 8.8315 10.3669 8.71881C10.767 8.56973 11.1895 8.49084 11.6161 8.48559C12.3255 8.45333 12.5382 8.44623 14.3341 8.44623ZM14.3341 7.22559C12.5084 7.22559 12.2784 7.23333 11.561 7.26623C11.0027 7.27741 10.4504 7.38387 9.92747 7.58107C9.4789 7.75128 9.07261 8.01803 8.73694 8.36268C8.39442 8.70087 8.12934 9.11029 7.96023 9.56236C7.76443 10.089 7.65873 10.6453 7.64763 11.2075C7.6156 11.9295 7.60791 12.1611 7.60791 13.9998C7.60791 15.8385 7.6156 16.0701 7.64827 16.7927C7.65937 17.3549 7.76507 17.9112 7.96087 18.4378C8.1298 18.8898 8.39465 19.2993 8.73694 19.6375C9.07279 19.9823 9.47931 20.249 9.92811 20.4191C10.451 20.6163 11.0034 20.7228 11.5616 20.734C12.2791 20.7662 12.5081 20.7746 14.3347 20.7746C16.1613 20.7746 16.3903 20.7669 17.1078 20.734C17.6661 20.7228 18.2184 20.6163 18.7413 20.4191C19.188 20.2448 19.5936 19.9784 19.9322 19.6371C20.2709 19.2959 20.535 18.8872 20.7079 18.4372C20.9037 17.9106 21.0094 17.3543 21.0205 16.792C21.0525 16.0701 21.0602 15.8385 21.0602 13.9998C21.0602 12.1611 21.0525 11.9295 21.0199 11.2069C21.0087 10.6446 20.903 10.0884 20.7072 9.56171C20.5383 9.10971 20.2735 8.70029 19.9312 8.36204C19.5953 8.0173 19.1888 7.75056 18.74 7.58042C18.2171 7.38322 17.6648 7.27677 17.1065 7.26559C16.3897 7.23333 16.1597 7.22559 14.3341 7.22559Z" fill="white"/>
<path d="M14.3354 10.5215C13.6522 10.5215 12.9844 10.7255 12.4164 11.1078C11.8484 11.49 11.4057 12.0333 11.1443 12.6689C10.8828 13.3046 10.8144 14.0041 10.9477 14.6789C11.081 15.3537 11.41 15.9735 11.893 16.46C12.3761 16.9465 12.9915 17.2778 13.6615 17.4121C14.3316 17.5463 15.026 17.4774 15.6572 17.2141C16.2883 16.9508 16.8278 16.5049 17.2073 15.9329C17.5868 15.3608 17.7894 14.6882 17.7894 14.0002C17.7894 13.0776 17.4255 12.1928 16.7778 11.5404C16.13 10.888 15.2515 10.5215 14.3354 10.5215ZM14.3354 16.2583C13.892 16.2583 13.4585 16.1258 13.0898 15.8777C12.7211 15.6296 12.4337 15.2769 12.264 14.8643C12.0943 14.4517 12.0499 13.9977 12.1364 13.5597C12.2229 13.1216 12.4365 12.7193 12.75 12.4035C13.0636 12.0877 13.4631 11.8726 13.898 11.7855C14.3329 11.6984 14.7837 11.7431 15.1934 11.914C15.6031 12.0849 15.9532 12.3743 16.1996 12.7457C16.4459 13.117 16.5774 13.5536 16.5774 14.0002C16.5774 14.5991 16.3412 15.1734 15.9208 15.5969C15.5003 16.0204 14.93 16.2583 14.3354 16.2583Z" fill="white"/>
<path d="M17.9253 11.1961C18.3711 11.1961 18.7324 10.8322 18.7324 10.3832C18.7324 9.93426 18.3711 9.57031 17.9253 9.57031C17.4795 9.57031 17.1182 9.93426 17.1182 10.3832C17.1182 10.8322 17.4795 11.1961 17.9253 11.1961Z" fill="white"/>
</svg>
