<svg width="23" height="23" viewBox="0 0 23 23" fill="none" xmlns="http://www.w3.org/2000/svg">
<mask id="mask0_2001_59" style="mask-type:alpha" maskUnits="userSpaceOnUse" x="0" y="0" width="23" height="23">
<circle cx="11.5" cy="11.5" r="11.5" fill="#D9D9D9"/>
<circle cx="11.5" cy="11.5" r="11.5" stroke="white"/>
</mask>
<g mask="url(#mask0_2001_59)">
<mask id="mask1_2001_59" style="mask-type:luminance" maskUnits="userSpaceOnUse" x="0" y="0" width="25" height="25">
<path d="M0 0.036377H24.3768V24.8818H0V0.036377Z" fill="white"/>
<path d="M0 0.036377H24.3768V24.8818H0V0.036377Z" stroke="white"/>
</mask>
<g mask="url(#mask1_2001_59)">
<path d="M-12.1884 0.036377H36.5661V24.8823H-12.1884V0.036377Z" fill="#000066"/>
<path d="M-12.1884 0.036377H36.5661V24.8823H-12.1884V0.036377Z" stroke="white"/>
<path d="M12.1888 9.68165L-6.73761 0.036526H-12.1884V2.81425L6.73806 12.4594M12.1888 9.68165L6.73806 12.4594M12.1888 9.68165L17.6395 12.4594M12.1888 9.68165L31.1154 0.036377H36.5661V2.8141L17.6395 12.4594M6.73806 12.4594L-12.1884 22.1046V24.8823H-6.73761L12.1887 15.2372M6.73806 12.4594L12.1887 15.2372M12.1887 15.2372L17.6395 12.4594M12.1887 15.2372L31.1154 24.8825H36.5661V22.1046L17.6395 12.4594" fill="white"/>
<path d="M12.1888 9.68165L-6.73761 0.036526H-12.1884V2.81425L6.73806 12.4594M12.1888 9.68165L6.73806 12.4594M12.1888 9.68165L17.6395 12.4594M12.1888 9.68165L31.1154 0.036377H36.5661V2.8141L17.6395 12.4594M6.73806 12.4594L-12.1884 22.1046V24.8823H-6.73761L12.1887 15.2372M6.73806 12.4594L12.1887 15.2372M12.1887 15.2372L17.6395 12.4594M12.1887 15.2372L31.1154 24.8825H36.5661V22.1046L17.6395 12.4594" stroke="white"/>
<path d="M8.12602 0.036377V8.31837H-12.1884V16.6004H8.12602V24.8823H16.2518V16.6004H36.5661V8.31837H16.2518V0.036377H8.12602Z" fill="white"/>
<path d="M8.12602 0.036377V8.31837H-12.1884V16.6004H8.12602V24.8823H16.2518V16.6004H36.5661V8.31837H16.2518V0.036377H8.12602Z" stroke="white"/>
<path d="M-12.1884 9.97476V14.944H9.75122V24.8823H14.6266V14.944H36.5661V9.97476H14.6266V0.036377H9.75122V9.97476H-12.1884ZM-12.1884 24.8823L4.06314 16.6004H7.69699L-8.55451 24.8823H-12.1884ZM-12.1884 0.036377L4.06314 8.31837H0.4293L-12.1884 1.88836V0.036377ZM16.6808 8.31837L32.9323 0.036377H36.5661L20.3146 8.31837H16.6808ZM36.5661 24.8823L20.3146 16.6004H23.9485L36.5661 23.0305V24.8823Z" fill="#CC0000"/>
<path d="M-12.1884 9.97476V14.944H9.75122V24.8823H14.6266V14.944H36.5661V9.97476H14.6266V0.036377H9.75122V9.97476H-12.1884ZM-12.1884 24.8823L4.06314 16.6004H7.69699L-8.55451 24.8823H-12.1884ZM-12.1884 0.036377L4.06314 8.31837H0.4293L-12.1884 1.88836V0.036377ZM16.6808 8.31837L32.9323 0.036377H36.5661L20.3146 8.31837H16.6808ZM36.5661 24.8823L20.3146 16.6004H23.9485L36.5661 23.0305V24.8823Z" stroke="white"/>
</g>
</g>
</svg>
