<svg width="57" height="76" viewBox="0 0 57 76" fill="none" xmlns="http://www.w3.org/2000/svg">
<path fill-rule="evenodd" clip-rule="evenodd" d="M16.8778 14.4867C16.8748 14.4857 16.8708 14.4857 16.8668 14.4857C14.5748 14.3587 12.1388 15.0907 10.1808 16.7347C8.22279 18.3777 7.07881 20.6487 6.80481 22.9277C6.80381 22.9317 6.8038 22.9357 6.8028 22.9397C6.6028 24.7987 5.62781 26.4877 4.11881 27.5907C4.11581 27.5927 4.1128 27.5947 4.1088 27.5977C2.2718 28.9737 0.876797 31.0997 0.432797 33.6177C-0.0112033 36.1357 0.572787 38.6107 1.82779 40.5327C1.82979 40.5357 1.83181 40.5387 1.83481 40.5427C2.87581 42.0957 3.21479 44.0147 2.76779 45.8307C2.7668 45.8347 2.7658 45.8387 2.7648 45.8417C2.2418 48.0767 2.53979 50.6027 3.81879 52.8167C5.09679 55.0307 7.13479 56.5517 9.33182 57.2167C9.33482 57.2187 9.33882 57.2197 9.34282 57.2207C11.1388 57.7407 12.6328 58.9937 13.4568 60.6717C13.4588 60.6757 13.4608 60.6787 13.4618 60.6827C14.4988 62.7307 16.3508 64.4737 18.7528 65.3477C21.1548 66.2227 23.6938 66.0777 25.8048 65.1757C25.8078 65.1737 25.8118 65.1717 25.8158 65.1707C27.5258 64.4147 29.4748 64.4147 31.1858 65.1697C31.1888 65.1717 31.1928 65.1727 31.1958 65.1747C33.3068 66.0777 35.8458 66.2227 38.2478 65.3477C40.6498 64.4737 42.5018 62.7307 43.5388 60.6827C43.5408 60.6797 43.5428 60.6757 43.5438 60.6717C44.3678 58.9937 45.8618 57.7407 47.6568 57.2197C47.6608 57.2187 47.6648 57.2177 47.6688 57.2167C49.8658 56.5517 51.9038 55.0307 53.1818 52.8167C54.4598 50.6027 54.7578 48.0777 54.2368 45.8417C54.2358 45.8377 54.2348 45.8337 54.2338 45.8297C53.7858 44.0147 54.1248 42.0947 55.1658 40.5417C55.1678 40.5387 55.1698 40.5357 55.1718 40.5317C56.4278 38.6107 57.0108 36.1357 56.5668 33.6177C56.1238 31.0997 54.7288 28.9737 52.8918 27.5967C52.8888 27.5947 52.8848 27.5927 52.8818 27.5897C51.3728 26.4867 50.3978 24.7987 50.1968 22.9397C50.1958 22.9357 50.1958 22.9317 50.1948 22.9277C49.9218 20.6487 48.7778 18.3777 46.8198 16.7347C44.8618 15.0917 42.4258 14.3587 40.1338 14.4847C40.1298 14.4847 40.1258 14.4857 40.1218 14.4857C38.2568 14.6107 36.4248 13.9447 35.0758 12.6497C35.0728 12.6467 35.0698 12.6447 35.0678 12.6417C33.3928 11.0717 31.0568 10.0667 28.4998 10.0667C25.9438 10.0667 23.6078 11.0717 21.9328 12.6407C21.9298 12.6437 21.9268 12.6467 21.9238 12.6497C20.5758 13.9447 18.7438 14.6117 16.8778 14.4867ZM16.7538 16.4827C19.1748 16.6417 21.5508 15.7767 23.3028 14.0977C24.6278 12.8567 26.4778 12.0667 28.4998 12.0667C30.5228 12.0667 32.3718 12.8567 33.6968 14.0987C35.4488 15.7767 37.8258 16.6417 40.2468 16.4817C42.0598 16.3827 43.9848 16.9667 45.5338 18.2667C47.0828 19.5667 47.9918 21.3607 48.2088 23.1637C48.4718 25.5757 49.7368 27.7657 51.6948 29.1987C53.1468 30.2887 54.2468 31.9737 54.5978 33.9647C54.9488 35.9567 54.4918 37.9157 53.4988 39.4357C52.1498 41.4527 51.7118 43.9437 52.2898 46.2997C52.7018 48.0687 52.4608 50.0657 51.4498 51.8167C50.4388 53.5677 48.8298 54.7747 47.0918 55.3017C44.7618 55.9797 42.8248 57.6057 41.7528 59.7817C40.9318 61.4017 39.4638 62.7767 37.5638 63.4687C35.6638 64.1607 33.6548 64.0507 31.9848 63.3367C29.7648 62.3587 27.2358 62.3587 25.0158 63.3377C23.3458 64.0507 21.3368 64.1607 19.4368 63.4687C17.5368 62.7767 16.0688 61.4017 15.2478 59.7817C14.1758 57.6057 12.2378 55.9797 9.90882 55.3027C8.17082 54.7747 6.56182 53.5677 5.55081 51.8167C4.53981 50.0657 4.2988 48.0687 4.7118 46.2997C5.2898 43.9437 4.8498 41.4527 3.5008 39.4367C2.5088 37.9157 2.0518 35.9567 2.4028 33.9647C2.7538 31.9737 3.85379 30.2887 5.30579 29.1997C7.26379 27.7657 8.52782 25.5757 8.79082 23.1637C9.00782 21.3607 9.91682 19.5667 11.4668 18.2667C13.0158 16.9667 14.9408 16.3827 16.7538 16.4827ZM28.2858 18.0667C17.2468 18.0667 8.28582 27.0287 8.28582 38.0667C8.28582 49.1047 17.2468 58.0667 28.2858 58.0667C39.3238 58.0667 48.2858 49.1047 48.2858 38.0667C48.2858 27.0287 39.3238 18.0667 28.2858 18.0667ZM28.2858 20.0667C38.2198 20.0667 46.2858 28.1327 46.2858 38.0667C46.2858 48.0007 38.2198 56.0667 28.2858 56.0667C18.3508 56.0667 10.2858 48.0007 10.2858 38.0667C10.2858 28.1327 18.3508 20.0667 28.2858 20.0667ZM26.4638 25.1617L23.2178 31.3617L16.3178 32.5337C15.5638 32.6617 14.9428 33.1977 14.7068 33.9257C14.4698 34.6527 14.6568 35.4517 15.1918 35.9987L20.0858 41.0017L19.0678 47.9257C18.9568 48.6827 19.2748 49.4387 19.8928 49.8887C20.5118 50.3377 21.3298 50.4067 22.0148 50.0667L28.2858 46.9597L34.5558 50.0667C35.2418 50.4067 36.0588 50.3377 36.6778 49.8887C37.2968 49.4387 37.6148 48.6827 37.5038 47.9257L36.4858 41.0017L41.3788 35.9987C41.9138 35.4517 42.1008 34.6527 41.8648 33.9257C41.6278 33.1977 41.0068 32.6617 40.2528 32.5337L33.3538 31.3617L30.1068 25.1617C29.7518 24.4847 29.0508 24.0597 28.2858 24.0597C27.5208 24.0597 26.8188 24.4847 26.4638 25.1617ZM24.7598 32.7287L28.2358 26.0897C28.2458 26.0717 28.2648 26.0597 28.2858 26.0597C28.3068 26.0597 28.3258 26.0717 28.3348 26.0897L31.8118 32.7287C31.9568 33.0057 32.2218 33.1987 32.5298 33.2507L39.9188 34.5057C39.9388 34.5087 39.9558 34.5237 39.9618 34.5437C39.9688 34.5637 39.9638 34.5847 39.9488 34.5997L34.7088 39.9577C34.4908 40.1807 34.3898 40.4937 34.4348 40.8027L35.5248 48.2167C35.5278 48.2377 35.5188 48.2577 35.5018 48.2707C35.4848 48.2827 35.4628 48.2847 35.4438 48.2747L28.7298 44.9477C28.4498 44.8087 28.1208 44.8087 27.8418 44.9477L21.1268 48.2747C21.1078 48.2847 21.0858 48.2827 21.0688 48.2707C21.0518 48.2577 21.0438 48.2377 21.0468 48.2167L22.1358 40.8027C22.1818 40.4937 22.0798 40.1807 21.8618 39.9577L16.6218 34.5997C16.6078 34.5847 16.6028 34.5637 16.6088 34.5437C16.6148 34.5237 16.6318 34.5087 16.6528 34.5057L24.0408 33.2507C24.3488 33.1987 24.6148 33.0057 24.7598 32.7287Z" fill="url(#paint0_linear_1_3035)"/>
<defs>
<linearGradient id="paint0_linear_1_3035" x1="1.15665" y1="39.5236" x2="56.7208" y2="39.2432" gradientUnits="userSpaceOnUse">
<stop stop-color="#648C5A"/>
<stop offset="0.20048" stop-color="#507D46"/>
<stop offset="0.349756" stop-color="#3D6F31"/>
<stop offset="0.490866" stop-color="#3D6F31"/>
<stop offset="0.675062" stop-color="#235517"/>
<stop offset="0.84362" stop-color="#0A3C00"/>
<stop offset="1" stop-color="#002200"/>
</linearGradient>
</defs>
</svg>
