<svg width="591" height="334" viewBox="0 0 591 334" fill="none" xmlns="http://www.w3.org/2000/svg">
<path d="M0 0.228516H590.987V333.203H0V0.228516Z" fill="#F6F6F6"/>
<path d="M59.7776 29.8848C59.458 25.3496 58.7867 20.473 59.3769 15.9553L59.4593 15.3756C59.9744 11.5863 61.6496 8.15875 64.5086 5.52589C68.4208 1.92277 73.8042 -0.192715 79.1537 0.013857C72.0484 2.04077 66.3419 3.87269 62.6558 10.6808C61.0863 13.58 60.8225 16.5155 60.7532 19.7187C60.7165 21.4229 60.9349 23.2601 60.1621 24.8C59.5056 26.1083 59.9309 28.4072 59.7776 29.8848Z" fill="#848689"/>
<path d="M492.798 0.0914951L504.346 0.00260747C511.435 0.00824126 517.141 -0.201459 522.707 4.9594C526.118 8.12246 528.481 12.4045 528.605 17.0971L528.024 28.2686L527.884 24.6088C526.507 23.0636 527.188 17.6793 526.792 15.5009C526.325 12.9272 525.425 10.7356 523.914 8.57567C520.763 4.06112 516.209 1.81575 510.892 0.698378C505.173 -0.50381 498.684 0.476158 492.798 0.0914951Z" fill="#4A4B49"/>
<path d="M11.9517 328.783C8.41955 326.68 6.86311 323.046 4.79509 319.697C3.18404 317.084 1.54425 314.564 0.196655 311.804L4.69322 311.776C6.59614 312.837 7.57491 314.89 8.57539 316.711C10.6421 320.477 12.1245 324.583 14.2209 328.273L192.461 328.658L360.274 328.927L484.777 328.962L569.672 328.671C571.572 328.718 574.303 328.477 576.033 329.212C572.304 331.779 566.811 332.837 562.321 332.952L517.18 332.99L434.81 333.002L197.677 332.711L75.8818 332.721L41.003 332.739C35.209 332.749 28.9053 333.3 23.1892 332.558L22.6274 332.48C18.5665 331.948 15.4769 330.783 11.9517 328.783Z" fill="#2E272D"/>
<path d="M59.643 311.519C60.851 311.769 63.0557 311.344 64.3723 311.331L81.5245 311.322L131.976 311.356L161.569 311.441L160.963 311.607C159.32 312.023 157.297 311.835 155.599 311.835C157.074 312.02 158.916 311.572 159.938 312.827C160.244 313.203 160.458 313.569 160.657 314.004C161.149 315.081 162.394 315.869 162.769 316.993C163.007 317.707 162.952 320.664 162.68 321.375L162.362 321.904C161.154 323.766 160.553 327.45 158.184 328.132C157.637 328.292 156.994 328.283 156.428 328.286L163.295 328.289C164.576 328.226 165.841 328.351 167.127 328.289C171.161 328.089 175.229 328.596 179.262 328.289C182.716 328.023 186.317 328.639 189.8 328.289C190.7 328.195 191.622 328.355 192.461 328.658L14.2209 328.273C12.1245 324.583 10.6421 320.477 8.57541 316.711C7.57493 314.89 6.59616 312.837 4.69324 311.776L33.7557 311.5C35.7426 311.744 38.4126 311.159 40.1925 311.854C42.1654 312.627 45.1426 312.226 47.246 312.198C50.9491 312.151 55.71 312.602 59.2681 311.613L59.643 311.519Z" fill="url(#paint0_linear_2001_56)"/>
<path d="M526.792 311.488L527.006 311.419C528.944 312.345 537.011 311.478 539.664 311.472L578.655 311.597L590.758 311.71C589.283 313.294 587.622 314.915 586.412 316.705C583.334 321.265 581.315 326.564 576.034 329.212C574.303 328.477 571.572 328.718 569.672 328.671L484.777 328.962L360.274 328.927C361.526 328.12 364.307 328.508 365.872 328.511L380.089 328.53C381.539 328.533 383.528 328.799 384.869 328.401C385.409 328.242 385.109 328.27 385.792 328.317C386.878 328.389 387.977 328.182 389.066 328.289L389.545 328.364L420.635 328.211C420.533 327.791 420.619 327.929 420.364 327.622C419.904 327.071 419.562 326.63 419.265 325.973L418.939 325.256C418.061 323.719 417.129 321.691 416.87 319.938C416.487 317.359 418.955 314.276 420.277 312.242L406.437 312.258C405.741 312.245 405.163 311.97 404.467 311.96C402.886 311.941 400.804 312.232 399.307 311.719L398.757 311.516L485.515 311.472L509.941 311.509C513.725 311.519 518.023 311.131 521.724 311.744C523.378 311.632 525.246 312.132 526.792 311.488Z" fill="url(#paint1_linear_2001_56)"/>
<path d="M161.569 311.441C166.623 311.206 228.553 310.893 229.036 311.275C229.64 311.754 229.885 312.655 230.165 313.347C230.42 312.896 230.667 312.502 230.785 311.995L230.834 311.707C233.79 311.034 237.686 311.209 240.704 311.459L362.988 311.635C363.985 311.328 365.189 311.466 366.236 311.466L372.527 311.459L398.757 311.516L399.307 311.719C400.804 312.233 402.886 311.941 404.467 311.96C405.163 311.97 405.741 312.245 406.437 312.258L420.277 312.242C418.955 314.276 416.487 317.359 416.87 319.938C417.129 321.691 418.061 323.719 418.939 325.256L419.265 325.973C419.562 326.63 419.904 327.071 420.364 327.622C420.619 327.929 420.533 327.791 420.635 328.211L389.544 328.364L389.065 328.289C387.977 328.182 386.878 328.389 385.792 328.317C385.109 328.27 385.409 328.242 384.869 328.401C383.528 328.799 381.539 328.533 380.089 328.53L365.872 328.511C364.307 328.508 361.526 328.12 360.274 328.927L192.461 328.658C191.622 328.355 190.7 328.195 189.8 328.289C186.317 328.639 182.716 328.023 179.262 328.289C175.229 328.596 171.161 328.089 167.127 328.289C165.841 328.351 164.576 328.226 163.295 328.289L156.428 328.286C156.994 328.283 157.637 328.292 158.184 328.132C160.553 327.45 161.154 323.766 162.362 321.904L162.68 321.375C162.952 320.664 163.007 317.707 162.769 316.993C162.394 315.869 161.149 315.081 160.657 314.004C160.458 313.569 160.244 313.203 159.938 312.827C158.916 311.572 157.074 312.02 155.599 311.835C157.297 311.835 159.32 312.023 160.963 311.607L161.569 311.441Z" fill="url(#paint2_linear_2001_56)"/>
<path d="M240.704 311.459L362.989 311.635C362.024 312.571 361.13 313.506 360.003 314.248C356.88 316.305 353.434 317.807 349.695 318.439C346.294 319.012 342.484 318.743 339.035 318.774L314.264 318.611C311.86 318.58 308.357 319.018 306.076 318.505L305.559 318.336L293.584 318.273C289.656 318.076 285.008 318.073 281.114 318.427C277.709 318.736 274.106 318.561 270.68 318.599L251.557 318.78L245.385 318.805C244.404 318.805 243.221 318.956 242.288 318.658C239.831 318.677 236.886 319.006 234.577 318.079C232.435 317.218 231.062 315.372 230.166 313.347C230.42 312.896 230.667 312.502 230.785 311.995L230.835 311.707C233.79 311.034 237.686 311.209 240.704 311.459Z" fill="#BFBEBE"/>
<path d="M79.1537 0.0138702L492.799 0.0914869C498.684 0.476149 505.173 -0.503818 510.892 0.69837C516.209 1.81574 520.763 4.06112 523.915 8.57566C525.425 10.7356 526.326 12.9271 526.792 15.5008C527.188 17.6792 526.508 23.0636 527.884 24.6088L528.025 28.2686L528.031 85.9579C528.702 95.0302 528.542 104.265 528.535 113.356L528.497 150.724L528.519 262.255L528.542 292.461L528.574 300.445C528.59 301.823 528.848 303.594 528.29 304.846C528.219 307.121 527.523 309.215 527.006 311.419L526.792 311.488C525.246 312.132 523.378 311.632 521.724 311.744C518.023 311.131 513.725 311.519 509.941 311.51L485.514 311.472L398.757 311.516L372.527 311.459L366.236 311.466C365.189 311.466 363.985 311.328 362.988 311.635L240.704 311.459C237.686 311.209 233.79 311.034 230.834 311.707L230.785 311.995C230.666 312.502 230.42 312.896 230.165 313.347C229.885 312.655 229.64 311.754 229.036 311.275C228.552 310.893 166.623 311.206 161.569 311.441L131.976 311.356L81.5244 311.322L64.3723 311.331C63.0556 311.344 60.851 311.769 59.6429 311.519L59.268 311.613C55.71 312.602 50.949 312.151 47.246 312.198C45.1425 312.226 42.1653 312.627 40.1925 311.854C38.4125 311.159 35.7425 311.744 33.7556 311.5C36.05 311.146 38.9352 311.463 41.29 311.469L59.2076 311.528L59.58 267.757L59.4692 199.741L59.7777 29.8848C59.9309 28.4072 59.5056 26.1083 60.1621 24.8C60.9349 23.2601 60.7165 21.4229 60.7532 19.7187C60.8225 16.5155 61.0863 13.58 62.6558 10.6808C66.3419 3.8727 72.0485 2.04078 79.1537 0.0138702Z" fill="#0A060E"/>
<path d="M528.031 85.9579C528.702 95.0302 528.542 104.265 528.535 113.356L528.497 150.724L528.519 262.255L528.542 292.461L528.574 300.445C528.59 301.823 528.848 303.594 528.29 304.846C528.219 307.121 527.523 309.215 527.006 311.419L526.792 311.488C525.246 312.132 523.378 311.632 521.724 311.744C518.023 311.131 513.725 311.519 509.941 311.51L485.514 311.472L398.757 311.516L372.527 311.459L366.236 311.466C365.189 311.466 363.985 311.328 362.988 311.635L240.704 311.459C237.686 311.209 233.79 311.034 230.834 311.707L230.785 311.995C230.666 312.502 230.42 312.896 230.165 313.347C229.885 312.655 229.64 311.754 229.036 311.275C228.552 310.893 166.623 311.206 161.569 311.441L131.976 311.356L81.5244 311.322L64.3723 311.331C63.0556 311.344 60.851 311.769 59.6429 311.519L59.268 311.613C55.71 312.602 50.949 312.151 47.246 312.198C45.1425 312.226 42.1653 312.627 40.1925 311.854C38.4125 311.159 35.7425 311.744 33.7556 311.5C36.05 311.146 38.9352 311.463 41.29 311.469L59.2076 311.528L59.58 267.757L59.4692 199.741L60.6306 199.225L60.6284 244.308L60.3889 243.697C60.2334 243.857 59.9871 243.96 59.922 244.17C59.5838 245.256 59.8393 247.481 59.8169 248.668L59.8533 267.747C59.8396 270.962 59.626 274.308 59.9929 277.503L60.6354 277.713L60.8832 296.808C60.8906 298.824 61.2568 301.56 60.8292 303.5L61.0694 305.829C61.9028 306.577 63.1872 306.402 64.3007 306.417L173.365 306.423L425.39 306.289L517.908 306.383C520.335 306.408 522.666 306.301 524.458 304.514C525.661 303.312 526.195 301.879 526.508 300.242C526.987 297.732 526.718 294.865 526.734 292.295L526.811 276.918L526.983 159.131L527.156 93.6872C527.175 93.0118 527.558 93.0045 527.753 92.4509C528.302 90.9107 527.973 87.6559 528.031 85.9579Z" fill="#4A4B49"/>
<path d="M526.792 311.488L523.206 311.425C524.834 309.519 526.226 307.857 527.315 305.572C527.545 305.093 527.82 305.084 528.289 304.846C528.219 307.121 527.523 309.215 527.006 311.419L526.792 311.488Z" fill="#0A060E"/>
<path d="M282.24 151.101L314.379 126.107L335.781 108.118L408.28 43.3017C411.508 40.1737 433.728 17.4999 434.73 17.2498C435.506 17.0557 436.857 17.1775 437.691 17.149L383.713 107.323L375.139 119.947L356.519 146.576C354.168 149.783 351.847 153.772 349.097 156.601C338.198 172.414 325.907 187.719 313.265 202.217L305.837 210.959L301.388 215.92C300.14 217.281 298.77 218.424 298.211 220.226C297.47 220.831 296.924 221.394 296.295 222.104L295.656 222.73L293.105 225.469C292.415 226.145 291.911 226.743 291.349 227.503C290.735 228.327 289.685 229.115 288.963 229.888C287.277 231.688 285.72 233.585 283.79 235.143L283.36 235.125L259.177 258.048C257.642 259.494 255.891 262.264 253.984 263.118C252.954 263.578 251.366 265.51 250.394 266.314L249.675 267.018L229.158 285.801C227.902 286.931 226.099 289.118 224.607 289.791C224 290.064 221.275 289.804 220.456 289.791C219.188 289.766 218.096 289.882 216.845 290.11C215.262 290.364 213.293 290.135 211.653 290.142L199.41 290.173L155.521 290.176C153.524 290.561 150.97 290.258 148.89 290.251L133.336 290.214L74.1455 290.186L74.1149 274.339L74.09 268.899C79.6126 267.2 84.7561 264.749 90.0858 262.574L139.325 239.935C144.516 237.325 149.532 234.258 154.811 231.838C157.304 229.888 160.795 228.446 163.614 226.915L181.397 217.147L237.071 182.571L248.426 174.993C250.728 173.45 253.214 171.948 255.27 170.101C258.164 168.781 261.097 166.117 263.692 164.242L282.24 151.101Z" fill="url(#paint3_linear_2001_56)"/>
<path d="M74.1149 274.339L73.6503 17.3722L194.909 17.7077L195.069 17.8796H142.716C142.183 17.8796 140.749 17.7033 140.303 17.8796C140.094 17.9619 140.034 18.2689 139.824 18.3459C139.074 18.6195 138.979 18.3788 138.147 18.9734L138.543 19.601L138.387 20.227C138.588 20.6861 138.75 21.1277 138.543 21.6354L138.227 22.1018C138.873 22.7478 138.543 25.6232 138.543 26.6432C139.055 27.3963 138.862 28.5484 138.862 29.4601C139.346 30.1715 139.182 30.8138 139.182 31.651C139.631 32.3111 139.468 32.3171 139.345 33.0595L140.459 33.9984L140.303 34.6244L140.779 34.9374C140.439 35.9552 140.884 35.2648 141.098 35.8764C141.249 36.3083 141.098 37.4088 141.098 37.9108L141.417 38.3803C141.368 38.9249 141.38 39.1196 141.638 39.6232C141.98 40.2936 141.838 39.8989 142.078 40.6022L142.375 41.5102L142.698 41.6667C142.698 42.2081 142.932 42.9965 143.333 43.3881L143.736 43.6228L143.656 44.1706C144.088 45.0673 144.575 46.0454 145.301 46.7527L145.572 46.9875V47.3004C145.969 47.6507 146.206 47.8557 146.408 48.3568L146.527 48.7089L147.408 49.4131L147.647 49.9608C147.912 50.4003 148.248 50.5436 148.383 51.0767L148.443 51.3693C148.8 52.0879 148.762 52.1167 148.762 52.9342L149.164 53.3255C149.589 53.6701 149.888 53.7971 150.285 54.2262C150.709 54.6842 151.225 54.9821 151.597 55.4682L151.797 55.7527L152.278 55.9108C153.038 56.3145 153.976 57.5652 154.142 58.383L154.191 58.7245L154.513 58.4147L154.829 58.7245C154.811 59.502 154.852 60.3289 155.311 60.9953L155.787 61.2284V62.1674C156.344 62.8065 156.786 63.4037 156.996 64.2322L157.065 64.5148L157.866 65.9232L158.345 65.9264L158.824 66.8622L159.303 66.8653L159.782 67.8012L160.261 67.8043L160.74 68.7401L161.377 68.8982C161.38 69.5505 161.266 69.2559 161.778 69.7574L162.177 69.3693L162.493 69.6791L162.337 70.1486L162.736 70.6963L163.135 70.3082L163.451 70.6181L163.295 71.0876L163.694 71.6353L164.093 71.2472L164.409 71.557L164.253 72.0265L164.652 72.5742C165.035 72.2948 164.839 72.3411 165.209 72.3411C165.304 73.08 165.4 73.7367 165.61 74.4522L166.009 74.0641L166.325 74.3739L166.247 75.1564L166.487 75.5476C167.064 76.6835 167.933 77.7545 168.403 78.9138L168.561 79.3817C169.076 80.3933 169.286 80.6572 169.349 81.8606L169.362 82.1986L169.999 82.3567L170.079 82.9811L170.319 83.3723L170.32 83.7636L171.115 84.3896L170.959 85.0155L171.435 85.3285L171.278 85.9545L171.757 85.9576L172.236 86.8935L172.873 87.0515L173.031 87.5194C173.241 88.7357 173.488 87.788 173.989 88.4584C174.243 88.7977 173.983 89.3238 174.152 89.7104L174.789 89.8684L174.791 90.3363L175.267 90.6493L175.11 91.1188L175.43 91.3551L175.905 91.5883L175.827 92.3708L176.067 92.762L176.225 93.3097L176.544 93.7792L176.068 94.0922L176.705 94.2503C176.904 94.8393 176.899 94.5942 176.795 95.2168L176.707 95.6571L176.925 95.8625C177.678 96.6055 177.502 97.0455 177.502 98.0045L177.821 98.474L177.505 98.7839C177.474 99.6014 177.362 100.405 177.821 101.134C178.215 101.759 177.962 102.127 178.304 102.623L178.779 102.856L178.623 103.482L179.102 103.485L179.737 104.421L179.421 104.731C179.407 105.436 179.369 106.084 179.579 106.77C179.772 107.397 179.779 107.074 179.669 107.736L179.581 108.177L180.695 109.116L180.539 109.742L181.495 110.526L181.577 111.072L181.976 110.684L182.453 111.152L182.455 111.62C183.109 111.624 182.982 111.67 183.411 112.091L183.413 112.559L183.889 112.871L183.812 113.576C184.195 113.296 183.999 113.343 184.369 113.343L184.528 113.81C184.612 114.3 184.509 114.501 185.01 114.829C185.797 115.345 185.258 115.42 185.648 116.314L186.127 116.317L186.606 117.253L187.085 117.256L187.564 118.192L188.201 118.35C188.305 118.812 188.405 119.238 188.842 119.524L189.318 119.757L189.161 120.696L189.637 121.009C189.617 121.843 189.689 122.422 189.958 123.212C190.464 124.699 191.169 125.991 191.714 127.427C192.038 128.28 192.305 128.861 192.83 129.616L193.311 130.321C193.707 131.268 193.254 130.557 193.632 131.105L194.108 131.338L194.031 132.042L194.43 131.654L194.908 131.809L194.909 132.277C195.265 133.776 195.089 131.909 195.204 133.367L195.228 133.842C195.691 134.086 195.903 134.269 196.265 134.659L196.662 135.094C197.369 135.74 197.733 136.078 198.19 136.973L198.898 138.38C199.151 138.866 199.381 139.3 199.558 139.819L200.494 142.292C200.621 142.773 200.636 143.068 200.874 143.535C201.23 144.234 201.732 144.975 201.935 145.735C202.069 146.24 201.998 146.433 202.341 146.88C202.776 147.448 202.755 148.514 202.972 149.256L203.292 149.023L203.609 149.335C203.679 149.873 203.779 150.305 203.93 150.821L204.33 150.433L204.646 150.743L204.489 151.526L204.965 151.995L204.809 152.777L205.126 153.169L204.888 153.482C204.809 154.199 204.82 154.73 204.965 155.438L205.288 155.128L205.604 155.438C205.565 156.23 205.46 156.967 205.834 157.698C206.092 158.203 206.206 158.673 206.463 159.175C207.084 160.389 207.665 162.214 208.498 163.234C208.848 163.663 208.907 163.864 208.88 164.436C208.847 165.147 208.849 165.112 209.116 165.766L209.758 165.923L209.996 166.549C211.529 167.322 212.267 168.956 213.024 170.443L213.828 171.87C214.445 172.214 214.255 172.045 214.622 172.408L214.864 172.652C215.329 173.04 215.624 173.238 215.984 173.751L215.985 174.217L216.464 174.22L216.942 175.003L217.023 175.547L217.738 176.252C218.221 176.84 218.014 176.981 217.901 177.66L218.538 177.82L218.696 178.599C219.156 179.012 219.462 179.297 219.745 179.851L219.974 180.32C220.283 180.796 220.582 180.946 220.758 181.519L220.854 181.885L221.093 182.277C221.096 182.909 221.7 183.015 221.89 183.763C221.491 184.352 221.573 184.355 221.57 185.015L221.893 185.328L222.212 185.954C222.653 186.524 223.048 186.84 223.408 187.519C223.68 188.032 223.537 187.898 223.872 188.227L224.607 188.931C224.9 189.222 225.028 189.369 225.406 189.557L226.923 188.461C228.249 187.732 229.426 186.612 230.755 185.957C233.063 184.818 235.212 182.903 237.461 181.576C238.323 181.065 239.661 180.23 240.42 179.588L240.654 179.385C241.004 179.184 241.28 178.95 241.612 178.759C243.718 177.544 246.633 175.982 248.334 174.314L248.559 174.061C250.162 173.613 251.268 172.001 252.711 171.247C253.556 170.802 252.86 171.432 253.537 170.768C254.025 170.289 254.607 170.267 255.27 170.101C253.214 171.948 250.728 173.45 248.426 174.993L237.071 182.571L181.397 217.147L163.614 226.915C160.795 228.446 157.304 229.888 154.811 231.838C149.532 234.258 144.516 237.325 139.325 239.935L90.0858 262.574C84.7561 264.749 79.6126 267.2 74.09 268.899L74.1149 274.339Z" fill="url(#paint4_linear_2001_56)"/>
<path d="M437.691 17.149L513.418 17.2091L513.303 92.4809L513.364 123.949L513.396 184.449L513.444 213.685L513.44 218.514C513.437 218.981 513.581 220.114 513.434 220.536C513.329 220.846 513.089 221.093 512.917 221.372L512.811 290.652L452.364 290.649C451.825 290.649 452.067 290.74 451.655 290.339L310.103 290.43L216.845 290.111C218.096 289.882 219.188 289.766 220.456 289.791C221.275 289.804 224 290.064 224.607 289.791C226.099 289.118 227.902 286.931 229.158 285.801L249.675 267.018L250.394 266.314C251.367 265.51 252.954 263.579 253.984 263.118C255.891 262.264 257.642 259.494 259.177 258.048L283.36 235.125L283.79 235.144C285.72 233.585 287.277 231.688 288.963 229.888C289.685 229.115 290.736 228.327 291.349 227.503C291.911 226.743 292.415 226.145 293.105 225.469L295.656 222.73L296.295 222.104C296.924 221.394 297.47 220.831 298.211 220.226C298.77 218.424 300.14 217.281 301.389 215.92L305.837 210.959L313.265 202.217C325.907 187.72 338.198 172.414 349.097 156.601C351.847 153.772 354.168 149.783 356.519 146.576L375.139 119.947L383.713 107.323L437.691 17.149Z" fill="url(#paint5_linear_2001_56)"/>
<defs>
<linearGradient id="paint0_linear_2001_56" x1="49.3019" y1="357.71" x2="122.928" y2="278.459" gradientUnits="userSpaceOnUse">
<stop stop-color="#A5A3A3"/>
<stop offset="1" stop-color="#EAE9E9"/>
</linearGradient>
<linearGradient id="paint1_linear_2001_56" x1="516.295" y1="373.481" x2="439.411" y2="269.948" gradientUnits="userSpaceOnUse">
<stop stop-color="#565354"/>
<stop offset="1" stop-color="#D4D4D3"/>
</linearGradient>
<linearGradient id="paint2_linear_2001_56" x1="298.074" y1="281.19" x2="278.299" y2="359.045" gradientUnits="userSpaceOnUse">
<stop stop-color="#C4C3C3"/>
<stop offset="1" stop-color="#F6F5F5"/>
</linearGradient>
<linearGradient id="paint3_linear_2001_56" x1="299.923" y1="259.181" x2="234.819" y2="97.7459" gradientUnits="userSpaceOnUse">
<stop stop-color="#2B063A"/>
<stop offset="1" stop-color="#AF5D87"/>
</linearGradient>
<linearGradient id="paint4_linear_2001_56" x1="188.052" y1="98.7395" x2="31.7378" y2="162.102" gradientUnits="userSpaceOnUse">
<stop stop-color="#1D1422"/>
<stop offset="1" stop-color="#804B53"/>
</linearGradient>
<linearGradient id="paint5_linear_2001_56" x1="448.883" y1="321.247" x2="328.135" y2="69.6335" gradientUnits="userSpaceOnUse">
<stop stop-color="#020002"/>
<stop offset="1" stop-color="#B695B9"/>
</linearGradient>
</defs>
</svg>
