<svg width="50" height="50" viewBox="0 0 50 50" fill="none" xmlns="http://www.w3.org/2000/svg">
<mask id="mask0_125_579" style="mask-type:alpha" maskUnits="userSpaceOnUse" x="0" y="0" width="50" height="50">
<rect width="50" height="50" fill="#D9D9D9"/>
</mask>
<g mask="url(#mask0_125_579)">
<path d="M7.08366 37.5L4.16699 34.5833L15.2087 23.5417C16.4239 22.3264 17.8996 21.7188 19.6357 21.7188C21.3719 21.7188 22.8475 22.3264 24.0628 23.5417L26.4587 25.9375C26.8753 26.3542 27.3701 26.5625 27.943 26.5625C28.516 26.5625 29.0107 26.3542 29.4274 25.9375L38.6982 16.6667H33.3337V12.5H45.8337V25H41.667V19.6354L32.3441 28.9062C31.1288 30.1215 29.6531 30.7292 27.917 30.7292C26.1809 30.7292 24.7052 30.1215 23.4899 28.9062L21.042 26.4583C20.66 26.0764 20.1739 25.8854 19.5837 25.8854C18.9934 25.8854 18.5073 26.0764 18.1253 26.4583L7.08366 37.5Z" fill="#212824"/>
</g>
</svg>
