<svg width="744" height="563" viewBox="0 0 744 563" fill="none" xmlns="http://www.w3.org/2000/svg">
<path d="M661.71 422.939H392.821C390.51 422.935 388.294 421.984 386.66 420.294C385.025 418.605 384.105 416.315 384.102 413.926V9.01244C384.109 6.62611 385.031 4.34006 386.665 2.6541C388.299 0.968142 390.512 0.0194323 392.821 0.0153809H661.71C664.019 0.0194323 666.232 0.968142 667.866 2.6541C669.5 4.34006 670.422 6.62611 670.429 9.01244V413.926C670.426 416.315 669.506 418.605 667.871 420.294C666.237 421.984 664.021 422.935 661.71 422.939ZM392.821 0.399871C391.721 0.391762 390.63 0.608431 389.612 1.03743C388.593 1.46643 387.666 2.09931 386.885 2.89966C386.104 3.70002 385.483 4.65208 385.059 5.70112C384.635 6.75016 384.416 7.8755 384.414 9.01244V413.926C384.414 416.214 385.293 418.409 386.859 420.027C388.424 421.645 390.548 422.554 392.761 422.554H661.71C663.924 422.554 666.047 421.645 667.613 420.027C669.178 418.409 670.057 416.214 670.057 413.926V9.01244C670.057 6.72416 669.178 4.52962 667.613 2.91156C666.047 1.29351 663.924 0.384488 661.71 0.384488L392.821 0.399871Z" fill="#FF8B7B"/>
<path d="M351.575 422.939H82.6262C80.3148 422.935 78.0993 421.984 76.465 420.294C74.8306 418.605 73.9107 416.315 73.9067 413.926V9.01244C73.9107 6.62344 74.8306 4.33346 76.465 2.64418C78.0993 0.954897 80.3148 0.00406639 82.6262 0H351.575C353.886 0.00406639 356.102 0.954897 357.736 2.64418C359.37 4.33346 360.29 6.62344 360.294 9.01244V413.926C360.29 416.315 359.37 418.605 357.736 420.294C356.102 421.984 353.886 422.935 351.575 422.939ZM82.6262 0.399873C80.4149 0.399869 78.2939 1.30677 76.7289 2.9215C75.1639 4.53623 74.2827 6.72683 74.2787 9.01244V413.926C74.2787 416.215 75.1582 418.409 76.7236 420.027C78.2891 421.645 80.4123 422.554 82.6262 422.554H351.575C353.789 422.554 355.912 421.645 357.477 420.027C359.043 418.409 359.922 416.215 359.922 413.926V9.01244C359.922 6.72416 359.043 4.52962 357.477 2.91156C355.912 1.29351 353.789 0.38449 351.575 0.38449L82.6262 0.399873Z" fill="#FF8B7B"/>
<path d="M743.979 516.862H0V517.246H743.979V516.862Z" fill="#FF8B7B"/>
<path d="M518.762 141.661L512.111 196.397L465.806 148.536L518.762 141.661Z" fill="#E0E0E0"/>
<path d="M412.239 265.359L505.891 168.56L492.217 154.411L412.239 237.092V265.359Z" fill="#E0E0E0"/>
<path d="M164.39 344.38C166.999 349.562 168.446 355.284 168.625 361.123C168.804 366.961 167.71 372.767 165.424 378.109C163.137 383.451 159.717 388.193 155.417 391.984C151.117 395.775 146.047 398.517 140.582 400.008C134.414 401.696 127.931 401.733 121.745 400.115C120.882 399.885 120.004 399.623 119.156 399.331C115.379 398.035 111.823 396.13 108.621 393.687C107.996 393.21 107.371 392.703 106.776 392.149C102.986 388.866 99.8605 384.842 97.5805 380.307C97.3722 379.876 97.1638 379.445 96.9704 378.999C94.3977 373.351 93.1762 367.145 93.4088 360.907C93.6414 354.668 95.3214 348.578 98.3071 343.151C101.293 337.724 105.497 333.118 110.565 329.721C115.633 326.324 121.417 324.236 127.429 323.633C128.337 323.541 129.244 323.494 130.152 323.464C134.084 323.385 138.003 323.935 141.773 325.094C142.606 325.355 143.424 325.632 144.228 325.94C147.114 327.064 149.857 328.547 152.397 330.354C157.072 333.679 160.954 338.06 163.75 343.165C163.958 343.534 164.182 343.949 164.39 344.38Z" fill="#E0E0E0"/>
<path d="M158.304 349.27C157.918 348.594 157.516 347.932 157.084 347.286C155.189 344.433 152.846 341.927 150.15 339.874C147.448 337.824 144.43 336.264 141.223 335.26C140.407 334.984 139.577 334.753 138.738 334.568C134.826 333.665 130.778 333.581 126.834 334.321C125.831 334.504 124.838 334.74 123.858 335.029C119.679 336.275 115.81 338.441 112.517 341.378C109.224 344.316 106.585 347.955 104.781 352.046C102.978 356.137 102.052 360.583 102.067 365.079C102.083 369.575 103.04 374.014 104.872 378.092L104.202 376.831C102.37 373.198 101.249 369.229 100.901 365.148C100.553 361.068 100.987 356.956 102.176 353.049C103.366 349.142 105.289 345.515 107.834 342.375C110.38 339.236 113.499 336.646 117.014 334.752C120.528 332.859 124.369 331.699 128.316 331.34C132.264 330.981 136.242 331.429 140.022 332.658C143.802 333.888 147.311 335.875 150.349 338.506C153.386 341.138 155.892 344.362 157.724 347.994C157.903 348.409 158.096 348.901 158.304 349.27Z" fill="#FF8B7B"/>
<g opacity="0.3">
<path d="M144.868 389.965C144.555 390.134 144.243 390.303 143.916 390.457C143.588 390.626 143.276 390.78 142.934 390.918L142.695 391.026C142.323 391.195 141.966 391.334 141.609 391.472H141.46C140.29 391.925 139.092 392.3 137.874 392.595C137.473 392.687 137.056 392.795 136.654 392.856C135.836 393.025 135.018 393.148 134.184 393.241L133.381 393.318H132.949H132.309C131.982 393.318 131.655 393.318 131.313 393.318C130.97 393.318 130.464 393.318 130.033 393.318C129.601 393.318 129.185 393.317 128.768 393.241C128.352 393.164 128.069 393.241 127.727 393.148L127.042 393.056L126.492 392.979L125.867 392.871L124.84 392.672L123.962 392.456H123.769L122.519 392.118L121.358 391.733L120.674 391.472L119.989 391.211L119.334 390.934L118.635 390.611L117.966 390.288L117.311 389.949C116.864 389.719 116.418 389.473 115.972 389.196L115.436 388.873C114.99 388.596 114.573 388.319 114.142 388.012L113.546 387.581C112.907 387.12 112.282 386.612 111.686 386.043L111.21 385.612C110.853 385.289 110.511 384.982 110.184 384.643C109.841 384.305 109.514 383.951 109.187 383.598L108.74 383.105L108.532 382.859L108.071 382.321V382.229C107.894 382.029 107.73 381.819 107.58 381.598C107.388 381.373 107.21 381.137 107.044 380.891C106.865 380.66 106.702 380.414 106.538 380.168C106.374 379.922 106.27 379.783 106.151 379.584L105.898 379.199L105.571 378.661L105.124 377.892C103.292 373.814 102.336 369.375 102.32 364.879C102.304 360.383 103.23 355.937 105.034 351.846C106.838 347.755 109.477 344.116 112.77 341.179C116.063 338.241 119.932 336.075 124.111 334.829C125.09 334.54 126.084 334.304 127.087 334.121C131.031 333.381 135.078 333.465 138.99 334.368C139.83 334.553 140.659 334.784 141.475 335.06C144.682 336.064 147.701 337.624 150.403 339.674C153.098 341.727 155.442 344.233 157.337 347.086C157.768 347.732 158.17 348.394 158.557 349.07C161.84 356.393 162.248 364.746 159.695 372.372C157.142 379.999 151.827 386.305 144.868 389.965Z" fill="black"/>
</g>
<path d="M144.868 389.965C144.555 390.134 144.243 390.303 143.915 390.457C143.588 390.626 143.275 390.78 142.933 390.918L142.695 391.026C142.323 391.195 141.966 391.334 141.609 391.472H141.46C140.289 391.925 139.092 392.3 137.874 392.595C137.472 392.687 137.056 392.795 136.654 392.856C135.836 393.025 135.017 393.148 134.184 393.241H133.857H133.366H132.934H132.294C131.967 393.241 131.64 393.241 131.297 393.241C130.955 393.241 130.449 393.241 130.018 393.241C129.586 393.241 129.17 393.241 128.753 393.164C128.336 393.087 128.054 393.164 127.711 393.071L127.027 392.979L126.476 392.902L125.851 392.795L124.825 392.595L123.947 392.379H123.753L122.504 392.041L121.343 391.656L120.659 391.395L119.974 391.134L119.319 390.857L118.62 390.534L117.95 390.211L117.296 389.873C116.849 389.642 116.403 389.396 115.957 389.119L115.421 388.796C114.975 388.519 114.558 388.242 114.126 387.935L113.531 387.504C112.891 387.043 112.266 386.535 111.671 385.966L111.195 385.535C110.838 385.212 110.496 384.905 110.168 384.567C109.826 384.228 109.499 383.874 109.171 383.521L108.725 383.029L108.517 382.782L108.056 382.244V382.152C107.879 381.952 107.715 381.742 107.564 381.521C107.373 381.296 107.194 381.06 107.029 380.814C106.85 380.583 106.687 380.337 106.523 380.091C106.359 379.845 106.255 379.707 106.136 379.507L105.883 379.122L105.556 378.584L105.109 377.815C103.277 373.737 102.32 369.298 102.305 364.802C102.289 360.306 103.215 355.86 105.019 351.769C106.823 347.678 109.462 344.039 112.755 341.102C116.047 338.164 119.916 335.998 124.096 334.752C125.075 334.463 126.069 334.227 127.072 334.045C131.016 333.304 135.063 333.388 138.975 334.291C139.815 334.476 140.644 334.707 141.46 334.983C144.667 335.987 147.686 337.548 150.388 339.597C153.083 341.65 155.427 344.156 157.322 347.01C157.753 347.655 158.155 348.317 158.542 348.994C161.849 356.322 162.271 364.692 159.72 372.337C157.169 379.982 151.843 386.302 144.868 389.965Z" fill="#FF8B7B"/>
<path d="M142.576 376.031L144.882 380.645L139.243 383.721L137.041 379.337C133.38 381.135 129.368 382.035 125.316 381.967L124.765 373.232C128.452 373.386 132.115 372.56 135.404 370.833C138.082 369.387 138.737 368.295 138.246 367.311C136.416 363.666 122.414 374.924 116.983 364.142C114.632 359.529 115.942 353.777 122.012 349.301L119.751 344.795L125.39 341.719L127.607 346.148C130.547 344.879 133.707 344.246 136.892 344.287L137.606 352.869C134.516 352.814 131.457 353.515 128.679 354.915C125.911 356.453 125.45 357.698 125.956 358.698C127.696 362.174 141.713 351.008 147.085 361.605C149.376 366.019 148.215 371.571 142.576 376.031Z" fill="#FF8B7B"/>
<path d="M141.638 374.585L143.945 379.199L138.32 382.275L136.103 377.907C132.437 379.689 128.429 380.588 124.378 380.537L123.842 371.802C127.496 371.954 131.129 371.156 134.407 369.479C137.085 368.034 137.755 366.942 137.249 365.942C135.404 362.235 121.432 373.509 116.06 362.743C113.709 358.129 115.004 352.393 121.09 347.917L118.813 343.411L124.452 340.335L126.684 344.749C129.608 343.447 132.756 342.767 135.939 342.75L136.669 351.347C133.578 351.285 130.517 351.986 127.741 353.392C124.988 354.93 124.512 356.176 125.018 357.16C126.759 360.636 140.775 349.47 146.147 360.082C148.438 364.573 147.307 370.141 141.638 374.585Z" fill="#E0E0E0"/>
<path d="M621.253 220.343C619.312 227.581 615.385 234.084 609.947 239.066C604.509 244.048 597.793 247.297 590.608 248.421C583.423 249.544 576.077 248.495 569.456 245.398C562.836 242.302 557.224 237.291 553.298 230.971C552.807 230.186 552.346 229.433 551.914 228.556C550 224.937 548.65 221.029 547.911 216.975C547.778 216.176 547.659 215.437 547.554 214.561C546.964 209.488 547.348 204.346 548.685 199.427C548.804 198.966 548.938 198.504 549.087 198.043C550.928 192.084 554.131 186.671 558.425 182.262C562.719 177.853 567.977 174.579 573.755 172.715C579.532 170.852 585.659 170.455 591.617 171.557C597.574 172.66 603.187 175.23 607.98 179.049C608.695 179.618 609.394 180.218 610.064 180.849C613.005 183.558 615.516 186.729 617.503 190.246C617.935 191.015 618.351 191.783 618.738 192.599C620.107 195.447 621.131 198.458 621.789 201.565C622.485 204.825 622.765 208.165 622.622 211.5C622.519 214.009 622.18 216.502 621.61 218.944C621.491 219.421 621.372 219.882 621.253 220.343Z" fill="#E0E0E0"/>
<path d="M613.575 219.62C613.738 218.851 613.887 218.083 613.991 217.314C614.504 213.894 614.448 210.409 613.828 207.009C613.222 203.599 612.065 200.318 610.405 197.305C609.989 196.536 609.527 195.767 609.051 195.044C606.782 191.623 603.879 188.7 600.51 186.447C599.662 185.908 598.799 185.385 597.906 184.909C596.117 183.972 594.243 183.22 592.312 182.663C584.849 180.517 576.874 181.424 570.041 185.196C563.208 188.968 558.043 195.314 555.619 202.918C555.738 202.457 555.842 201.995 555.961 201.534C558.106 193.58 563.22 186.833 570.178 182.776C577.136 178.719 585.368 177.686 593.063 179.903C600.758 182.12 607.287 187.405 611.211 194.597C615.136 201.789 616.136 210.298 613.991 218.252L613.575 219.62Z" fill="#FF8B7B"/>
<g opacity="0.3">
<path d="M576.882 239.86L575.855 239.552L574.828 239.199L574.575 239.106L573.504 238.676H573.34C572.19 238.176 571.072 237.601 569.993 236.953C569.635 236.738 569.263 236.523 568.921 236.292C568.207 235.831 567.537 235.338 566.868 234.831L566.243 234.323L565.901 234.031L565.424 233.554C565.172 233.324 564.919 233.108 564.681 232.862L563.758 231.955C563.46 231.647 563.163 231.324 562.88 231.001C562.597 230.678 562.404 230.478 562.181 230.186C561.958 229.894 561.883 229.833 561.749 229.648L561.392 229.202L561.005 228.679C560.797 228.402 560.589 228.11 560.395 227.818C560.202 227.526 560.053 227.31 559.889 227.033L559.77 226.864L559.086 225.726L558.505 224.634C558.386 224.404 558.282 224.173 558.178 223.958C558.074 223.742 557.955 223.496 557.851 223.265C557.747 223.035 557.657 222.835 557.553 222.604C557.449 222.373 557.345 222.127 557.256 221.881L556.988 221.174C556.898 220.943 556.809 220.712 556.735 220.466C556.556 219.974 556.393 219.482 556.244 218.928L556.065 218.298C555.931 217.806 555.812 217.283 555.693 216.76C555.693 216.514 555.589 216.268 555.544 216.022C555.381 215.222 555.262 214.484 555.158 213.622C555.158 213.407 555.158 213.192 555.158 212.976C555.158 212.5 555.068 212.023 555.053 211.531C555.053 211.039 555.053 210.562 555.053 210.085V209.408C555.053 209.285 555.053 209.178 555.053 209.07C555.053 208.962 555.053 208.593 555.053 208.347C555.047 208.312 555.047 208.275 555.053 208.24C555.053 207.978 555.053 207.701 555.053 207.44L555.143 206.548C555.143 206.24 555.143 205.948 555.247 205.656C555.351 205.364 555.247 205.194 555.351 204.948C555.455 204.702 555.351 204.656 555.351 204.502C555.351 204.349 555.425 204.087 555.47 203.872L555.649 202.995C558.073 195.391 563.238 189.045 570.071 185.273C576.904 181.501 584.879 180.594 592.342 182.74C594.273 183.297 596.147 184.049 597.936 184.986C598.829 185.462 599.692 185.985 600.54 186.524C603.909 188.777 606.812 191.699 609.081 195.121C609.557 195.844 610.019 196.659 610.435 197.382C612.095 200.395 613.252 203.676 613.858 207.086C614.478 210.486 614.533 213.971 614.021 217.39C613.917 218.159 613.768 218.928 613.605 219.697C611.159 227.289 605.981 233.617 599.145 237.37C592.308 241.124 584.337 242.015 576.882 239.86Z" fill="black"/>
</g>
<path d="M576.882 239.86L575.855 239.552L574.828 239.199L574.575 239.106L573.504 238.676H573.34C572.19 238.176 571.072 237.601 569.993 236.953C569.635 236.738 569.263 236.523 568.921 236.292C568.207 235.831 567.537 235.338 566.868 234.831L566.6 234.616C566.47 234.522 566.345 234.419 566.228 234.308L565.886 234.016L565.424 233.554C565.172 233.324 564.919 233.108 564.681 232.862L563.758 231.955C563.46 231.647 563.163 231.324 562.88 231.001C562.597 230.678 562.404 230.478 562.181 230.186C561.958 229.894 561.883 229.833 561.749 229.648L561.392 229.202L561.005 228.679C560.797 228.402 560.589 228.11 560.395 227.818C560.202 227.526 560.053 227.31 559.889 227.033L559.77 226.864L559.086 225.726L558.505 224.634C558.386 224.404 558.282 224.173 558.178 223.958C558.074 223.742 557.955 223.496 557.851 223.265C557.747 223.035 557.657 222.835 557.553 222.604C557.449 222.373 557.345 222.127 557.256 221.881L556.988 221.174C556.898 220.943 556.809 220.712 556.735 220.466C556.556 219.974 556.393 219.482 556.244 218.928L556.065 218.298C555.931 217.806 555.812 217.283 555.693 216.76C555.693 216.514 555.589 216.268 555.544 216.022C555.381 215.222 555.262 214.484 555.158 213.622C555.158 213.407 555.158 213.192 555.158 212.976C555.158 212.5 555.068 212.023 555.053 211.531C555.053 211.039 555.053 210.562 555.053 210.085V209.408C555.053 209.285 555.053 209.178 555.053 209.07C555.053 208.962 555.053 208.593 555.053 208.347C555.047 208.312 555.047 208.275 555.053 208.24C555.053 207.978 555.053 207.701 555.053 207.44L555.143 206.548C555.143 206.24 555.143 205.948 555.247 205.656C555.351 205.364 555.247 205.194 555.351 204.948C555.455 204.702 555.351 204.656 555.351 204.502C555.351 204.349 555.425 204.087 555.47 203.872L555.649 202.995C558.073 195.391 563.238 189.045 570.071 185.273C576.904 181.501 584.879 180.594 592.342 182.74C594.273 183.297 596.147 184.049 597.936 184.986C598.829 185.462 599.692 185.985 600.54 186.524C603.909 188.777 606.812 191.699 609.081 195.121C609.557 195.844 610.019 196.659 610.435 197.382C612.095 200.395 613.252 203.676 613.858 207.086C614.478 210.486 614.533 213.971 614.021 217.39C613.917 218.159 613.768 218.928 613.605 219.697C611.159 227.289 605.981 233.617 599.145 237.37C592.308 241.124 584.337 242.015 576.882 239.86Z" fill="#FF8B7B"/>
<path d="M584.411 228.064L583.072 233.032L576.941 231.278L578.236 226.526C574.373 225.247 570.845 223.069 567.924 220.159L573.296 213.392C575.861 216.09 579.045 218.074 582.551 219.159C585.527 219.99 586.673 219.667 587.015 218.59C588.071 214.638 570.409 212.992 573.623 201.273C574.992 196.197 579.694 192.968 587.089 193.983L588.414 189.092L594.529 190.861L593.235 195.659C596.25 196.785 599.01 198.539 601.344 200.811L596.196 207.594C593.991 205.379 591.308 203.74 588.369 202.811C585.393 201.949 584.173 202.58 583.905 203.657C582.893 207.425 600.54 209.116 597.416 220.697C595.987 225.542 591.464 228.787 584.411 228.064Z" fill="#FF8B7B"/>
<path d="M584.679 226.357L583.339 231.324L577.209 229.571L578.503 224.803C574.639 223.535 571.11 221.362 568.192 218.452L573.578 211.685C576.136 214.385 579.315 216.37 582.819 217.452C585.794 218.282 586.94 217.96 587.282 216.883C588.339 212.93 570.692 211.285 573.891 199.566C575.26 194.49 579.962 191.261 587.372 192.276L588.681 187.385L594.811 189.154L593.502 193.952C596.52 195.082 599.285 196.835 601.626 199.104L596.374 205.871C594.17 203.657 591.487 202.017 588.547 201.088C585.571 200.227 584.351 200.857 584.083 201.934C583.072 205.702 600.719 207.394 597.594 218.975C596.255 223.835 591.731 227.08 584.679 226.357Z" fill="#E0E0E0"/>
<path d="M226.245 84.8184L219.578 139.554L173.288 91.7084L226.245 84.8184Z" fill="#E0E0E0"/>
<path d="M74.3091 255.455L213.374 111.717L199.699 97.5835L74.3091 227.187V255.455Z" fill="#E0E0E0"/>
<path d="M130.941 39.341C130.941 39.6129 130.889 39.8821 130.787 40.1332C130.686 40.3842 130.538 40.6121 130.351 40.8037C130.165 40.9952 129.943 41.1467 129.699 41.2494C129.456 41.352 129.195 41.4038 128.932 41.4018H121.016V49.6145C120.973 50.1323 120.743 50.6146 120.373 50.9659C120.002 51.3173 119.518 51.5122 119.015 51.5122C118.512 51.5122 118.027 51.3173 117.657 50.9659C117.286 50.6146 117.057 50.1323 117.013 49.6145V41.4018H109.068C108.552 41.3859 108.062 41.1639 107.701 40.7824C107.341 40.4009 107.137 39.8898 107.133 39.3563C107.133 38.8098 107.343 38.2856 107.717 37.8991C108.091 37.5126 108.598 37.2955 109.127 37.2955H117.073V29.0059C117.116 28.488 117.346 28.0058 117.716 27.6545C118.087 27.3031 118.571 27.1082 119.074 27.1082C119.577 27.1082 120.062 27.3031 120.432 27.6545C120.803 28.0058 121.032 28.488 121.075 29.0059V37.2186H129.021C129.547 37.2386 130.045 37.4731 130.404 37.8707C130.764 38.2683 130.957 38.7969 130.941 39.341Z" fill="#E0E0E0"/>
<path d="M633.171 58.4578C633.171 58.7297 633.119 58.999 633.018 59.25C632.917 59.5011 632.769 59.7289 632.582 59.9205C632.395 60.1121 632.173 60.2636 631.93 60.3662C631.686 60.4689 631.425 60.5207 631.162 60.5186H623.217V68.7314C623.241 69.018 623.207 69.3066 623.117 69.579C623.027 69.8513 622.884 70.1015 622.695 70.3135C622.507 70.5255 622.279 70.6947 622.024 70.8105C621.769 70.9263 621.494 70.9861 621.215 70.9861C620.937 70.9861 620.662 70.9263 620.407 70.8105C620.152 70.6947 619.923 70.5255 619.735 70.3135C619.547 70.1015 619.403 69.8513 619.314 69.579C619.224 69.3066 619.19 69.018 619.214 68.7314V60.534H611.268C610.739 60.534 610.232 60.3169 609.858 59.9304C609.484 59.5439 609.274 59.0197 609.274 58.4732C609.278 57.9278 609.49 57.406 609.863 57.0204C610.236 56.6347 610.741 56.4163 611.268 56.4123H619.214V48.1996C619.257 47.6818 619.487 47.1996 619.857 46.8482C620.228 46.4968 620.712 46.3019 621.215 46.3019C621.718 46.3019 622.203 46.4968 622.573 46.8482C622.944 47.1996 623.173 47.6818 623.217 48.1996V56.4123H631.162C631.69 56.4122 632.196 56.6268 632.572 57.0095C632.948 57.3922 633.163 57.9125 633.171 58.4578Z" fill="#E0E0E0"/>
<path d="M483.587 328.908C483.583 329.456 483.369 329.98 482.993 330.366C482.617 330.752 482.108 330.969 481.578 330.969H473.617V339.181C473.641 339.468 473.607 339.757 473.517 340.029C473.428 340.301 473.284 340.552 473.096 340.764C472.908 340.976 472.679 341.145 472.424 341.261C472.17 341.376 471.894 341.436 471.616 341.436C471.338 341.436 471.062 341.376 470.807 341.261C470.553 341.145 470.324 340.976 470.136 340.764C469.948 340.552 469.804 340.301 469.714 340.029C469.625 339.757 469.591 339.468 469.615 339.181V330.969H461.669C461.139 330.969 460.63 330.752 460.254 330.366C459.877 329.98 459.664 329.456 459.66 328.908C459.668 328.361 459.883 327.839 460.258 327.454C460.633 327.069 461.14 326.851 461.669 326.847H469.615V318.634C469.658 318.116 469.887 317.634 470.258 317.283C470.628 316.931 471.113 316.737 471.616 316.737C472.119 316.737 472.603 316.931 472.974 317.283C473.344 317.634 473.574 318.116 473.617 318.634V326.847H481.563C482.094 326.847 482.605 327.063 482.983 327.449C483.362 327.834 483.579 328.358 483.587 328.908Z" fill="#E0E0E0"/>
<path d="M635.537 128.973C632.709 122.145 625.567 109.38 610.807 105.904C597.311 102.72 587.104 120.361 578.741 121.653C570.379 122.944 571.301 119.053 554.547 112.563C540.233 106.996 530.635 121.453 527.228 128.973H635.537Z" fill="#E0E0E0"/>
<path d="M333.69 50.0605C333.69 50.0605 333.69 34.5272 318.929 33.8658C311.861 33.5582 303.246 39.5255 297.8 30.0824C291.476 19.1168 280.421 12.5805 270.466 16.8252C259.47 21.4391 253.236 39.4948 242.493 38.0183C231.749 36.5419 211.245 29.1597 200.666 50.0605H333.69Z" fill="#E0E0E0"/>
<path d="M368.255 562.155C542.472 562.155 683.702 557.975 683.702 552.819C683.702 547.664 542.472 543.484 368.255 543.484C194.038 543.484 52.8076 547.664 52.8076 552.819C52.8076 557.975 194.038 562.155 368.255 562.155Z" fill="white" fill-opacity="0.46"/>
<path d="M550.069 481.366C553.063 490.587 553.697 500.452 551.91 510.001C550.122 519.55 545.974 528.459 539.868 535.86C533.762 543.26 525.907 548.902 517.067 552.235C508.226 555.568 498.702 556.479 489.42 554.88C485.187 554.13 481.053 552.876 477.099 551.143C475.894 550.605 474.704 550.036 473.543 549.421C468.404 546.7 463.717 543.148 459.66 538.901C458.857 538.07 458.083 537.209 457.339 536.332C452.644 530.757 449.054 524.283 446.775 517.277C446.566 516.616 446.358 515.955 446.179 515.278C443.707 506.602 443.292 497.439 444.967 488.562C446.642 479.685 450.36 471.355 455.805 464.275C461.251 457.196 468.265 451.575 476.254 447.887C484.244 444.199 492.975 442.552 501.71 443.086C503.034 443.178 504.329 443.301 505.638 443.486C511.279 444.269 516.767 445.961 521.902 448.5C523.018 449.053 524.134 449.653 525.22 450.284C536.332 456.754 544.887 467.061 549.384 479.397C549.622 480.043 549.846 480.705 550.069 481.366Z" fill="#648C5A"/>
<path d="M550.069 481.366C553.063 490.587 553.697 500.452 551.91 510.001C550.122 519.55 545.974 528.459 539.868 535.86C533.762 543.26 525.907 548.902 517.067 552.235C508.226 555.568 498.702 556.479 489.42 554.88C485.187 554.13 481.053 552.876 477.099 551.143C475.894 550.605 474.704 550.036 473.543 549.421C468.404 546.7 463.717 543.148 459.66 538.901C458.857 538.07 458.083 537.209 457.339 536.332C452.644 530.757 449.054 524.283 446.775 517.277C446.566 516.616 446.358 515.955 446.179 515.278C443.707 506.602 443.292 497.439 444.967 488.562C446.642 479.685 450.36 471.355 455.805 464.275C461.251 457.196 468.265 451.575 476.254 447.887C484.244 444.199 492.975 442.552 501.71 443.086C503.034 443.178 504.329 443.301 505.638 443.486C511.279 444.269 516.767 445.961 521.902 448.5C523.018 449.053 524.134 449.653 525.22 450.284C536.332 456.754 544.887 467.061 549.384 479.397C549.622 480.043 549.846 480.705 550.069 481.366Z" fill="#648C5A"/>
<path opacity="0.6" d="M540.308 486.933C539.906 485.872 539.475 484.842 538.998 483.857C534.781 474.757 527.727 467.386 518.97 462.926C517.854 462.357 516.724 461.834 515.563 461.388C510.165 459.201 504.397 458.155 498.6 458.312C497.153 458.343 495.707 458.451 494.27 458.635C491.394 459.009 488.563 459.684 485.819 460.649C475.205 464.352 466.376 472.133 461.163 482.381C455.949 492.628 454.751 504.557 457.815 515.693L457.146 513.755C455.256 508.136 454.463 502.185 454.813 496.247C455.162 490.309 456.646 484.502 459.18 479.161C461.714 473.819 465.247 469.05 469.574 465.128C473.902 461.207 478.939 458.211 484.394 456.313C489.849 454.416 495.614 453.655 501.355 454.074C507.096 454.493 512.7 456.085 517.843 458.756C522.985 461.428 527.564 465.126 531.316 469.638C535.067 474.149 537.916 479.385 539.698 485.041C539.921 485.626 540.129 486.287 540.308 486.933Z" fill="black"/>
<g opacity="0.3">
<path d="M512.304 541.977C511.813 542.161 511.322 542.315 510.816 542.469L509.328 542.9L508.956 543.007L507.32 543.392H507.082C505.314 543.768 503.525 544.025 501.725 544.161C501.115 544.161 500.52 544.253 499.91 544.253C498.704 544.253 497.514 544.253 496.309 544.253L495.148 544.176H494.523L493.601 544.068C493.125 544.068 492.629 544.007 492.113 543.884C491.503 543.792 490.908 543.699 490.297 543.561C489.687 543.422 489.092 543.315 488.497 543.176C487.902 543.038 487.515 542.93 487.009 542.776L486.057 542.5L485.298 542.269L484.42 541.961L483.006 541.438C482.59 541.285 482.188 541.115 481.786 540.931L481.518 540.823C480.953 540.562 480.373 540.316 479.807 540.039C479.242 539.762 478.766 539.516 478.245 539.224H478.156L477.218 538.701L476.311 538.147L475.433 537.609L474.495 536.994L473.617 536.379L472.754 535.748C472.159 535.302 471.579 534.841 470.999 534.348L470.299 533.764C469.734 533.272 469.183 532.759 468.648 532.226L467.874 531.472C467.07 530.657 466.297 529.796 465.553 528.919L464.958 528.197C464.526 527.658 464.109 527.135 463.693 526.566V526.489C463.291 525.936 462.889 525.367 462.517 524.782L461.982 523.983L461.729 523.567C461.55 523.275 461.372 522.983 461.208 522.691L461.119 522.552C460.925 522.229 460.732 521.876 460.553 521.537C460.375 521.199 460.137 520.784 459.958 520.399C459.779 520.015 459.556 519.646 459.378 519.261C459.199 518.877 459.095 518.646 458.946 518.323C458.797 518 458.768 517.923 458.693 517.723C458.559 517.448 458.44 517.166 458.336 516.877L457.845 515.662C454.78 504.526 455.979 492.598 461.193 482.35C466.406 472.102 475.235 464.321 485.848 460.619C488.592 459.653 491.424 458.978 494.3 458.604C495.737 458.42 497.182 458.312 498.63 458.281C504.426 458.124 510.194 459.17 515.593 461.357C516.753 461.818 517.884 462.341 519 462.895C527.757 467.355 534.81 474.726 539.028 483.827C539.504 484.842 539.936 485.872 540.338 486.902C543.413 498.047 542.216 509.988 536.996 520.244C531.775 530.501 522.932 538.284 512.304 541.977Z" fill="black"/>
</g>
<g opacity="0.6">
<path d="M512.036 521.522L514.343 528.612L505.638 531.688L503.436 524.921C497.811 526.634 491.882 526.997 486.101 525.982L487.217 513.355C492.408 514.435 497.779 514.133 502.826 512.479C506.962 511.048 508.153 509.633 507.662 508.095C505.831 502.482 483.393 515.324 477.977 498.668C475.626 491.455 478.706 483.626 488.393 478.674L486.131 471.707L494.835 468.631L497.067 475.475C501.558 474.287 506.238 474.062 510.816 474.814L509.983 487.256C505.603 486.465 501.104 486.765 496.859 488.133C492.589 489.671 491.651 491.362 492.142 492.885C493.898 498.252 516.351 485.472 521.708 501.944C523.925 508.849 521.053 516.539 512.036 521.522Z" fill="black"/>
</g>
<path d="M511.025 519.261L513.331 526.351L504.612 529.427L502.409 522.66C496.784 524.369 490.854 524.727 485.075 523.706L486.205 511.094C491.392 512.16 496.755 511.858 501.799 510.218C505.951 508.772 507.141 507.357 506.635 505.835C504.805 500.206 482.367 513.063 476.95 496.392C474.599 489.179 477.694 481.35 487.366 476.398L485.075 469.354L493.794 466.278L496.011 473.107C500.503 471.926 505.181 471.701 509.76 472.446L508.927 484.903C504.548 484.116 500.05 484.411 495.803 485.764C491.532 487.302 490.595 488.994 491.101 490.532C492.842 495.899 515.295 483.104 520.652 499.591C522.899 506.527 520.042 514.201 511.025 519.261Z" fill="#648C5A"/>
<path d="M253.757 248.673C251.902 256.889 248.287 264.571 243.177 271.151C238.067 277.731 231.593 283.041 224.232 286.69C216.872 290.339 208.813 292.233 200.65 292.233C192.487 292.234 184.428 290.339 177.067 286.691C172.651 284.507 168.546 281.707 164.866 278.371C161.637 275.442 158.751 272.134 156.266 268.512C155.507 267.405 154.778 266.267 154.123 265.113C151.132 260.012 148.942 254.452 147.635 248.642C147.383 247.488 147.159 246.35 146.966 245.181C145.792 237.891 146.025 230.432 147.65 223.235C147.799 222.558 147.963 221.881 148.156 221.22C150.45 212.489 154.744 204.457 160.675 197.804C166.607 191.152 174.001 186.073 182.233 182.998C190.465 179.924 199.293 178.944 207.968 180.141C216.644 181.338 224.914 184.677 232.077 189.876C233.148 190.661 234.19 191.414 235.202 192.337C239.613 196.058 243.43 200.475 246.51 205.425C247.18 206.502 247.835 207.609 248.43 208.732C252.859 217.021 255.198 226.33 255.23 235.8C255.224 239.413 254.89 243.017 254.233 246.566C254.039 247.304 253.906 247.996 253.757 248.673Z" fill="#648C5A"/>
<path d="M253.757 248.673C251.902 256.889 248.287 264.571 243.177 271.151C238.067 277.731 231.593 283.041 224.232 286.69C216.872 290.339 208.813 292.233 200.65 292.233C192.487 292.234 184.428 290.339 177.067 286.691C172.651 284.507 168.546 281.707 164.866 278.371C161.637 275.442 158.751 272.134 156.266 268.512C155.507 267.405 154.778 266.267 154.123 265.113C151.132 260.012 148.942 254.452 147.635 248.642C147.383 247.488 147.159 246.35 146.966 245.181C145.792 237.891 146.025 230.432 147.65 223.235C147.799 222.558 147.963 221.881 148.156 221.22C150.45 212.489 154.744 204.457 160.675 197.804C166.607 191.152 174.001 186.073 182.233 182.998C190.465 179.924 199.293 178.944 207.968 180.141C216.644 181.338 224.914 184.677 232.077 189.876C233.148 190.661 234.19 191.414 235.202 192.337C239.613 196.058 243.43 200.475 246.51 205.425C247.18 206.502 247.835 207.609 248.43 208.732C252.859 217.021 255.198 226.33 255.23 235.8C255.224 239.413 254.89 243.017 254.233 246.566C254.039 247.304 253.906 247.996 253.757 248.673Z" fill="#648C5A"/>
<path opacity="0.6" d="M242.612 248.119C242.805 247.012 242.969 245.889 243.073 244.766C244.082 234.729 241.797 224.632 236.586 216.099C235.931 215.002 235.232 213.94 234.488 212.915C231.005 208.119 226.629 204.092 221.617 201.073C220.367 200.319 219.08 199.631 217.763 199.012C212.044 196.315 205.829 194.931 199.543 194.953C193.258 194.976 187.051 196.404 181.351 199.141C175.65 201.879 170.591 205.859 166.52 210.809C162.449 215.759 159.464 221.562 157.769 227.818C157.902 227.141 158.036 226.464 158.185 225.788C161.077 214.474 168.118 204.768 177.815 198.729C187.512 192.689 199.104 190.79 210.133 193.434C221.162 196.078 230.761 203.057 236.897 212.892C243.032 222.727 245.221 234.645 242.999 246.12C242.954 246.796 242.776 247.473 242.612 248.119Z" fill="black"/>
<g opacity="0.3">
<path d="M190.83 279.801C190.324 279.693 189.833 279.555 189.342 279.416L187.854 278.97L187.482 278.847L185.89 278.294L185.667 278.201C183.972 277.56 182.317 276.81 180.712 275.956C180.177 275.664 179.641 275.372 179.12 275.049C178.064 274.433 177.052 273.787 176.144 273.08L175.207 272.388L174.686 271.988L173.957 271.404C173.585 271.111 173.213 270.804 172.841 270.465C172.469 270.127 171.904 269.65 171.457 269.204C171.011 268.758 170.55 268.343 170.118 267.897C169.687 267.451 169.419 267.159 169.076 266.774C168.734 266.39 168.615 266.282 168.407 266.021C168.199 265.759 168.05 265.606 167.871 265.406L167.276 264.667L166.339 263.452C166.071 263.099 165.803 262.745 165.565 262.376L165.386 262.13C165.029 261.607 164.672 261.069 164.33 260.592C163.988 260.115 163.705 259.577 163.407 259.054V258.977C163.229 258.669 163.05 258.346 162.887 258.023C162.723 257.7 162.544 257.377 162.381 257.054L161.904 256.116C161.756 255.778 161.577 255.44 161.428 255.101L160.997 254.086C160.848 253.763 160.714 253.425 160.58 253.087C160.297 252.394 160.045 251.687 159.792 250.949L159.494 250.072C159.256 249.349 159.048 248.611 158.869 247.888C158.765 247.519 158.676 247.165 158.586 246.812C158.319 245.674 158.095 244.536 157.902 243.382L157.768 242.459C157.664 241.767 157.589 241.075 157.515 240.383V240.275C157.515 239.583 157.396 238.876 157.366 238.184V237.215V236.63C157.366 236.292 157.366 235.938 157.366 235.6V235.446C157.366 235.046 157.366 234.662 157.366 234.262C157.366 233.862 157.366 233.401 157.366 232.97C157.366 232.539 157.366 232.109 157.455 231.694C157.545 231.278 157.455 231.001 157.575 230.663C157.694 230.325 157.575 230.217 157.575 230.002C157.575 229.786 157.649 229.402 157.694 229.094C157.738 228.787 157.827 228.233 157.902 227.803C159.597 221.546 162.583 215.744 166.653 210.794C170.724 205.844 175.784 201.863 181.484 199.126C187.185 196.389 193.391 194.96 199.677 194.938C205.962 194.916 212.178 196.3 217.896 198.997C219.214 199.616 220.5 200.304 221.75 201.057C226.762 204.077 231.139 208.104 234.621 212.9C235.365 213.925 236.064 214.986 236.719 216.083C241.909 224.625 244.173 234.72 243.147 244.751C243.043 245.874 242.879 246.996 242.686 248.104C239.647 259.267 232.562 268.791 222.904 274.694C213.247 280.597 201.759 282.426 190.83 279.801Z" fill="black"/>
</g>
<g opacity="0.6">
<path d="M200.993 262.253L199.357 269.527L190.459 267.39L191.947 260.438C186.303 258.866 181.082 255.984 176.68 252.01L184.031 241.875C187.905 245.598 192.631 248.244 197.765 249.565C202.02 250.595 203.716 250.041 204.103 248.457C205.398 242.69 179.775 241.46 183.614 224.327C185.281 216.914 191.887 211.931 202.63 212.915L204.237 205.748L213.165 207.901L211.588 214.93C216.012 216.356 220.108 218.7 223.625 221.82L216.602 231.955C213.267 228.918 209.285 226.736 204.981 225.588C200.607 224.527 198.91 225.511 198.553 227.126C197.318 232.647 222.926 233.939 219.132 250.872C217.569 257.854 211.29 262.776 200.993 262.253Z" fill="black"/>
</g>
<path d="M201.276 259.7L199.64 266.99L190.712 264.837L192.2 257.885C186.545 256.293 181.317 253.384 176.918 249.38L184.269 239.245C188.143 242.969 192.869 245.614 198.003 246.935C202.258 247.95 203.955 247.396 204.342 245.827C205.636 240.045 180.013 238.814 183.852 221.681C185.519 214.268 192.125 209.285 202.868 210.27L204.475 203.118L213.403 205.256L211.826 212.285C216.25 213.71 220.347 216.055 223.864 219.175L216.84 229.325C213.51 226.277 209.527 224.089 205.219 222.943C200.845 221.897 199.149 222.943 198.791 224.481C197.556 229.986 223.164 231.278 219.37 248.211C217.852 255.363 211.514 260.346 201.276 259.7Z" fill="#648C5A"/>
<path d="M625.092 426.845L641.132 443.424L536.275 551.804H563.654L654.821 457.574L671.397 474.691L678.063 419.955L625.092 426.845Z" fill="#648C5A"/>
<g opacity="0.3">
<path d="M625.092 426.845L641.132 443.424L536.275 551.804H563.654L654.821 457.574L671.397 474.691L678.063 419.955L625.092 426.845Z" fill="#FF8B7B"/>
</g>
<path d="M222.643 378.215L238.684 394.809L86.7778 551.804H114.141L252.373 408.959L268.949 426.076L275.615 371.325L222.643 378.215Z" fill="#648C5A"/>
<g opacity="0.3">
<path d="M222.643 378.215L238.684 394.809L86.7778 551.804H114.141L252.373 408.959L268.949 426.076L275.615 371.325L222.643 378.215Z" fill="#FF8B7B"/>
</g>
<path d="M286.879 85.4029L291.209 84.1264L288.441 74.1911L283.442 75.7291C282.01 74.0539 280.215 72.7522 278.204 71.9304V66.7013H268.205V71.9304C266.636 72.5731 265.194 73.506 263.949 74.6833L259.485 72.4686L255.111 81.6964L259.5 83.911C259.5 84.2802 259.5 84.6646 259.5 85.0337C259.501 87.4514 260.1 89.8287 261.241 91.9392L257.953 96.1993L265.765 102.643L268.964 98.5063C270.334 98.9651 271.765 99.1986 273.204 99.1984C274.257 99.1964 275.306 99.0674 276.329 98.8139L279.216 103.012L287.37 97.0298L284.558 92.9389C286.015 90.709 286.82 88.093 286.879 85.4029ZM264.202 85.0337C264.202 83.212 264.724 81.431 265.702 79.9152C266.68 78.3994 268.07 77.2167 269.697 76.516C271.324 75.8154 273.115 75.6282 274.845 75.9781C276.574 76.328 278.165 77.1992 279.417 78.4821C280.668 79.7649 281.524 81.4019 281.877 83.1868C282.23 84.9718 282.064 86.8247 281.399 88.5121C280.735 90.1995 279.602 91.646 278.144 92.6691C276.686 93.6923 274.967 94.2463 273.204 94.2615C270.831 94.2576 268.555 93.2865 266.869 91.559C265.184 89.8315 264.226 87.4869 264.202 85.0337Z" fill="#648C5A"/>
<path opacity="0.6" d="M286.879 85.4029L291.209 84.1264L288.441 74.1911L283.442 75.7291C282.01 74.0539 280.215 72.7522 278.204 71.9304V66.7013H268.205V71.9304C266.636 72.5731 265.194 73.506 263.949 74.6833L259.485 72.4686L255.111 81.6964L259.5 83.911C259.5 84.2802 259.5 84.6646 259.5 85.0337C259.501 87.4514 260.1 89.8287 261.241 91.9392L257.953 96.1993L265.765 102.643L268.964 98.5063C270.334 98.9651 271.765 99.1986 273.204 99.1984C274.257 99.1964 275.306 99.0674 276.329 98.8139L279.216 103.012L287.37 97.0298L284.558 92.9389C286.015 90.709 286.82 88.093 286.879 85.4029ZM264.202 85.0337C264.202 83.212 264.724 81.431 265.702 79.9152C266.68 78.3994 268.07 77.2167 269.697 76.516C271.324 75.8154 273.115 75.6282 274.845 75.9781C276.574 76.328 278.165 77.1992 279.417 78.4821C280.668 79.7649 281.524 81.4019 281.877 83.1868C282.23 84.9718 282.064 86.8247 281.399 88.5121C280.735 90.1995 279.602 91.646 278.144 92.6691C276.686 93.6923 274.967 94.2463 273.204 94.2615C270.831 94.2576 268.555 93.2865 266.869 91.559C265.184 89.8315 264.226 87.4869 264.202 85.0337Z" fill="#FF8B7B"/>
<path d="M502.305 280.062L506.62 278.786L503.868 268.927L498.868 270.465C497.436 268.79 495.642 267.489 493.63 266.667V261.238H483.587V266.467C482.016 267.106 480.574 268.039 479.331 269.22L474.867 267.005L470.493 276.233L474.957 278.447C474.957 278.817 474.957 279.186 474.957 279.57C474.95 281.989 475.55 284.368 476.697 286.476L473.394 290.736L481.221 297.18L484.42 293.043C485.79 293.501 487.221 293.735 488.661 293.735C489.713 293.732 490.762 293.603 491.785 293.35L494.672 297.549L502.826 291.566L499.954 287.583C501.419 285.361 502.235 282.75 502.305 280.062ZM479.629 279.693C479.643 277.875 480.178 276.101 481.164 274.596C482.151 273.09 483.546 271.919 485.174 271.23C486.802 270.541 488.591 270.365 490.316 270.724C492.041 271.082 493.625 271.96 494.869 273.245C496.113 274.531 496.962 276.168 497.309 277.951C497.656 279.734 497.485 281.583 496.819 283.266C496.152 284.949 495.019 286.391 493.563 287.411C492.106 288.43 490.39 288.983 488.631 288.998C487.446 289.008 486.271 288.774 485.174 288.31C484.078 287.846 483.081 287.161 482.243 286.295C481.405 285.429 480.743 284.4 480.294 283.266C479.845 282.132 479.619 280.918 479.629 279.693Z" fill="#648C5A"/>
<path opacity="0.6" d="M502.305 280.062L506.62 278.786L503.868 268.927L498.868 270.465C497.436 268.79 495.642 267.489 493.63 266.667V261.238H483.587V266.467C482.016 267.106 480.574 268.039 479.331 269.22L474.867 267.005L470.493 276.233L474.957 278.447C474.957 278.817 474.957 279.186 474.957 279.57C474.95 281.989 475.55 284.368 476.697 286.476L473.394 290.736L481.221 297.18L484.42 293.043C485.79 293.501 487.221 293.735 488.661 293.735C489.713 293.732 490.762 293.603 491.785 293.35L494.672 297.549L502.826 291.566L499.954 287.583C501.419 285.361 502.235 282.75 502.305 280.062ZM479.629 279.693C479.643 277.875 480.178 276.101 481.164 274.596C482.151 273.09 483.546 271.919 485.174 271.23C486.802 270.541 488.591 270.365 490.316 270.724C492.041 271.082 493.625 271.96 494.869 273.245C496.113 274.531 496.962 276.168 497.309 277.951C497.656 279.734 497.485 281.583 496.819 283.266C496.152 284.949 495.019 286.391 493.563 287.411C492.106 288.43 490.39 288.983 488.631 288.998C487.446 289.008 486.271 288.774 485.174 288.31C484.078 287.846 483.081 287.161 482.243 286.295C481.405 285.429 480.743 284.4 480.294 283.266C479.845 282.132 479.619 280.918 479.629 279.693Z" fill="#FF8B7B"/>
<path d="M607.831 281.508L601.165 336.244L585.467 320.019L430.318 480.366H270.69L201.559 551.804H174.21L262.67 460.373H422.313L571.778 305.869L554.875 288.398L607.831 281.508Z" fill="#648C5A"/>
<path d="M390.53 426.615V449.484L399.458 450.222L403.832 428.814L390.53 426.615Z" fill="#FF8B7B"/>
<path d="M396.868 448.069C396.868 448.069 399.681 442.486 401.332 443.086C402.984 443.686 403.668 450.453 403.668 450.453C403.668 450.453 412.596 453.529 415.185 453.729C417.774 453.928 419.738 455.359 420.066 460.449H389.31C389.31 460.449 389.518 448.976 389.577 447.008C389.637 445.039 392.345 447.5 392.345 447.5L396.868 448.069Z" fill="#263238"/>
<path d="M389.652 451.36C390.206 451.673 390.691 452.1 391.078 452.615C391.466 453.129 391.747 453.721 391.905 454.352C392.062 454.983 392.093 455.641 391.995 456.285C391.896 456.93 391.671 457.546 391.334 458.097C391.314 458.124 391.3 458.155 391.293 458.188C391.285 458.221 391.285 458.255 391.291 458.289C391.297 458.322 391.309 458.354 391.328 458.382C391.346 458.41 391.37 458.433 391.398 458.451C391.426 458.47 391.457 458.481 391.489 458.487C391.522 458.492 391.555 458.49 391.586 458.481C391.618 458.472 391.648 458.457 391.673 458.436C391.699 458.414 391.72 458.388 391.735 458.358C392.108 457.758 392.359 457.085 392.471 456.381C392.584 455.678 392.557 454.958 392.391 454.265C392.225 453.573 391.925 452.922 391.507 452.354C391.09 451.786 390.565 451.312 389.965 450.96C389.712 450.807 389.414 451.237 389.667 451.391L389.652 451.36Z" fill="#FF8B7B"/>
<path d="M389.607 458.619L413.727 458.881H419.337C419.649 458.881 419.724 458.373 419.411 458.373L395.276 458.112H389.667C389.354 458.112 389.295 458.619 389.667 458.619H389.607Z" fill="#FF8B7B"/>
<path d="M402.344 452.452C402.576 452.084 402.878 451.768 403.232 451.525C403.586 451.282 403.984 451.116 404.402 451.038C404.821 450.96 405.25 450.972 405.664 451.072C406.078 451.173 406.467 451.36 406.808 451.622C407.031 451.822 407.329 451.376 407.106 451.191C405.529 449.853 403.371 450.422 401.928 452.191C401.719 452.452 402.106 452.714 402.33 452.452H402.344Z" fill="#FF8B7B"/>
<path d="M404.889 453.267C405.123 452.902 405.426 452.589 405.781 452.349C406.136 452.108 406.534 451.945 406.951 451.869C407.369 451.792 407.797 451.805 408.21 451.905C408.623 452.005 409.012 452.191 409.353 452.452C409.591 452.652 409.888 452.206 409.65 452.021C408.073 450.668 405.916 451.252 404.472 453.021C404.264 453.283 404.651 453.529 404.874 453.267H404.889Z" fill="#FF8B7B"/>
<path d="M407.523 454.098C407.757 453.732 408.06 453.42 408.415 453.179C408.769 452.939 409.167 452.775 409.585 452.699C410.003 452.623 410.431 452.635 410.844 452.736C411.257 452.836 411.645 453.022 411.986 453.283C412.225 453.467 412.522 453.037 412.284 452.837C410.707 451.499 408.549 452.083 407.121 453.852C406.898 454.113 407.284 454.359 407.508 454.098H407.523Z" fill="#FF8B7B"/>
<path d="M385.159 199.965C385.412 204.041 384.876 216.575 385.412 223.296C386.409 236.123 387.763 252.748 388.834 269.435C390.084 288.721 390.977 308.022 390.53 321.433C389.384 355.838 389.637 433.827 389.637 433.827H404.086C404.086 433.827 421.048 356.314 424.218 321.433C426.866 292.504 425.468 217.99 425.021 199.935L385.159 199.965Z" fill="#263238"/>
<path opacity="0.2" d="M385.381 223.296C386.378 236.123 387.732 252.748 388.804 269.435C395.916 247.688 389.31 214.822 389.31 214.822L385.381 223.296Z" fill="black"/>
<path d="M388.388 434.32H405.336L406.571 428.737L387.941 428.506L388.388 434.32Z" fill="#648C5A"/>
<path d="M310.79 422.354L307.413 444.947L316.132 447.085L323.616 426.614L310.79 422.354Z" fill="#FF8B7B"/>
<path d="M313.96 444.547C313.96 444.547 317.561 439.487 319.108 440.333C320.656 441.179 320.328 448.023 320.328 448.023C320.328 448.023 328.765 452.514 331.235 453.083C333.705 453.652 335.491 455.421 335.059 460.496L304.66 455.636C304.66 455.636 306.565 444.332 306.907 442.394C307.249 440.456 309.57 443.317 309.57 443.317L313.96 444.547Z" fill="#263238"/>
<path d="M306.267 446.669C306.762 447.067 307.174 447.564 307.476 448.132C307.779 448.699 307.967 449.324 308.028 449.969C308.09 450.614 308.023 451.265 307.833 451.882C307.642 452.499 307.332 453.07 306.922 453.56C306.728 453.821 307.07 454.144 307.279 453.867C307.737 453.334 308.085 452.71 308.301 452.033C308.517 451.356 308.596 450.64 308.535 449.93C308.474 449.22 308.273 448.53 307.944 447.903C307.615 447.277 307.166 446.726 306.624 446.285C306.401 446.085 306.044 446.47 306.267 446.669Z" fill="#FF8B7B"/>
<path d="M305.151 453.836L328.958 457.897L334.494 458.835C334.806 458.835 334.94 458.404 334.627 458.358L310.82 454.282L305.285 453.344C304.972 453.344 304.839 453.775 305.151 453.836Z" fill="#FF8B7B"/>
<path d="M318.647 449.745C318.932 449.417 319.279 449.153 319.667 448.968C320.054 448.784 320.474 448.684 320.901 448.674C321.327 448.664 321.752 448.744 322.147 448.91C322.542 449.076 322.901 449.323 323.2 449.638C323.393 449.868 323.751 449.484 323.557 449.253C323.204 448.9 322.786 448.624 322.327 448.441C321.869 448.258 321.38 448.172 320.889 448.188C320.398 448.204 319.915 448.321 319.468 448.533C319.022 448.745 318.621 449.047 318.29 449.422C318.037 449.653 318.394 449.976 318.647 449.745Z" fill="#FF8B7B"/>
<path d="M321.042 450.96C321.327 450.632 321.674 450.368 322.062 450.183C322.45 449.999 322.87 449.899 323.296 449.889C323.723 449.879 324.147 449.959 324.542 450.125C324.938 450.29 325.296 450.538 325.595 450.853C325.789 451.083 326.146 450.699 325.953 450.468C324.584 448.93 322.367 449.13 320.685 450.653C320.432 450.883 320.789 451.191 321.042 450.96Z" fill="#FF8B7B"/>
<path d="M323.513 452.191C323.8 451.863 324.149 451.6 324.538 451.416C324.928 451.233 325.349 451.134 325.777 451.126C326.205 451.117 326.63 451.199 327.026 451.366C327.422 451.533 327.781 451.783 328.081 452.098C328.274 452.314 328.631 451.929 328.438 451.714C327.069 450.176 324.852 450.36 323.17 451.883C322.917 452.114 323.274 452.421 323.513 452.191Z" fill="#FF8B7B"/>
<path d="M361.649 324.417C352.721 358.252 322.724 431.305 322.724 431.305L308.484 428.752C308.484 428.752 323.364 352.685 330.149 319.003C336.309 288.598 343.079 218.759 345.267 197.966L393.03 202.411C390.486 220.22 369.059 296.38 361.649 324.417Z" fill="#263238"/>
<path d="M307.16 429.044L323.869 432.059L326.012 426.768L307.413 423.262L307.16 429.044Z" fill="#648C5A"/>
<path d="M342.484 197.966C342.29 200.135 346.576 205.01 348.674 205.102L422.819 206.44C425.051 206.548 427.67 204.902 427.595 202.657C426.836 175.481 420.706 82.004 418.667 76.1136C416.123 68.8698 402.017 66.2553 395.857 65.6862C386.127 65.0076 376.364 65.0076 366.633 65.6862C361.887 65.9169 357.557 66.3475 353.956 66.8089C352.661 66.9737 351.412 67.4067 350.283 68.0821C349.153 68.7575 348.167 69.6614 347.384 70.7397C346.601 71.8179 346.036 73.0485 345.723 74.3576C345.41 75.6668 345.356 77.0277 345.564 78.359C347.164 88.76 348.207 99.2443 348.689 109.764C348.689 110.287 348.689 110.779 348.689 111.302C348.852 114.839 349.016 118.331 349.031 121.791C349.031 122.468 349.031 123.175 349.031 123.852C348.763 158.963 344.344 176.204 342.484 197.966Z" fill="#FF8B7B"/>
<path d="M371.99 206.794C362.08 207.425 335.847 206.794 335.847 202.519C335.847 195.382 345.281 146.029 346.174 136.156C346.308 134.618 346.441 132.603 346.59 130.158C346.843 125.544 347.096 119.715 347.334 113.378C348.063 93.631 348.658 69.6389 348.658 69.6389C348.658 69.6389 349.239 64.2099 372.302 65.3633C372.302 65.3633 378.046 94.3385 378.254 119.838C378.462 145.337 375.367 206.579 371.99 206.794Z" fill="#648C5A"/>
<path d="M395.797 65.6863C395.797 65.6863 405.96 93.4772 404.844 135.571C403.728 177.665 403.222 208.317 403.222 208.317C403.222 208.317 427.565 209.855 429.693 206.117C430.839 204.072 428.027 167.361 426.42 145.845C424.589 121.345 420.914 81.112 419.53 76.2828C417.179 67.9317 395.797 65.6863 395.797 65.6863Z" fill="#648C5A"/>
<path d="M516.441 58.7962C509.299 65.2864 502.008 71.5151 494.464 77.5132C490.714 80.5891 486.875 83.4497 482.962 86.3564C480.998 87.8021 479.004 89.2016 476.936 90.6166C474.868 92.0315 472.785 93.4003 470.166 94.7998C468.556 95.6694 466.853 96.3405 465.092 96.7992C463.525 97.1844 461.934 97.4568 460.33 97.6143C457.591 97.8884 454.837 97.9757 452.087 97.8757C447.054 97.647 442.037 97.1336 437.059 96.3378C432.848 95.7072 428.726 94.9382 424.634 94.0616L421.792 93.431C417.328 92.4314 412.983 91.2779 408.549 89.986L412.924 69.9925C417.468 71.6646 422.136 72.9555 426.881 73.8528C431.345 74.8833 435.809 75.8522 440.198 76.698C444.588 77.5439 448.992 78.236 453.158 78.682C455.101 78.8941 457.053 78.9917 459.006 78.9742C459.747 78.9595 460.488 78.9031 461.223 78.805C461.737 78.7404 462.239 78.5952 462.711 78.3744C464.363 77.6977 466.386 76.6519 468.335 75.6061C470.285 74.5603 472.308 73.376 474.287 72.238C478.32 69.9618 482.337 67.5164 486.384 65.1326C494.449 60.288 502.618 55.4281 510.787 50.6604L516.441 58.7962Z" fill="#648C5A"/>
<path opacity="0.2" d="M424.634 94.1232L421.792 93.4926L420.304 82.5731L424.634 94.1232Z" fill="black"/>
<path d="M527.958 39.7717C527.958 39.7717 529.282 44.2933 528.3 46.6925C527.318 49.0918 522.676 50.2914 522.676 50.2914C522.676 50.2914 525.25 42.8476 527.958 39.7717Z" fill="#FF8B7B"/>
<path opacity="0.2" d="M527.958 39.7717C527.958 39.7717 529.282 44.2933 528.3 46.6925C527.318 49.0918 522.676 50.2914 522.676 50.2914C522.676 50.2914 525.25 42.8476 527.958 39.7717Z" fill="black"/>
<path d="M527.467 44.0165C525.769 45.6393 524.364 47.5608 523.316 49.6915C525.518 50.4451 529.089 48.5996 529.893 49.5224C530.696 50.4451 528.405 52.0139 524.819 53.8594C522.929 54.7976 522.274 57.0276 519.76 57.935C518.678 58.326 517.569 58.6294 516.441 58.8424C513.674 57.7658 510.683 50.722 510.683 50.722L517.29 45.5083C517.29 45.5083 523.375 40.7252 525.95 39.7717C528.524 38.8182 535.234 34.2966 535.696 35.45C536.35 37.0649 531.782 40.7252 527.467 44.0165Z" fill="#FF8B7B"/>
<path opacity="0.2" d="M359.774 96.4454L346.605 130.157C346.858 125.544 347.111 119.715 347.349 113.378L359.774 96.4454Z" fill="black"/>
<path d="M396.675 13.0727C393.98 12.3606 391.171 12.2293 388.425 12.6871C385.678 13.1448 383.052 14.1817 380.709 15.7334C377.644 17.8097 375.085 20.7779 375.546 24.7612C376.807 33.056 378.515 41.2713 380.665 49.3686L409.71 31.0515C409.71 31.0515 414.04 25.5763 407.299 18.2864C405.127 15.9949 400.708 14.1032 396.675 13.0727Z" fill="#263238"/>
<path d="M393.967 70.9922C393.547 69.0706 393.446 67.0891 393.669 65.1326L395.083 59.7651V59.6575L386.646 50.1221L380.843 43.5243C381.17 50.4605 379.132 58.9039 376.707 66.1323C377.138 69.3466 391.765 77.9592 393.967 70.9922Z" fill="#FF8B7B"/>
<g opacity="0.2">
<path d="M395.083 59.7651L393.67 65.1326C390.47 63.5946 387.137 60.3034 386.393 56.7661C385.873 54.2131 387.004 51.8446 388 51.7216L395.083 59.7651Z" fill="black"/>
</g>
<path d="M408.147 48.6149C407.835 49.7837 407.478 50.9218 407.106 52.0599C403.803 62.0567 391.839 62.8256 384.444 55.4281C383.779 54.7521 383.163 54.0274 382.599 53.2595C377.912 46.7847 379.132 41.8479 379.936 30.6362C380.106 28.0347 380.914 25.5207 382.283 23.3305C383.652 21.1402 385.537 19.3457 387.761 18.1154C389.985 16.8852 392.476 16.2597 394.998 16.2977C397.52 16.3356 399.992 17.0358 402.181 18.3325C411.198 23.6692 411.272 36.9418 408.147 48.6149Z" fill="#FF8B7B"/>
<path d="M388.045 23.3924C388.045 23.3924 398.55 31.5282 410.751 27.8217C416.941 25.9454 415.899 12.8266 411.034 10.289C407.061 8.21277 403.832 13.2573 403.832 13.2573C399.851 11.0059 395.323 9.99621 390.798 10.3505C382.614 10.7196 379.221 15.595 379.221 15.595C377.99 15.5626 376.784 15.9568 375.794 16.7149C374.805 17.4729 374.089 18.5512 373.76 19.7782C372.659 23.6385 376.736 31.0053 376.736 31.0053L388.045 23.3924Z" fill="#263238"/>
<path d="M397.285 36.5574C397.166 37.434 397.523 38.203 398.074 38.2799C398.624 38.3568 399.175 37.7108 399.294 36.8342C399.413 35.9576 399.056 35.1886 398.49 35.1117C397.925 35.0348 397.404 35.6807 397.285 36.5574Z" fill="#263238"/>
<path d="M401.288 50.5373H401.586C401.67 50.5258 401.747 50.4808 401.799 50.4119C401.852 50.343 401.877 50.2556 401.868 50.1682C401.865 50.1243 401.853 50.0815 401.832 50.0427C401.812 50.0038 401.784 49.9697 401.751 49.9423C401.718 49.9149 401.679 49.8949 401.638 49.8835C401.597 49.8721 401.553 49.8695 401.511 49.876C400.882 49.9327 400.248 49.8569 399.648 49.6532C399.048 49.4495 398.494 49.1221 398.02 48.6908C397.545 48.2595 397.161 47.7333 396.889 47.144C396.617 46.5547 396.463 45.9145 396.437 45.2621C396.434 45.2182 396.421 45.1754 396.401 45.1366C396.381 45.0977 396.353 45.0636 396.32 45.0362C396.286 45.0088 396.248 44.9888 396.207 44.9774C396.166 44.966 396.122 44.9635 396.08 44.9699C395.996 44.9815 395.919 45.0264 395.867 45.0953C395.814 45.1642 395.789 45.2516 395.798 45.339C395.875 46.775 396.492 48.1229 397.518 49.0944C398.544 50.0658 399.897 50.5837 401.288 50.5373Z" fill="#263238"/>
<path d="M379.772 31.6512C379.772 31.6512 383.046 31.8358 383.165 34.7271C383.284 37.6185 383.001 38.003 383.001 38.003L386.974 38.2952C386.974 38.2952 384.742 29.6365 387.554 29.7903C390.366 29.9441 386.26 23.5616 390.143 22.4235C394.295 21.2085 405.023 20.7009 409.204 27.4987C408.416 23.3868 406.198 19.7157 402.969 17.179C397.821 13.5494 387.435 12.7343 383.209 17.9941C378.984 23.254 379.772 31.6512 379.772 31.6512Z" fill="#263238"/>
<path d="M374.311 37.3724C374.724 40.1736 376.189 42.6935 378.388 44.3855C381.364 46.5848 384.042 44.1856 384.34 40.6329C384.548 37.4493 383.283 32.4663 379.876 31.6666C379.119 31.5078 378.336 31.5464 377.598 31.7791C376.859 32.0117 376.189 32.431 375.647 32.999C375.105 33.567 374.708 34.2658 374.493 35.0321C374.278 35.7984 374.251 36.6081 374.415 37.3878" fill="#FF8B7B"/>
<path d="M406.02 37.6031C405.901 38.4798 406.258 39.2487 406.809 39.3256C407.359 39.4025 407.91 38.7566 408.029 37.88C408.148 37.0033 407.776 36.2344 407.225 36.1575C406.675 36.0806 406.124 36.7265 406.02 37.6031Z" fill="#263238"/>
<path d="M409.189 35.4654C409.117 35.4484 409.051 35.4126 408.996 35.3614C408.941 35.3103 408.9 35.2455 408.876 35.1732C408.816 34.8503 408.687 34.5451 408.499 34.2793C408.311 34.0136 408.069 33.7937 407.79 33.6353C407.231 33.385 406.604 33.3469 406.02 33.5276C405.966 33.547 405.909 33.5552 405.852 33.5518C405.795 33.5483 405.74 33.5333 405.689 33.5076C405.637 33.4819 405.592 33.4459 405.554 33.4018C405.516 33.3578 405.487 33.3064 405.469 33.2508C405.435 33.1385 405.444 33.0171 405.494 32.9113C405.543 32.8055 405.63 32.7234 405.737 32.6817C406.541 32.4236 407.409 32.4783 408.177 32.8355C408.543 33.044 408.863 33.3275 409.119 33.6687C409.375 34.0098 409.561 34.4015 409.665 34.8195C409.683 34.875 409.69 34.9337 409.686 34.9921C409.682 35.0506 409.666 35.1074 409.639 35.1593C409.613 35.2111 409.576 35.2568 409.532 35.2936C409.488 35.3304 409.437 35.3574 409.382 35.3731C409.328 35.422 409.261 35.454 409.189 35.4654Z" fill="#263238"/>
<path d="M395.038 34.0658C394.98 34.0797 394.919 34.0797 394.86 34.0658C394.807 34.0441 394.759 34.0115 394.719 33.9698C394.678 33.9281 394.647 33.8784 394.626 33.8236C394.605 33.7688 394.595 33.7102 394.597 33.6513C394.599 33.5925 394.612 33.5346 394.637 33.4814C394.999 32.6979 395.622 32.0755 396.392 31.7281C396.792 31.5905 397.214 31.5387 397.634 31.5757C398.054 31.6127 398.462 31.7379 398.833 31.9434C398.885 31.9682 398.932 32.0035 398.971 32.0472C399.009 32.0909 399.039 32.1422 399.059 32.1981C399.078 32.254 399.087 32.3133 399.084 32.3725C399.081 32.4318 399.066 32.4898 399.041 32.5433C399.016 32.5959 398.981 32.6428 398.938 32.6813C398.895 32.7199 398.845 32.7493 398.791 32.7679C398.737 32.7864 398.68 32.7938 398.624 32.7896C398.567 32.7854 398.512 32.7696 398.461 32.7432C398.194 32.5941 397.901 32.5022 397.6 32.4731C397.298 32.444 396.993 32.4784 396.705 32.574C396.141 32.823 395.686 33.2773 395.425 33.8505C395.384 33.9178 395.327 33.973 395.259 34.0108C395.191 34.0485 395.115 34.0675 395.038 34.0658Z" fill="#263238"/>
<path d="M402.136 37.7416C403.165 40.1699 404.05 42.6609 404.785 45.2007C404.919 46.2465 401.734 46.2157 401.734 46.2157L402.136 37.7416Z" fill="#FF5652"/>
<path d="M346.323 72.0689C341.308 81.0813 336.592 90.2783 331.994 99.5214C329.673 104.135 327.426 108.749 325.149 113.363L321.801 120.284L320.135 123.667L319.302 125.313L318.915 126.082C318.815 126.277 318.726 126.477 318.647 126.682L318.424 127.235L318.26 127.666L317.992 128.481L317.784 129.204C317.278 131.019 317.01 132.449 316.742 133.895C316.474 135.34 316.266 136.694 316.058 138.063C315.656 140.785 315.314 143.43 315.031 146.091C314.451 151.397 313.945 156.641 313.543 161.901C312.769 172.405 312.219 182.863 312.055 193.414C312.037 194.859 312.533 196.26 313.448 197.353C314.362 198.446 315.633 199.154 317.019 199.344C318.405 199.533 319.81 199.191 320.969 198.381C322.127 197.572 322.958 196.352 323.304 194.952C325.729 184.847 327.932 174.666 330.149 164.577C331.294 159.548 332.366 154.503 333.526 149.551C334.122 147.075 334.687 144.614 335.297 142.246C335.595 141.046 335.907 139.877 336.234 138.786C336.503 137.815 336.821 136.86 337.187 135.925C337.211 135.856 337.241 135.789 337.276 135.725C337.276 135.725 337.276 135.617 337.276 135.633V135.74V135.894C337.227 136.01 337.173 136.123 337.112 136.233L337.261 135.986L337.559 135.51L338.139 134.572L340.192 131.142L344.165 124.421C346.754 119.915 349.343 115.424 351.843 110.902C356.887 101.859 361.783 92.7544 366.366 83.4498C367.52 80.7367 367.65 77.675 366.73 74.8678C365.809 72.0607 363.905 69.7117 361.392 68.2837C358.879 66.8557 355.94 66.4523 353.153 67.1529C350.367 67.8535 347.935 69.6074 346.338 72.0689H346.323Z" fill="#648C5A"/>
<path d="M299.378 222.789V213.146C299.378 212.987 299.439 212.834 299.548 212.722C299.656 212.609 299.804 212.546 299.958 212.546H305.032V211.008H299.973C299.42 211.008 298.89 211.235 298.5 211.639C298.109 212.042 297.89 212.59 297.89 213.161V222.789H299.378Z" fill="#263238"/>
<path d="M334.36 213.069V222.789H335.848V213.146C335.848 212.575 335.628 212.027 335.238 211.623C334.847 211.22 334.317 210.993 333.765 210.993H328.706V212.531H333.765C333.91 212.529 334.052 212.584 334.161 212.683C334.271 212.782 334.342 212.919 334.36 213.069Z" fill="#263238"/>
<path d="M355.697 226.787V275.387C355.697 276.472 355.28 277.512 354.538 278.28C353.796 279.047 352.789 279.478 351.739 279.478H283.874C282.825 279.474 281.821 279.042 281.079 278.275C280.338 277.509 279.919 276.471 279.916 275.387V226.787C279.919 225.705 280.338 224.668 281.08 223.905C281.822 223.141 282.826 222.712 283.874 222.712H351.739C352.258 222.71 352.773 222.814 353.253 223.018C353.733 223.222 354.169 223.521 354.537 223.9C354.905 224.279 355.197 224.729 355.396 225.224C355.595 225.72 355.697 226.251 355.697 226.787Z" fill="#263238"/>
<g opacity="0.5">
<path d="M355.697 226.787V275.387C355.697 276.472 355.28 277.512 354.538 278.28C353.796 279.047 352.789 279.478 351.739 279.478H283.874C282.825 279.474 281.821 279.042 281.079 278.275C280.338 277.509 279.919 276.471 279.916 275.387V226.787C279.919 225.705 280.338 224.668 281.08 223.905C281.822 223.141 282.826 222.712 283.874 222.712H351.739C352.258 222.71 352.773 222.814 353.253 223.018C353.733 223.222 354.169 223.521 354.537 223.9C354.905 224.279 355.197 224.729 355.396 225.224C355.595 225.72 355.697 226.251 355.697 226.787Z" fill="#FF8B7B"/>
</g>
<path d="M345.742 222.712H342.737V279.478H345.742V222.712Z" fill="#263238"/>
<path d="M292.89 222.712H289.884V279.478H292.89V222.712Z" fill="#263238"/>
<path d="M322.352 196.982C322.352 196.982 327.202 208.301 326.667 210.823C326.131 213.346 322.843 208.655 322.843 208.655L322.352 196.982Z" fill="#FF8B7B"/>
<path d="M330.268 209.101H302.934V214.284H330.268V209.101Z" fill="#263238"/>
<path opacity="0.3" d="M330.268 209.101H302.934V214.284H330.268V209.101Z" fill="#FF8B7B"/>
<path d="M312.382 195.259L308.603 206.794C307.844 210.085 318.141 214.899 322.113 212.054C325.253 209.824 322.545 196.444 322.545 196.444C321.071 195.41 319.375 194.762 317.605 194.556C315.835 194.35 314.042 194.591 312.382 195.259Z" fill="#FF8B7B"/>
<path d="M308.603 206.794C307.814 210.47 308.275 217.667 313.959 218.421C315.199 218.628 316.462 218.654 317.709 218.498C318.829 218.984 320.068 219.091 321.25 218.805C324.107 217.867 323.051 210.439 323.051 210.439L308.603 206.794Z" fill="#FF8B7B"/>
<path d="M378.462 60.5187C378.462 60.5187 370.368 58.7347 368.612 65.6863V88.648L373.269 94.6614L369.594 98.4448L369.49 127.958L378.09 131.034C378.269 122.821 379.578 108.088 377.584 86.2949C376.844 77.6984 377.139 69.0401 378.462 60.5187Z" fill="#648C5A"/>
<path opacity="0.3" d="M378.462 60.5187C378.462 60.5187 370.368 58.7347 368.612 65.6863V88.648L373.269 94.6614L369.594 98.4448L369.49 127.958L378.09 131.034C378.269 122.821 379.578 108.088 377.584 86.2949C376.844 77.6984 377.139 69.0401 378.462 60.5187Z" fill="black"/>
<path d="M393.669 65.1326C393.669 65.1326 397.464 69.1159 399.353 78.2206C401.243 87.3253 405.067 127.143 404.948 132.203L413.459 125.605L410.007 93.9847L404.963 90.755L409.204 85.003C409.204 85.003 405.305 70.4847 402.791 66.7782C400.276 63.0717 394.458 62.1643 394.458 62.1643L393.669 65.1326Z" fill="#648C5A"/>
<path opacity="0.3" d="M393.669 65.1326C393.669 65.1326 397.464 69.1159 399.353 78.2206C401.243 87.3253 405.067 127.143 404.948 132.203L413.459 125.605L410.007 93.9847L404.963 90.755L409.204 85.003C409.204 85.003 405.305 70.4847 402.791 66.7782C400.276 63.0717 394.458 62.1643 394.458 62.1643L393.669 65.1326Z" fill="black"/>
</svg>
