<svg width="34" height="34" viewBox="0 0 34 34" fill="none" xmlns="http://www.w3.org/2000/svg">
<path d="M0 24.7389V34H4.14742V21.8917L3.4937 21.2364L0 24.7389ZM6.07105 34H12.5678V27.2911C12.1385 27.489 11.6716 27.5915 11.1991 27.5917C10.7658 27.5929 10.3365 27.5079 9.93619 27.3417C9.53585 27.1754 9.17239 26.9311 8.86685 26.6231L6.07105 23.8207V34ZM20.9888 34V19.1674L14.4921 25.6805V34H20.9888ZM29.4092 34V10.7251L22.9125 17.2382V34H29.4092ZM0 15.395V21.8367L3.4937 18.3342L10.3143 25.172C10.4304 25.2885 10.5683 25.3808 10.7201 25.4439C10.8719 25.5069 11.0345 25.5393 11.1988 25.5393C11.3631 25.5393 11.5257 25.5069 11.6775 25.4439C11.8293 25.3808 11.9672 25.2885 12.0833 25.172L12.8176 24.4359C12.8553 24.4057 12.8949 24.3789 12.93 24.3439L29.8063 7.42479L32.4424 10.0674C33.0174 10.644 34 10.2358 34 9.42085V0.914747C34 0.672141 33.9039 0.439472 33.7327 0.267923C33.5616 0.0963749 33.3296 0 33.0876 0H24.6029C23.79 0 23.3828 0.985087 23.9579 1.56149L26.5939 4.20429L11.2095 19.6275L4.37853 12.7791C4.14391 12.5439 3.82572 12.4118 3.49394 12.4118C3.16216 12.4118 2.84397 12.5439 2.60935 12.7791L0 15.395Z" fill="#B9B6B6"/>
</svg>
