<svg width="28" height="28" viewBox="0 0 28 28" fill="none" xmlns="http://www.w3.org/2000/svg">
<g filter="url(#filter0_d_1_3061)">
<path d="M20.0634 10.9831C19.6474 11.1693 19.2082 11.2857 18.7459 11.3556C19.2082 11.0762 19.578 10.6339 19.7398 10.0985C19.3007 10.3546 18.8153 10.5408 18.2837 10.6572C17.8676 10.2149 17.2666 9.93555 16.6195 9.93555C15.3713 9.93555 14.3543 10.9598 14.3543 12.2169C14.3543 12.4031 14.3774 12.5661 14.4236 12.729C12.5514 12.6359 10.8641 11.728 9.73151 10.3313C9.5466 10.6805 9.43103 11.0529 9.43103 11.472C9.43103 12.2634 9.82396 12.9618 10.448 13.3808C10.0782 13.3576 9.73151 13.2644 9.40791 13.1015V13.1248C9.40791 14.2422 10.1938 15.1733 11.2339 15.3828C11.049 15.4294 10.841 15.4527 10.633 15.4527C10.4943 15.4527 10.3325 15.4294 10.1938 15.4061C10.4943 16.314 11.3264 16.9891 12.3203 16.9891C11.5344 17.5943 10.5636 17.9668 9.50037 17.9668C9.31546 17.9668 9.13055 17.9668 8.96875 17.9435C9.98576 18.5953 11.1646 18.9678 12.459 18.9678C16.6426 18.9678 18.9308 15.476 18.9308 12.4497C18.9308 12.3566 18.9308 12.2402 18.9308 12.1471C19.37 11.8444 19.7629 11.4487 20.0634 10.9831Z" fill="white"/>
</g>
<defs>
<filter id="filter0_d_1_3061" x="4.96875" y="9.93555" width="19.0947" height="17.0322" filterUnits="userSpaceOnUse" color-interpolation-filters="sRGB">
<feFlood flood-opacity="0" result="BackgroundImageFix"/>
<feColorMatrix in="SourceAlpha" type="matrix" values="0 0 0 0 0 0 0 0 0 0 0 0 0 0 0 0 0 0 127 0" result="hardAlpha"/>
<feOffset dy="4"/>
<feGaussianBlur stdDeviation="2"/>
<feComposite in2="hardAlpha" operator="out"/>
<feColorMatrix type="matrix" values="0 0 0 0 0 0 0 0 0 0 0 0 0 0 0 0 0 0 0.25 0"/>
<feBlend mode="normal" in2="BackgroundImageFix" result="effect1_dropShadow_1_3061"/>
<feBlend mode="normal" in="SourceGraphic" in2="effect1_dropShadow_1_3061" result="shape"/>
</filter>
</defs>
</svg>
