<svg width="80" height="59" viewBox="0 0 80 59" fill="none" xmlns="http://www.w3.org/2000/svg">
<path d="M71.5323 12.8337H12.8475C11.4866 12.8337 10.3844 11.8969 10.3844 10.7402C10.3844 9.58361 11.4866 8.64679 12.8475 8.64679H71.9633C73.3242 8.64679 74.4265 7.70997 74.4265 6.55333C74.4265 3.08473 71.1182 0.272949 67.037 0.272949H10.3844C4.94233 0.272949 0.531738 4.02155 0.531738 8.64679V50.516C0.531738 55.1412 4.94233 58.8898 10.3844 58.8898H71.5323C75.8459 58.8898 79.3528 56.0728 79.3528 52.6095V19.1141C79.3528 15.6507 75.8459 12.8337 71.5323 12.8337ZM64.5739 40.0487C61.8536 40.0487 59.6475 38.1737 59.6475 35.8618C59.6475 33.5498 61.8536 31.6749 64.5739 31.6749C67.2941 31.6749 69.5002 33.5498 69.5002 35.8618C69.5002 38.1737 67.2941 40.0487 64.5739 40.0487Z" fill="white"/>
</svg>
