<svg width="57" height="70" viewBox="0 0 57 70" fill="none" xmlns="http://www.w3.org/2000/svg">
<path fill-rule="evenodd" clip-rule="evenodd" d="M21.3771 15.3153L39.3121 10.8314C40.6082 10.5074 41.9812 10.7244 43.1132 11.4334C44.2462 12.1424 45.0411 13.2814 45.3162 14.5884L45.4692 15.3153C45.4802 15.3153 45.4902 15.3153 45.5001 15.3153C45.5001 15.3153 46.3921 15.3153 47.4871 15.3153C48.8172 15.3153 50.0922 15.8433 51.0322 16.7833C51.9721 17.7233 52.5001 18.9983 52.5001 20.3283V33.3154H53.4822C54.2831 33.3154 55.0502 33.6334 55.6162 34.1994C56.1823 34.7654 56.5003 35.5324 56.5003 36.3334V44.2974C56.5003 45.0984 56.1823 45.8654 55.6162 46.4314C55.0502 46.9975 54.2831 47.3154 53.4822 47.3154H52.5001V54.6235C52.5001 55.8685 52.0061 57.0615 51.1261 57.9415C50.2461 58.8215 49.0532 59.3155 47.8082 59.3155C38.5542 59.3155 14.4461 59.3155 5.19202 59.3155C3.94701 59.3155 2.75401 58.8215 1.87401 57.9415C0.994 57.0615 0.5 55.8685 0.5 54.6235V20.3153C0.507 17.5523 2.74801 15.3153 5.51302 15.3153H21.3771ZM50.5001 33.3154V28.0074C50.5001 27.2934 50.2162 26.6084 49.7122 26.1034C49.2071 25.5994 48.5222 25.3154 47.8082 25.3154H5.50002C4.33801 25.3154 3.31401 24.9934 2.50001 24.4224V54.6235C2.50001 55.3375 2.78401 56.0225 3.28801 56.5275C3.79301 57.0315 4.47801 57.3155 5.19202 57.3155H47.8082C48.5222 57.3155 49.2071 57.0315 49.7122 56.5275C50.2162 56.0225 50.5001 55.3375 50.5001 54.6235V47.3154H43.1832C40.5972 47.3154 38.5001 45.2184 38.5001 42.6324C38.5001 41.1614 38.5001 39.4694 38.5001 37.9984C38.5001 35.4124 40.5972 33.3154 43.1832 33.3154H50.5001ZM54.5001 36.3334V44.2974C54.5001 44.5674 54.3932 44.8264 54.2021 45.0174C54.0111 45.2084 53.7522 45.3154 53.4822 45.3154H43.1832C41.7012 45.3154 40.5001 44.1144 40.5001 42.6324C40.5001 41.1614 40.5001 39.4694 40.5001 37.9984C40.5001 36.5164 41.7012 35.3154 43.1832 35.3154H53.4822C53.7522 35.3154 54.0111 35.4224 54.2021 35.6134C54.3932 35.8044 54.5001 36.0634 54.5001 36.3334ZM45.5001 38.3154C44.3961 38.3154 43.5001 39.2114 43.5001 40.3154C43.5001 41.4194 44.3961 42.3154 45.5001 42.3154C46.6041 42.3154 47.5001 41.4194 47.5001 40.3154C47.5001 39.2114 46.6041 38.3154 45.5001 38.3154ZM13.377 17.3153H5.51302C3.85201 17.3153 2.50601 18.6583 2.50001 20.3173L2.50101 20.3974C2.53901 22.1174 3.76401 23.3154 5.50002 23.3154H47.8082C48.7782 23.3154 49.7161 23.6154 50.5001 24.1644V20.3273C50.5001 19.5293 50.1831 18.7623 49.6181 18.1973C49.0532 17.6323 48.2861 17.3153 47.4871 17.3153H45.8901L46.4791 20.1093C46.5411 20.4044 46.4661 20.7114 46.2771 20.9454C46.0872 21.1794 45.8011 21.3154 45.5001 21.3154H5.50002C4.99502 21.3154 4.56902 20.9384 4.50701 20.4374C4.44601 19.9363 4.76802 19.4673 5.25702 19.3453L13.377 17.3153ZM21.725 17.2903C21.737 17.2873 21.7491 17.2843 21.761 17.2803L39.7971 12.7714C40.5662 12.5794 41.3801 12.7084 42.0522 13.1294C42.7242 13.5494 43.1962 14.2254 43.3591 15.0004L44.2682 19.3153H13.623L21.725 17.2903Z" fill="url(#paint0_linear_1_3028)"/>
<defs>
<linearGradient id="paint0_linear_1_3028" x1="1.36487" y1="36.3263" x2="56.5061" y2="36.009" gradientUnits="userSpaceOnUse">
<stop stop-color="#648C5A"/>
<stop offset="0.20048" stop-color="#507D46"/>
<stop offset="0.349756" stop-color="#3D6F31"/>
<stop offset="0.490866" stop-color="#3D6F31"/>
<stop offset="0.675062" stop-color="#235517"/>
<stop offset="0.84362" stop-color="#0A3C00"/>
<stop offset="1" stop-color="#002200"/>
</linearGradient>
</defs>
</svg>
